<svg width="24" height="24" viewBox="0 0 24 24" fill="none" xmlns="http://www.w3.org/2000/svg">
<path d="M17.2861 14.1512C16.9669 13.0156 16.277 12.0142 15.3221 11.3006C14.3673 10.587 13.2002 10.2005 12 10.2005C10.7998 10.2005 9.63273 10.587 8.67786 11.3006C7.72299 12.0142 7.03305 13.0156 6.71388 14.1512L5.9533 16.8572C5.81674 17.343 5.79637 17.8533 5.89377 18.3481C5.99117 18.843 6.20371 19.3091 6.51483 19.7101C6.82594 20.111 7.22722 20.4361 7.68737 20.6598C8.14752 20.8836 8.65411 21 9.16765 21H14.8323C15.3459 21 15.8525 20.8836 16.3126 20.6598C16.7728 20.4361 17.174 20.111 17.4852 19.7101C17.7963 19.3091 18.0088 18.843 18.1062 18.3481C18.2036 17.8533 18.1832 17.343 18.0467 16.8572L17.2861 14.1512ZM16.4241 18.9168C16.2382 19.1583 15.9976 19.354 15.7213 19.4884C15.445 19.6227 15.1407 19.6921 14.8323 19.691H9.16765C8.85952 19.691 8.55556 19.6211 8.27946 19.4869C8.00337 19.3526 7.7626 19.1576 7.57592 18.917C7.38925 18.6764 7.26172 18.3968 7.20328 18.0998C7.14485 17.8029 7.15707 17.4968 7.23901 17.2052L7.9996 14.4993C8.24114 13.6399 8.76327 12.8821 9.48589 12.3421C10.2085 11.802 11.0917 11.5095 12 11.5095C12.9083 11.5095 13.7915 11.802 14.5141 12.3421C15.2367 12.8821 15.7588 13.6399 16.0004 14.4993L16.761 17.2052C16.8441 17.4967 16.8569 17.8031 16.7984 18.1002C16.74 18.3973 16.6118 18.677 16.4241 18.917V18.9168ZM7.41932 11.1132C7.53536 10.4014 7.38148 9.63939 6.98585 8.96704C6.59022 8.29469 5.99469 7.7829 5.30876 7.52563C4.57418 7.25029 3.82494 7.29414 3.19832 7.64905C1.95262 8.35495 1.6248 10.0947 2.4677 11.5273C2.86321 12.1996 3.45878 12.7115 4.14471 12.9687C4.44856 13.0849 4.77154 13.1455 5.09765 13.1475C5.50392 13.1489 5.90332 13.0446 6.25515 12.8452C6.8814 12.4902 7.29487 11.8751 7.41932 11.1132ZM6.10222 10.9062C6.04262 11.2715 5.86006 11.5575 5.58818 11.7115C5.3163 11.8656 4.97269 11.8777 4.62049 11.7458C4.21982 11.5956 3.86545 11.2855 3.62262 10.8727C3.1558 10.0791 3.26675 9.12191 3.8652 8.78271C4.01564 8.69892 4.18602 8.65576 4.35899 8.65762C4.52124 8.65927 4.68182 8.69 4.83281 8.74831C5.23348 8.89856 5.58785 9.2086 5.83068 9.62139C6.07351 10.0342 6.16991 10.4906 6.10222 10.9062ZM7.56379 8.40129C8.03736 8.77285 8.57816 8.96634 9.12505 8.9663C9.28886 8.96625 9.4522 8.94896 9.61225 8.91472C11.0178 8.61483 11.8701 7.05577 11.512 5.43933C11.3441 4.68066 10.9357 4.01506 10.3622 3.56504C9.748 3.08316 9.02051 2.90075 8.3137 3.05162C6.90816 3.35147 6.05592 4.91052 6.41391 6.52697C6.58192 7.28567 6.99031 7.95127 7.56379 8.40129ZM8.59696 4.33079C8.66177 4.31707 8.72789 4.31021 8.79419 4.31033C9.0421 4.31033 9.29711 4.40552 9.52931 4.58772C9.86429 4.85055 10.1056 5.25181 10.2087 5.71762C10.4071 6.61328 10.0042 7.49168 9.32895 7.63576C9.02214 7.70121 8.69103 7.61007 8.39668 7.37906C8.0617 7.11619 7.82041 6.71494 7.7173 6.24917C7.51886 5.35326 7.92174 4.47486 8.59696 4.33079ZM20.8017 7.64905C20.1753 7.29414 19.4257 7.25029 18.6912 7.52563C18.0053 7.78282 17.4097 8.29469 17.0142 8.96704C16.6187 9.63939 16.4648 10.4015 16.5807 11.1132C16.705 11.8751 17.1184 12.4902 17.7449 12.8452C18.0967 13.0446 18.4961 13.1489 18.9024 13.1475C19.2285 13.1455 19.5515 13.0849 19.8554 12.9687C20.5413 12.7115 21.1369 12.1996 21.5324 11.5273C22.3752 10.0947 22.0474 8.35495 20.8017 7.64905ZM20.3774 10.8727C20.1345 11.2855 19.7802 11.5956 19.3795 11.7458C19.0275 11.8778 18.6838 11.8657 18.4119 11.7115C18.14 11.5574 17.9576 11.2715 17.8978 10.9062C17.8301 10.4906 17.9264 10.0343 18.1693 9.62176C18.4122 9.20917 18.7665 8.89893 19.1672 8.74868C19.3182 8.69032 19.4787 8.65952 19.641 8.65782C19.814 8.65596 19.9843 8.69913 20.1348 8.78292C20.7332 9.12183 20.8443 10.0789 20.3774 10.8727ZM14.3877 8.91472C14.5478 8.94896 14.7111 8.96625 14.8749 8.9663C15.4218 8.9663 15.9628 8.77285 16.4362 8.40129C17.0097 7.95131 17.4181 7.28567 17.5861 6.52701C17.9441 4.91056 17.0918 3.35151 15.6863 3.05166C14.9795 2.90088 14.252 3.08316 13.6378 3.56509C13.0643 4.01506 12.6559 4.68071 12.4879 5.43933C12.1299 7.05577 12.9821 8.61483 14.3877 8.91472ZM13.7913 5.71742C13.8944 5.25161 14.1357 4.85018 14.4707 4.58752C14.7029 4.40532 14.9579 4.31013 15.2058 4.31013C15.2721 4.31001 15.3382 4.31687 15.403 4.33058C16.0782 4.47466 16.4811 5.35326 16.2828 6.24872C16.1796 6.71453 15.9383 7.11595 15.6034 7.37866C15.3091 7.60962 14.9782 7.70076 14.6711 7.63535C13.9958 7.49148 13.5929 6.61296 13.7913 5.71742Z" fill="#061F28"/>
</svg>
