<svg width="24" height="24" viewBox="0 0 24 24" fill="none" xmlns="http://www.w3.org/2000/svg">
<path d="M21 20.25H20.75V15.75H21C21.1989 15.75 21.3897 15.671 21.5303 15.5303C21.671 15.3897 21.75 15.1989 21.75 15C21.75 14.8011 21.671 14.6103 21.5303 14.4697C21.3897 14.329 21.1989 14.25 21 14.25H18.75V5C18.7495 4.27082 18.4596 3.57165 17.944 3.05604C17.4283 2.54043 16.7292 2.25053 16 2.25H8C7.27082 2.25053 6.57165 2.54043 6.05604 3.05604C5.54043 3.57165 5.25053 4.27082 5.25 5V14.25H3C2.80109 14.25 2.61032 14.329 2.46967 14.4697C2.32902 14.6103 2.25 14.8011 2.25 15C2.25 15.1989 2.32902 15.3897 2.46967 15.5303C2.61032 15.671 2.80109 15.75 3 15.75H3.25V20.25H3C2.80109 20.25 2.61032 20.329 2.46967 20.4697C2.32902 20.6103 2.25 20.8011 2.25 21C2.25 21.1989 2.32902 21.3897 2.46967 21.5303C2.61032 21.671 2.80109 21.75 3 21.75H21C21.1989 21.75 21.3897 21.671 21.5303 21.5303C21.671 21.3897 21.75 21.1989 21.75 21C21.75 20.8011 21.671 20.6103 21.5303 20.4697C21.3897 20.329 21.1989 20.25 21 20.25ZM6.75 5C6.75 4.311 7.311 3.75 8 3.75H16C16.689 3.75 17.25 4.311 17.25 5V14.25H6.75V5ZM7.25 20.25H4.75V15.75H7.25V20.25ZM11.25 20.25H8.75V15.75H11.25V20.25ZM15.25 20.25H12.75V15.75H15.25V20.25ZM19.25 20.25H16.75V15.75H19.25V20.25Z" fill="#061F28"/>
</svg>
