<svg width="24" height="24" viewBox="0 0 24 24" fill="none" xmlns="http://www.w3.org/2000/svg">
<path fill-rule="evenodd" clip-rule="evenodd" d="M10.9436 3.25092H13.0564C14.8942 3.2509 16.3498 3.25089 17.489 3.40406C18.6614 3.56169 19.6104 3.89382 20.3588 4.64221C21.1071 5.3906 21.4392 6.33959 21.5969 7.51205C21.7482 8.63787 21.75 10.0727 21.75 11.8799C22.0939 12.1637 22.3669 12.5295 22.5407 12.9489C22.661 13.2393 22.7076 13.5388 22.7292 13.856C22.75 14.1606 22.75 14.5316 22.75 14.9761V15.0266C22.75 15.4711 22.75 15.8421 22.7292 16.1468C22.7076 16.4639 22.661 16.7634 22.5407 17.0538C22.2616 17.7277 21.7262 18.263 21.0524 18.5422C20.762 18.6625 20.4625 18.7091 20.1454 18.7307C20.0242 18.739 19.8926 18.744 19.75 18.747V20.0015C19.75 20.4158 19.4142 20.7516 19 20.7516C18.5858 20.7516 18.25 20.4158 18.25 20.0015V18.7515H5.75V20.0015C5.75 20.4158 5.41421 20.7516 5 20.7516C4.58579 20.7516 4.25 20.4158 4.25 20.0015V18.747C4.10741 18.744 3.97577 18.739 3.85464 18.7307C3.53754 18.7091 3.23801 18.6625 2.94762 18.5422C2.27379 18.263 1.73844 17.7277 1.45933 17.0538C1.33905 16.7634 1.29241 16.4639 1.27077 16.1468C1.24999 15.8421 1.24999 15.4711 1.25 15.0266V14.9761C1.24999 14.5316 1.24999 14.1606 1.27077 13.856C1.29241 13.5388 1.33905 13.2393 1.45933 12.9489C1.63307 12.5295 1.90609 12.1637 2.25 11.8799C2.25001 10.0727 2.25178 8.63787 2.40314 7.51205C2.56076 6.33959 2.89288 5.3906 3.64124 4.64221C4.38961 3.89382 5.33856 3.56169 6.51098 3.40406C7.65019 3.25089 9.10582 3.2509 10.9436 3.25092ZM3.75039 11.2801C3.78493 11.2771 3.81968 11.2744 3.85464 11.272C4.1064 11.2548 4.40354 11.2518 4.75 11.2513L4.75 10.4492C4.74997 9.55067 4.74995 8.80143 4.82991 8.20662C4.91432 7.57881 5.09999 7.01198 5.55546 6.5565C6.01093 6.10101 6.57773 5.91533 7.20552 5.83092C7.8003 5.75096 8.54952 5.75098 9.448 5.75101H14.552C15.4505 5.75098 16.1997 5.75096 16.7945 5.83092C17.4223 5.91533 17.9891 6.10101 18.4445 6.5565C18.9 7.01198 19.0857 7.57881 19.1701 8.20662C19.2501 8.80143 19.25 9.55068 19.25 10.4492V11.2513C19.5965 11.2518 19.8936 11.2548 20.1454 11.272C20.1803 11.2744 20.2151 11.2771 20.2496 11.2801C20.2472 9.74521 20.2303 8.60508 20.1102 7.71193C19.975 6.70581 19.7213 6.12614 19.2981 5.70291C18.8749 5.27969 18.2952 5.02601 17.2892 4.89074C16.2615 4.75257 14.9068 4.75097 13 4.75097H11C9.09318 4.75097 7.73851 4.75257 6.71085 4.89074C5.70476 5.02601 5.12511 5.27969 4.7019 5.70291C4.27869 6.12614 4.02502 6.70581 3.88976 7.71193C3.76968 8.60508 3.75276 9.74521 3.75039 11.2801ZM17.75 11.2512V10.5012C17.75 9.53714 17.7484 8.88956 17.6835 8.4065C17.6214 7.94502 17.5142 7.74752 17.3839 7.6172C17.2536 7.48688 17.0561 7.37965 16.5946 7.31761C16.1116 7.25266 15.464 7.25107 14.5 7.25107H12.75V11.2512H17.75ZM11.25 11.2512V7.25107H9.5C8.53599 7.25107 7.88843 7.25266 7.40539 7.31761C6.94393 7.37965 6.74643 7.48688 6.61612 7.6172C6.4858 7.74752 6.37858 7.94502 6.31654 8.4065C6.25159 8.88956 6.25 9.53714 6.25 10.5012V11.2512H11.25ZM3.95674 12.7686C3.71602 12.785 3.5988 12.8145 3.52165 12.8464C3.21536 12.9733 2.97202 13.2167 2.84515 13.523C2.81319 13.6001 2.78372 13.7173 2.76729 13.9581C2.75041 14.2055 2.75 14.5251 2.75 15.0014C2.75 15.4776 2.75041 15.7972 2.76729 16.0447C2.78372 16.2854 2.81319 16.4026 2.84515 16.4798C2.97202 16.7861 3.21536 17.0294 3.52165 17.1563C3.5988 17.1883 3.71602 17.2177 3.95674 17.2342C4.20421 17.251 4.5238 17.2514 5 17.2514H19C19.4762 17.2514 19.7958 17.251 20.0433 17.2342C20.284 17.2177 20.4012 17.1883 20.4784 17.1563C20.7846 17.0294 21.028 16.7861 21.1549 16.4798C21.1868 16.4026 21.2163 16.2854 21.2327 16.0447C21.2496 15.7972 21.25 15.4776 21.25 15.0014C21.25 14.5251 21.2496 14.2055 21.2327 13.9581C21.2163 13.7173 21.1868 13.6001 21.1549 13.523C21.028 13.2167 20.7846 12.9733 20.4784 12.8464C20.4012 12.8145 20.284 12.785 20.0433 12.7686C19.7958 12.7517 19.4762 12.7513 19 12.7513H5C4.5238 12.7513 4.20421 12.7517 3.95674 12.7686Z" fill="#117399"/>
</svg>
