<svg width="16" height="16" viewBox="0 0 24 24" fill="none" xmlns="http://www.w3.org/2000/svg">
<path d="M19.5302 6.40398C19.8192 6.67719 19.9879 7.054 19.9991 7.45155C20.0104 7.8491 19.8633 8.23485 19.5902 8.52398L11.0902 17.524C10.9524 17.6696 10.7869 17.7861 10.6033 17.8666C10.4198 17.9472 10.2219 17.9901 10.0215 17.9929C9.82109 17.9957 9.62214 17.9583 9.43641 17.8829C9.25068 17.8075 9.08195 17.6957 8.94018 17.554L4.44018 13.054C4.17522 12.7696 4.03097 12.3935 4.03783 12.0049C4.04469 11.6163 4.20211 11.2456 4.47694 10.9707C4.75176 10.6959 5.12253 10.5385 5.51114 10.5316C5.89974 10.5248 6.27583 10.669 6.56018 10.934L9.97018 14.342L17.4102 6.46398C17.6834 6.17497 18.0602 6.0063 18.4578 5.99505C18.8553 5.9838 19.2411 6.13089 19.5302 6.40398Z" fill="white"/>
</svg>
