<svg width="24" height="24" viewBox="0 0 24 24" fill="none" xmlns="http://www.w3.org/2000/svg">
<path d="M8.5 22.0027C8.06667 22.0027 7.70833 21.8611 7.425 21.5777C7.14167 21.2944 7 20.9361 7 20.5027C7 20.0694 7.14167 19.7111 7.425 19.4277C7.70833 19.1444 8.06667 19.0027 8.5 19.0027C8.93333 19.0027 9.29167 19.1444 9.575 19.4277C9.85833 19.7111 10 20.0694 10 20.5027C10 20.9361 9.85833 21.2944 9.575 21.5777C9.29167 21.8611 8.93333 22.0027 8.5 22.0027ZM19.5 22.0027C19.0667 22.0027 18.7083 21.8611 18.425 21.5777C18.1417 21.2944 18 20.9361 18 20.5027C18 20.0694 18.1417 19.7111 18.425 19.4277C18.7083 19.1444 19.0667 19.0027 19.5 19.0027C19.9333 19.0027 20.2917 19.1444 20.575 19.4277C20.8583 19.7111 21 20.0694 21 20.5027C21 20.9361 20.8583 21.2944 20.575 21.5777C20.2917 21.8611 19.9333 22.0027 19.5 22.0027ZM12 18.0027C10.6167 18.0027 9.43767 17.5151 8.463 16.5397C7.48833 15.5644 7.00067 14.3854 7 13.0027V5.30275L6.5 4.70275C6.26667 4.41941 6.071 4.23208 5.913 4.14075C5.755 4.04941 5.584 4.00341 5.4 4.00275C5 4.00275 4.66667 4.15275 4.4 4.45275C4.36625 4.49071 4.33464 4.52948 4.30517 4.56904C3.97522 5.01194 3.55228 5.50275 3 5.50275C2.44772 5.50275 1.98221 5.04627 2.13149 4.51455C2.28412 3.9709 2.56962 3.4793 2.988 3.03975C3.64667 2.34775 4.45067 2.00208 5.4 2.00275C5.9 2.00275 6.35833 2.11941 6.775 2.35275C7.19167 2.58608 7.61667 2.95275 8.05 3.45275L18.75 16.3527C19.0333 16.6861 19.0877 17.0444 18.913 17.4277C18.7383 17.8111 18.434 18.0027 18 18.0027H12ZM12 16.0027H15.85L9 7.70275V13.0027C9 13.8361 9.29167 14.5444 9.875 15.1277C10.4583 15.7111 11.1667 16.0027 12 16.0027Z" fill="#117399"/>
</svg>
