<svg width="24" height="24" viewBox="0 0 24 24" fill="none" xmlns="http://www.w3.org/2000/svg">
<path d="M2 7.57418C2 5.16006 2 3.953 2.65451 3.13228C2.79456 2.95665 2.9539 2.79731 3.12953 2.65725C3.95025 2.00275 5.15731 2.00275 7.57143 2.00275H16.4286C18.8427 2.00275 20.0497 2.00275 20.8705 2.65725C21.0461 2.79731 21.2054 2.95665 21.3455 3.13228C22 3.953 22 5.16006 22 7.57417C22 10.793 22 12.4024 21.1273 13.4967C20.9406 13.7309 20.7281 13.9433 20.494 14.1301C19.3997 15.0027 17.7903 15.0027 14.5714 15.0027H9.42857C6.20975 15.0027 4.60034 15.0027 3.50604 14.1301C3.27187 13.9433 3.05942 13.7309 2.87267 13.4967C2 12.4024 2 10.793 2 7.57418Z" stroke="#117399" stroke-width="1.5"/>
<path d="M7.00002 17.5027L6.69339 17.9627C6.30438 18.5462 6.43898 19.332 7.00002 19.7527C7.56105 20.1735 7.69565 20.9593 7.30664 21.5428L7.00002 22.0027M12 17.5027L11.6934 17.9627C11.3044 18.5462 11.439 19.332 12 19.7527C12.5611 20.1735 12.6956 20.9593 12.3066 21.5428L12 22.0027M17 17.5027L16.6934 17.9627C16.3044 18.5462 16.439 19.332 17 19.7527C17.5611 20.1735 17.6956 20.9593 17.3066 21.5428L17 22.0027" stroke="#117399" stroke-width="1.5" stroke-linecap="round"/>
<path d="M18 14.5027C18 14.0381 18 13.8058 17.9616 13.6126C17.8037 12.8192 17.1836 12.199 16.3902 12.0412C16.197 12.0027 15.9646 12.0027 15.5 12.0027H8.99999C8.06811 12.0027 7.60217 12.0027 7.23462 12.155C6.74457 12.358 6.35522 12.7473 6.15223 13.2374C6.03003 13.5324 6.00592 13.8908 6.00116 14.5027" stroke="#117399" stroke-width="1.5" stroke-linecap="round"/>
<path d="M6 8.50275H18" stroke="#117399" stroke-width="1.5" stroke-linecap="round"/>
<path d="M6 6.00275H18" stroke="#117399" stroke-width="1.5" stroke-linecap="round"/>
</svg>
