<svg width="24" height="24" viewBox="0 0 24 24" fill="none" xmlns="http://www.w3.org/2000/svg">
<path d="M6.25 3C5.38805 3 4.5614 3.34241 3.9519 3.9519C3.34241 4.5614 3 5.38805 3 6.25V10H4.5V9.5H19.5V17.75C19.5 18.2141 19.3156 18.6592 18.9874 18.9874C18.6592 19.3156 18.2141 19.5 17.75 19.5H7V19.518C7.766 19.628 8.373 20.234 8.482 21H17.75C18.612 21 19.4386 20.6576 20.0481 20.0481C20.6576 19.4386 21 18.612 21 17.75V6.25C21 5.38805 20.6576 4.5614 20.0481 3.9519C19.4386 3.34241 18.612 3 17.75 3H6.25ZM19.5 8H4.5V6.25C4.5 5.284 5.284 4.5 6.25 4.5H17.75C18.716 4.5 19.5 5.284 19.5 6.25V8ZM9 6.25C9 6.51522 8.89464 6.76957 8.70711 6.95711C8.51957 7.14464 8.26522 7.25 8 7.25C7.73478 7.25 7.48043 7.14464 7.29289 6.95711C7.10536 6.76957 7 6.51522 7 6.25C7 5.98478 7.10536 5.73043 7.29289 5.54289C7.48043 5.35536 7.73478 5.25 8 5.25C8.26522 5.25 8.51957 5.35536 8.70711 5.54289C8.89464 5.73043 9 5.98478 9 6.25ZM12.75 5.5C12.5511 5.5 12.3603 5.57902 12.2197 5.71967C12.079 5.86032 12 6.05109 12 6.25C12 6.44891 12.079 6.63968 12.2197 6.78033C12.3603 6.92098 12.5511 7 12.75 7H16.25C16.4489 7 16.6397 6.92098 16.7803 6.78033C16.921 6.63968 17 6.44891 17 6.25C17 6.05109 16.921 5.86032 16.7803 5.71967C16.6397 5.57902 16.4489 5.5 16.25 5.5H12.75ZM2 11.75C2 11.5511 2.07902 11.3603 2.21967 11.2197C2.36032 11.079 2.55109 11 2.75 11H7.75C7.94891 11 8.13968 11.079 8.28033 11.2197C8.42098 11.3603 8.5 11.5511 8.5 11.75V13.75C8.49998 14.4816 8.25319 15.1919 7.79952 15.7658C7.34585 16.3398 6.71183 16.744 6 16.913V20.5H6.75C6.94891 20.5 7.13968 20.579 7.28033 20.7197C7.42098 20.8603 7.5 21.0511 7.5 21.25C7.5 21.4489 7.42098 21.6397 7.28033 21.7803C7.13968 21.921 6.94891 22 6.75 22H3.75C3.55109 22 3.36032 21.921 3.21967 21.7803C3.07902 21.6397 3 21.4489 3 21.25C3 21.0511 3.07902 20.8603 3.21967 20.7197C3.36032 20.579 3.55109 20.5 3.75 20.5H4.5V16.913C3.78817 16.744 3.15415 16.3398 2.70048 15.7658C2.24681 15.1919 2.00002 14.4816 2 13.75V11.75Z" fill="#061F28"/>
</svg>
