<svg width="24" height="24" viewBox="0 0 24 24" fill="none" xmlns="http://www.w3.org/2000/svg">
<path d="M12 8.294H16.5C17.0304 8.294 17.5391 8.50471 17.9142 8.87979C18.2893 9.25486 18.5 9.76357 18.5 10.294V19C18.5 19.5304 18.2893 20.0391 17.9142 20.4142C17.5391 20.7893 17.0304 21 16.5 21H12M12 8.294H7.5C6.96957 8.294 6.46086 8.50471 6.08579 8.87979C5.71071 9.25486 5.5 9.76357 5.5 10.294V19C5.5 19.5304 5.71071 20.0391 6.08579 20.4142C6.46086 20.7893 6.96957 21 7.5 21H12M12 8.294V21M7.125 4.588L8.75 3L10.375 4.588M13.625 3L15.25 4.588L16.875 3" stroke="#061F28" stroke-width="1.5" stroke-linecap="round" stroke-linejoin="round"/>
</svg>
