<svg width="24" height="24" viewBox="0 0 24 24" fill="none" xmlns="http://www.w3.org/2000/svg">
<g clip-path="url(#clip0_49_6418)">
<rect y="0.00268555" width="24" height="24" rx="5" fill="white"/>
<path d="M12 2.00043C10.0222 2.00043 8.08879 2.58692 6.4443 3.68573C4.79981 4.78454 3.51809 6.34633 2.76121 8.17359C2.00433 10.0009 1.8063 12.0115 2.19215 13.9513C2.578 15.8911 3.53041 17.673 4.92894 19.0715C6.32746 20.47 8.10929 21.4224 10.0491 21.8083C11.9889 22.1941 13.9996 21.9961 15.8268 21.2392C17.6541 20.4823 19.2159 19.2006 20.3147 17.5561C21.4135 15.9116 22 13.9782 22 12.0004C22 9.34826 20.9464 6.80472 19.0711 4.92936C17.1957 3.054 14.6522 2.00043 12 2.00043ZM10.7583 7.00043C10.7583 6.66891 10.89 6.35096 11.1245 6.11654C11.3589 5.88212 11.6768 5.75043 12.0083 5.75043C12.3399 5.75043 12.6578 5.88212 12.8922 6.11654C13.1266 6.35096 13.2583 6.66891 13.2583 7.00043V12.7421C13.2583 12.9062 13.226 13.0688 13.1632 13.2204C13.1004 13.3721 13.0083 13.5099 12.8922 13.626C12.7761 13.742 12.6383 13.8341 12.4867 13.8969C12.335 13.9598 12.1725 13.9921 12.0083 13.9921C11.8442 13.9921 11.6816 13.9598 11.53 13.8969C11.3783 13.8341 11.2405 13.742 11.1245 13.626C11.0084 13.5099 10.9163 13.3721 10.8535 13.2204C10.7907 13.0688 10.7583 12.9062 10.7583 12.7421V7.00043ZM12 18.2504C11.7165 18.2504 11.4394 18.1664 11.2037 18.0089C10.968 17.8514 10.7843 17.6275 10.6758 17.3656C10.5673 17.1037 10.5389 16.8155 10.5942 16.5375C10.6495 16.2594 10.786 16.004 10.9865 15.8036C11.1869 15.6031 11.4423 15.4666 11.7204 15.4113C11.9984 15.356 12.2866 15.3844 12.5485 15.4929C12.8104 15.6013 13.0343 15.7851 13.1918 16.0208C13.3493 16.2565 13.4333 16.5336 13.4333 16.8171C13.4333 17.1972 13.2823 17.5618 13.0135 17.8306C12.7447 18.0994 12.3801 18.2504 12 18.2504Z" fill="#C72D2D"/>
</g>
<defs>
<clipPath id="clip0_49_6418">
<rect y="0.00268555" width="24" height="24" rx="5" fill="white"/>
</clipPath>
</defs>
</svg>
