<svg width="24" height="24" viewBox="0 0 24 24" fill="none" xmlns="http://www.w3.org/2000/svg">
<path d="M3 21.002H21M4 18.002H20M6 10.002V18.002M10 10.002V18.002M14 10.002V18.002M18 10.002V18.002M4 9.50197V8.50197C4 8.20197 4.2 7.90197 4.5 7.70197L11.5 3.20197C11.652 3.1142 11.8245 3.06799 12 3.06799C12.1755 3.06799 12.348 3.1142 12.5 3.20197L19.5 7.70197C19.8 7.90197 20 8.20197 20 8.50197V9.50197C20 9.80197 19.8 10.002 19.5 10.002H4.5C4.36739 10.002 4.24021 9.94929 4.14645 9.85552C4.05268 9.76175 4 9.63458 4 9.50197Z" stroke="#117399" stroke-width="1.5" stroke-linecap="round"/>
</svg>
