<svg width="24" height="24" viewBox="0 0 24 24" fill="none" xmlns="http://www.w3.org/2000/svg">
<path d="M12 15.8092L8.22178 12.0224L12 8.23561L15.7782 12.0224L12 15.8092ZM13.2361 20.4848C13.0663 20.6551 12.8746 20.7836 12.6611 20.8705C12.4475 20.9581 12.2272 21.002 12 21.002C11.7728 21.002 11.5525 20.9581 11.3389 20.8705C11.1254 20.7843 10.9337 20.6561 10.7639 20.4859L3.49445 13.1989C3.33823 13.043 3.21677 12.8581 3.13006 12.644C3.04335 12.43 3 12.216 3 12.002C3 11.7879 3.04335 11.5739 3.13006 11.3599C3.21677 11.1458 3.33823 10.9605 3.49445 10.804L10.7574 3.52446C10.9316 3.34993 11.1243 3.21921 11.3357 3.13231C11.5471 3.04541 11.7685 3.00195 12 3.00195C12.2315 3.00195 12.4529 3.04541 12.6643 3.13231C12.8757 3.21921 13.0684 3.34993 13.2426 3.52446L20.5056 10.804C20.6618 10.9605 20.7832 11.1458 20.8699 11.3599C20.9566 11.5739 21 11.7879 21 12.002C21 12.216 20.9566 12.43 20.8699 12.644C20.7832 12.8581 20.6618 13.043 20.5056 13.1989L13.2361 20.4848ZM12.3515 19.4064L19.3877 12.3542C19.4844 12.2573 19.5328 12.1399 19.5328 12.002C19.5328 11.8641 19.4844 11.7466 19.3877 11.6497L12.3515 4.59748C12.2547 4.50052 12.1376 4.45563 12 4.46281C11.8624 4.46999 11.7453 4.5217 11.6485 4.61795L4.5919 11.6906C4.49516 11.7876 4.45038 11.8982 4.45754 12.0224C4.46471 12.1467 4.5163 12.2573 4.61233 12.3542L11.6485 19.4064C11.7453 19.5027 11.8624 19.5508 12 19.5508C12.1376 19.5508 12.2547 19.5027 12.3515 19.4064Z" fill="#117399"/>
</svg>
