<svg width="24" height="24" viewBox="0 0 24 24" fill="none" xmlns="http://www.w3.org/2000/svg">
<path d="M19.5 4.49999C18.3586 4.49896 17.2295 4.73621 16.185 5.19655C14.7694 2.81811 12.4425 1.63405 12.3356 1.57874C12.2314 1.5266 12.1165 1.49945 12 1.49945C11.8835 1.49945 11.7686 1.5266 11.6644 1.57874C11.5575 1.63311 9.22688 2.81811 7.815 5.19655C6.77051 4.73621 5.64143 4.49896 4.5 4.49999C4.30109 4.49999 4.11032 4.57901 3.96967 4.71966C3.82902 4.86031 3.75 5.05108 3.75 5.24999V8.99999C3.75247 11.0574 4.52267 13.0399 5.90984 14.5593C7.29701 16.0788 9.2013 17.0259 11.25 17.2153V20.5369L7.83563 18.8287C7.74748 18.7847 7.65151 18.7584 7.5532 18.7514C7.45489 18.7444 7.35617 18.7569 7.26268 18.788C7.16918 18.8192 7.08274 18.8685 7.00828 18.933C6.93383 18.9976 6.87282 19.0762 6.82875 19.1644C6.78467 19.2525 6.75839 19.3485 6.75141 19.4468C6.74442 19.5451 6.75687 19.6438 6.78803 19.7373C6.8192 19.8308 6.86847 19.9172 6.93305 19.9917C6.99762 20.0662 7.07623 20.1272 7.16437 20.1712L11.6644 22.4212C11.7686 22.4734 11.8835 22.5005 12 22.5005C12.1165 22.5005 12.2314 22.4734 12.3356 22.4212L16.8356 20.1712C17.0137 20.0822 17.149 19.9261 17.212 19.7373C17.2749 19.5485 17.2603 19.3424 17.1713 19.1644C17.0822 18.9863 16.9261 18.851 16.7373 18.788C16.5485 18.7251 16.3424 18.7397 16.1644 18.8287L12.75 20.5369V17.2153C14.7987 17.0259 16.703 16.0788 18.0902 14.5593C19.4773 13.0399 20.2475 11.0574 20.25 8.99999V5.24999C20.25 5.05108 20.171 4.86031 20.0303 4.71966C19.8897 4.57901 19.6989 4.49999 19.5 4.49999ZM11.25 15.7087C9.60065 15.5223 8.07757 14.7354 6.97105 13.4982C5.86452 12.261 5.25192 10.6598 5.25 8.99999V6.04124C6.89935 6.22771 8.42243 7.01454 9.52895 8.25178C10.6355 9.48901 11.2481 11.0901 11.25 12.75V15.7087ZM12 9.31499C11.3691 7.94424 10.3759 6.77177 9.1275 5.92405C10.0247 4.44374 11.3775 3.49593 12 3.11155C12.6234 3.49405 13.9762 4.44186 14.8725 5.92405C13.6243 6.77199 12.6312 7.9444 12 9.31499ZM18.75 8.99999C18.7481 10.6598 18.1355 12.261 17.029 13.4982C15.9224 14.7354 14.3994 15.5223 12.75 15.7087V12.75C12.7519 11.0901 13.3645 9.48901 14.471 8.25178C15.5776 7.01454 17.1006 6.22771 18.75 6.04124V8.99999Z" fill="#061F28"/>
</svg>
