<svg width="24" height="24" viewBox="0 0 24 24" fill="none" xmlns="http://www.w3.org/2000/svg">
<path d="M15.2 11.9973C15.2 12.2184 15.1157 12.4304 14.9657 12.5868C14.8157 12.7431 14.6122 12.8309 14.4 12.8309C14.1878 12.8309 13.9843 12.7431 13.8343 12.5868C13.6843 12.4304 13.6 12.2184 13.6 11.9973C13.6 11.7763 13.6843 11.5642 13.8343 11.4079C13.9843 11.2516 14.1878 11.1638 14.4 11.1638C14.6122 11.1638 14.8157 11.2516 14.9657 11.4079C15.1157 11.5642 15.2 11.7763 15.2 11.9973ZM11.3568 2.01434C11.2408 1.99017 11.1211 1.99313 11.0063 2.02298C10.8915 2.05283 10.7845 2.10884 10.693 2.18698C10.6014 2.26511 10.5277 2.36343 10.477 2.47483C10.4264 2.58624 10.4001 2.70797 10.4 2.83125V21.1651C10.4001 21.2884 10.4264 21.4101 10.477 21.5215C10.5277 21.6329 10.6014 21.7312 10.693 21.8094C10.7845 21.8875 10.8915 21.9435 11.0063 21.9734C11.1211 22.0032 11.2408 22.0062 11.3568 21.982L19.3568 20.3148C19.5381 20.2771 19.7012 20.1751 19.8185 20.0261C19.9358 19.8772 19.9999 19.6906 20 19.4979V4.49842C19.9999 4.30578 19.9358 4.11913 19.8185 3.9702C19.7012 3.82128 19.5381 3.71926 19.3568 3.6815L11.3568 2.01434ZM12 20.1481V3.84822L18.4 5.18196V18.8144L12 20.1481ZM8.8 20.3315V18.6643H5.6V5.332H8.8V3.66483H4.8C4.58783 3.66483 4.38434 3.75266 4.23431 3.90898C4.08429 4.06531 4 4.27734 4 4.49842V19.4979C4 19.719 4.08429 19.931 4.23431 20.0874C4.38434 20.2437 4.58783 20.3315 4.8 20.3315H8.8Z" fill="#117399"/>
</svg>
