<svg width="24" height="24" viewBox="0 0 24 24" fill="none" xmlns="http://www.w3.org/2000/svg">
<path d="M6.34398 12.0009L8.46498 14.1229M9.17198 9.1729L11.293 11.2929M12 6.3449L14.122 8.4669M5.06998 13.2739L13.272 5.0709C14.064 4.2789 14.46 3.8829 14.917 3.7349C15.3187 3.6044 15.7513 3.6044 16.153 3.7349C16.609 3.8829 17.005 4.2789 17.796 5.0699L18.93 6.2009C19.722 6.9929 20.118 7.3909 20.267 7.8469C20.397 8.2489 20.397 8.6809 20.267 9.0819C20.118 9.5389 19.722 9.9349 18.93 10.7269L10.728 18.9299C9.93598 19.7219 9.53898 20.1179 9.08298 20.2659C8.68098 20.3959 8.24898 20.3959 7.84798 20.2659C7.39098 20.1179 6.99398 19.7219 6.20198 18.9299L5.06898 17.7969C4.27898 17.0059 3.88198 16.6099 3.73398 16.1539C3.60348 15.7522 3.60348 15.3196 3.73398 14.9179C3.88198 14.4609 4.27898 14.0649 5.07098 13.2729" stroke="#117399" stroke-width="2" stroke-linecap="round" stroke-linejoin="round"/>
</svg>
