<svg width="24" height="24" viewBox="0 0 24 24" fill="none" xmlns="http://www.w3.org/2000/svg">
<path fill-rule="evenodd" clip-rule="evenodd" d="M11.1168 4.00049C9.98189 4.00058 8.86342 4.27208 7.85475 4.79233C6.84608 5.31258 5.97645 6.06649 5.31841 6.99117C4.66038 7.91585 4.23302 8.98447 4.072 10.1079C3.91098 11.2313 4.02096 12.377 4.39276 13.4492C4.76457 14.5215 5.38742 15.4893 6.20935 16.2719C7.03128 17.0546 8.02846 17.6293 9.11768 17.9481C10.2069 18.267 11.3566 18.3208 12.4708 18.105C13.5851 17.8892 14.6316 17.41 15.523 16.7076L18.5809 19.7654C18.7389 19.918 18.9504 20.0024 19.1699 20.0005C19.3895 19.9986 19.5995 19.9105 19.7547 19.7552C19.91 19.6 19.9981 19.39 20 19.1705C20.0019 18.9509 19.9175 18.7394 19.7649 18.5815L16.707 15.5236C17.5343 14.4741 18.0494 13.213 18.1933 11.8844C18.3373 10.5559 18.1043 9.21363 17.521 8.0113C16.9378 6.80898 16.0278 5.79515 14.8952 5.08584C13.7626 4.37653 12.4532 4.0004 11.1168 4.00049ZM5.67409 11.1177C5.67409 9.67421 6.24752 8.28988 7.26823 7.2692C8.28895 6.24853 9.67333 5.67512 11.1168 5.67512C12.5603 5.67512 13.9447 6.24853 14.9654 7.2692C15.9862 8.28988 16.5596 9.67421 16.5596 11.1177C16.5596 12.5611 15.9862 13.9454 14.9654 14.9661C13.9447 15.9868 12.5603 16.5602 11.1168 16.5602C9.67333 16.5602 8.28895 15.9868 7.26823 14.9661C6.24752 13.9454 5.67409 12.5611 5.67409 11.1177Z" fill="white"/>
</svg>
