<svg width="24" height="24" viewBox="0 0 24 24" fill="none" xmlns="http://www.w3.org/2000/svg">
<path d="M14.2088 16.6426L14.3289 16.0735L14.7367 15.6646C15.0644 15.3362 15.4962 15.1395 15.9527 15.1078C16.4091 15.0762 16.8628 15.2115 17.2308 15.491C17.5991 15.7706 17.8576 16.1767 17.9561 16.6363C18.0546 17.096 17.9859 17.5759 17.7636 17.9875C17.5413 18.3988 17.1814 18.7131 16.7519 18.8756C16.3225 19.0379 15.8502 19.0387 15.4203 18.8778C14.9903 18.7168 14.6294 18.4037 14.4058 17.9931C14.1821 17.5823 14.1118 17.1027 14.2088 16.6426ZM8.79143 12.4054L8.67231 12.9734L8.26359 13.3833C7.99428 13.6534 7.65312 13.8357 7.28367 13.9089C6.91429 13.9821 6.53161 13.9432 6.18345 13.7967C5.83517 13.6502 5.53595 13.4021 5.32471 13.082L4.4965 13.6285L5.32471 13.082C5.11339 12.7618 5 12.3844 5 11.9976C5 11.6108 5.11339 11.2335 5.32471 10.9133L4.50283 10.3709L5.32471 10.9133C5.53595 10.5932 5.83517 10.345 6.18345 10.1985L5.85368 9.41469L6.18345 10.1985C6.53161 10.052 6.91429 10.0131 7.28367 10.0863C7.65312 10.1595 7.99428 10.3418 8.26359 10.6119L8.67253 11.0221L8.79143 11.589C8.84787 11.8581 8.84787 12.1363 8.79143 12.4054ZM14.7367 8.33063L14.3289 7.92176L14.2088 7.3526C14.1118 6.89254 14.1821 6.41293 14.4058 6.0021C14.6294 5.5915 14.9903 5.27844 15.4203 5.11744L15.0697 4.18092L15.4203 5.11744C15.8502 4.95651 16.3225 4.9573 16.7519 5.11967C17.1814 5.28213 17.5413 5.59641 17.7636 6.00777C17.9859 6.41937 18.0546 6.89922 17.9561 7.35894C17.8576 7.81854 17.5991 8.2246 17.2308 8.50429C16.8628 8.78377 16.4091 8.91902 15.9527 8.88739C15.4962 8.85575 15.0644 8.65908 14.7367 8.33063Z" fill="#117399" stroke="#117399" stroke-width="2"/>
</svg>
