<svg width="15" height="16" viewBox="0 0 15 16" fill="none" xmlns="http://www.w3.org/2000/svg">
<path d="M10.2088 12.6426L10.3289 12.0735L10.7367 11.6646C11.0644 11.3362 11.4962 11.1395 11.9527 11.1078C12.4091 11.0762 12.8628 11.2115 13.2308 11.491C13.5991 11.7706 13.8576 12.1767 13.9561 12.6363C14.0546 13.096 13.9859 13.5759 13.7636 13.9875C13.5413 14.3988 13.1814 14.7131 12.7519 14.8756C12.3225 15.0379 11.8502 15.0387 11.4203 14.8778C10.9903 14.7168 10.6294 14.4037 10.4058 13.9931C10.1821 13.5823 10.1118 13.1027 10.2088 12.6426ZM4.79143 8.40539L4.67231 8.97336L4.26359 9.38331C3.99428 9.65342 3.65312 9.83574 3.28367 9.90892C2.91429 9.98209 2.53161 9.94321 2.18345 9.79673C1.83517 9.65021 1.53595 9.40206 1.32471 9.08197L0.496505 9.62854L1.32471 9.08197C1.11339 8.76176 1 8.38444 1 7.99762C1 7.6108 1.11339 7.23347 1.32471 6.91327L0.502828 6.37086L1.32471 6.91327C1.53595 6.59318 1.83517 6.34503 2.18345 6.1985L1.85368 5.41469L2.18345 6.1985C2.53161 6.05202 2.91429 6.01315 3.28367 6.08631C3.65312 6.15949 3.99428 6.34182 4.26359 6.61193L4.67253 7.0221L4.79143 7.589C4.84787 7.85811 4.84787 8.13628 4.79143 8.40539ZM10.7367 4.33063L10.3289 3.92176L10.2088 3.3526C10.1118 2.89254 10.1821 2.41293 10.4058 2.0021C10.6294 1.5915 10.9903 1.27844 11.4203 1.11744L11.0697 0.180916L11.4203 1.11744C11.8502 0.956511 12.3225 0.957299 12.7519 1.11967C13.1814 1.28213 13.5413 1.59641 13.7636 2.00777C13.9859 2.41937 14.0546 2.89922 13.9561 3.35894C13.8576 3.81854 13.5991 4.2246 13.2308 4.50429C12.8628 4.78377 12.4091 4.91902 11.9527 4.88739C11.4962 4.85575 11.0644 4.65908 10.7367 4.33063Z" fill="#117399" stroke="#117399" stroke-width="2"/>
</svg>
