<svg width="24" height="24" viewBox="0 0 24 24" fill="none" xmlns="http://www.w3.org/2000/svg">
<path d="M2 16.0022V19.0024M4 9.00198V7.00191C4 6.47145 4.21071 5.96273 4.58579 5.58764C4.96086 5.21255 5.46957 5.00183 6 5.00183H18C18.5304 5.00183 19.0391 5.21255 19.4142 5.58764C19.7893 5.96273 20 6.47145 20 7.00191V9.00198" stroke="#117399" stroke-width="1.5" stroke-linecap="round" stroke-linejoin="round"/>
<path d="M22 16.0025V19.0026M20 9.0022C19.4696 9.0022 18.9609 9.21292 18.5858 9.58801C18.2107 9.96309 18 10.4718 18 11.0023V13.0023H6V11.0023C6 10.4718 5.78929 9.96309 5.41421 9.58801C5.03914 9.21292 4.53043 9.0022 4 9.0022C3.46957 9.0022 2.96086 9.21292 2.58579 9.58801C2.21071 9.96309 2 10.4718 2 11.0023V17.0025H22V11.0023C22 10.4718 21.7893 9.96309 21.4142 9.58801C21.0391 9.21292 20.5304 9.0022 20 9.0022Z" stroke="#117399" stroke-width="1.5" stroke-linecap="round" stroke-linejoin="round"/>
</svg>
