<svg width="24" height="24" viewBox="0 0 24 24" fill="none" xmlns="http://www.w3.org/2000/svg">
<g clip-path="url(#clip0_32_5775)">
<path d="M21.1646 1.977L20.8935 0.621371C20.8767 0.536843 20.8433 0.456465 20.7954 0.384833C20.7474 0.3132 20.6859 0.251717 20.6142 0.203899C20.5424 0.156081 20.462 0.122866 20.3775 0.106153C20.2929 0.08944 20.2059 0.0895565 20.1214 0.106496C20.0368 0.123344 19.9565 0.156688 19.8848 0.20462C19.8132 0.252552 19.7517 0.314134 19.7039 0.385843C19.6561 0.457552 19.6229 0.537983 19.6062 0.622538C19.5894 0.707092 19.5896 0.794112 19.6065 0.878621L19.8244 1.96875H18.2812V0.749996C18.2812 0.575948 18.2121 0.409028 18.089 0.285957C17.966 0.162886 17.799 0.093746 17.625 0.093746C17.451 0.093746 17.284 0.162886 17.161 0.285957C17.0379 0.409028 16.9688 0.575948 16.9688 0.749996V1.96875H15.4256L15.6435 0.878621C15.6604 0.794112 15.6606 0.707092 15.6438 0.622538C15.6271 0.537983 15.5939 0.457552 15.5461 0.385843C15.4983 0.314134 15.4368 0.252552 15.3652 0.20462C15.2935 0.156688 15.2132 0.123344 15.1286 0.106496C15.0441 0.0895565 14.9571 0.08944 14.8725 0.106153C14.788 0.122866 14.7076 0.156081 14.6358 0.203899C14.5641 0.251717 14.5026 0.3132 14.4546 0.384833C14.4067 0.456465 14.3733 0.536843 14.3565 0.621371L14.0869 1.96875H9.91313L9.6435 0.621371C9.62665 0.536843 9.59331 0.456465 9.54538 0.384833C9.49744 0.3132 9.43586 0.251717 9.36415 0.203899C9.29244 0.156081 9.21201 0.122866 9.12746 0.106153C9.0429 0.08944 8.95588 0.0895565 8.87138 0.106496C8.78685 0.123344 8.70647 0.156688 8.63484 0.20462C8.5632 0.252552 8.50172 0.314134 8.4539 0.385843C8.40609 0.457552 8.37287 0.537983 8.35616 0.622538C8.33944 0.707092 8.33956 0.794112 8.3565 0.878621L8.57438 1.96875H7.03125V0.749996C7.03125 0.575948 6.96211 0.409028 6.83904 0.285957C6.71597 0.162886 6.54905 0.093746 6.375 0.093746C6.20095 0.093746 6.03403 0.162886 5.91096 0.285957C5.78789 0.409028 5.71875 0.575948 5.71875 0.749996V1.96875H4.17563L4.3935 0.878621C4.41044 0.794112 4.41056 0.707092 4.39384 0.622538C4.37713 0.537983 4.34391 0.457552 4.2961 0.385843C4.24828 0.314134 4.1868 0.252552 4.11516 0.20462C4.04353 0.156688 3.96315 0.123344 3.87863 0.106496C3.79412 0.0895565 3.7071 0.08944 3.62254 0.106153C3.53799 0.122866 3.45756 0.156081 3.38585 0.203899C3.31414 0.251717 3.25256 0.3132 3.20462 0.384833C3.15669 0.456465 3.12335 0.536843 3.1065 0.621371L2.83537 1.977C2.29405 2.0188 1.78838 2.26313 1.41923 2.66126C1.05008 3.0594 0.844592 3.58206 0.84375 4.125V19.125C0.844426 19.5819 0.989996 20.0269 1.25953 20.3959C1.52906 20.7649 1.90866 21.0389 2.34375 21.1785V23.25C2.34375 23.424 2.41289 23.591 2.53596 23.714C2.65903 23.8371 2.82595 23.9062 3 23.9062H5.25C5.3926 23.9062 5.53132 23.8598 5.64519 23.7739C5.75905 23.6881 5.84187 23.5675 5.88112 23.4304L6.495 21.2812H17.505L18.1189 23.4304C18.1581 23.5675 18.2409 23.6881 18.3548 23.7739C18.4687 23.8598 18.6074 23.9062 18.75 23.9062H21C21.174 23.9062 21.341 23.8371 21.464 23.714C21.5871 23.591 21.6562 23.424 21.6562 23.25V21.1785C22.0913 21.0389 22.4709 20.7649 22.7405 20.3959C23.01 20.0269 23.1556 19.5819 23.1562 19.125V4.125C23.1554 3.58206 22.9499 3.0594 22.5808 2.66126C22.2116 2.26313 21.7059 2.0188 21.1646 1.977ZM4.755 22.5937H3.65625V21.2812H5.13L4.755 22.5937ZM20.3438 22.5937H19.245L18.87 21.2812H20.3438V22.5937ZM21.8438 19.125C21.8435 19.3487 21.7545 19.5631 21.5963 19.7213C21.4381 19.8795 21.2237 19.9684 21 19.9687H3C2.77631 19.9684 2.56188 19.8795 2.40371 19.7213C2.24554 19.5631 2.15655 19.3487 2.15625 19.125V8.53125H21.8438V19.125ZM21.8438 7.21875H2.15625V4.125C2.15655 3.90131 2.24554 3.68687 2.40371 3.5287C2.56188 3.37053 2.77631 3.28154 3 3.28125H21C21.2237 3.28154 21.4381 3.37053 21.5963 3.5287C21.7545 3.68687 21.8435 3.90131 21.8438 4.125V7.21875Z" fill="#061F28"/>
<path fill-rule="evenodd" clip-rule="evenodd" d="M19.875 18.6562H4.125C3.95095 18.6562 3.78403 18.5871 3.66096 18.464C3.53789 18.341 3.46875 18.174 3.46875 18V10.5C3.46875 10.326 3.53789 10.159 3.66096 10.036C3.78403 9.91289 3.95095 9.84375 4.125 9.84375H19.875C20.049 9.84375 20.216 9.91289 20.339 10.036C20.4621 10.159 20.5312 10.326 20.5312 10.5V18C20.5312 18.174 20.4621 18.341 20.339 18.464C20.216 18.5871 20.049 18.6562 19.875 18.6562ZM14.3438 11.1562H9.65625H8.34375H4.78125V17.3438H19.2188V11.1562H15.6562H14.3438Z" fill="#061F28"/>
<path d="M19.5 5.90625C19.8624 5.90625 20.1562 5.61244 20.1562 5.25C20.1562 4.88756 19.8624 4.59375 19.5 4.59375C19.1376 4.59375 18.8438 4.88756 18.8438 5.25C18.8438 5.61244 19.1376 5.90625 19.5 5.90625Z" fill="#061F28"/>
<path d="M16.875 5.90625C17.2374 5.90625 17.5312 5.61244 17.5312 5.25C17.5312 4.88756 17.2374 4.59375 16.875 4.59375C16.5126 4.59375 16.2188 4.88756 16.2188 5.25C16.2188 5.61244 16.5126 5.90625 16.875 5.90625Z" fill="#061F28"/>
<path d="M4.5 5.90625C4.86244 5.90625 5.15625 5.61244 5.15625 5.25C5.15625 4.88756 4.86244 4.59375 4.5 4.59375C4.13756 4.59375 3.84375 4.88756 3.84375 5.25C3.84375 5.61244 4.13756 5.90625 4.5 5.90625Z" fill="#061F28"/>
<path d="M7.125 5.90625C7.48744 5.90625 7.78125 5.61244 7.78125 5.25C7.78125 4.88756 7.48744 4.59375 7.125 4.59375C6.76256 4.59375 6.46875 4.88756 6.46875 5.25C6.46875 5.61244 6.76256 5.90625 7.125 5.90625Z" fill="#061F28"/>
</g>
<defs>
<clipPath id="clip0_32_5775">
<rect width="24" height="24" fill="white"/>
</clipPath>
</defs>
</svg>
