<svg width="24" height="24" viewBox="0 0 24 24" fill="none" xmlns="http://www.w3.org/2000/svg">
<path fill-rule="evenodd" clip-rule="evenodd" d="M19.7767 4.42908C20.0238 4.32507 20.2943 4.2892 20.5599 4.3252C20.8256 4.3612 21.0768 4.46775 21.2873 4.63377C21.4979 4.79978 21.6601 5.01919 21.757 5.26916C21.854 5.51913 21.8822 5.79052 21.8387 6.05508L19.5707 19.8121C19.3507 21.1391 17.8947 21.9001 16.6777 21.2391C15.6597 20.6861 14.1477 19.8341 12.7877 18.9451C12.1077 18.5001 10.0247 17.0751 10.2807 16.0611C10.5007 15.1941 14.0007 11.9361 16.0007 9.99908C16.7857 9.23808 16.4277 8.79908 15.5007 9.49908C13.1987 11.2371 9.50265 13.8801 8.28065 14.6241C7.20265 15.2801 6.64065 15.3921 5.96865 15.2801C4.74265 15.0761 3.60565 14.7601 2.67765 14.3751C1.42365 13.8551 1.48465 12.1311 2.67665 11.6291L19.7767 4.42908Z" fill="#117399"/>
</svg>
