<svg width="24" height="24" viewBox="0 0 24 24" fill="none" xmlns="http://www.w3.org/2000/svg">
<path d="M21.504 18.3801H19.222C18.359 18.3801 18.099 17.6811 16.552 16.1331C15.2 14.8301 14.629 14.6681 14.287 14.6681C13.814 14.6681 13.685 14.7981 13.685 15.4491V17.5011C13.685 18.0561 13.505 18.3811 12.055 18.3811C10.6483 18.2866 9.28416 17.8592 8.07497 17.1342C6.86578 16.4092 5.84612 15.4074 5.1 14.2111C3.32839 12.0061 2.09571 9.41816 1.5 6.65308C1.5 6.31108 1.63 6.00108 2.282 6.00108H4.562C5.148 6.00108 5.359 6.26208 5.589 6.86508C6.696 10.1231 8.585 12.9571 9.352 12.9571C9.646 12.9571 9.774 12.8271 9.774 12.0941V8.73808C9.677 7.20708 8.864 7.07808 8.864 6.52408C8.87428 6.37792 8.94114 6.24153 9.05037 6.14388C9.15961 6.04622 9.30261 5.995 9.449 6.00108H13.033C13.523 6.00108 13.685 6.24508 13.685 6.83108V11.3611C13.685 11.8501 13.895 12.0121 14.043 12.0121C14.337 12.0121 14.563 11.8501 15.102 11.3121C16.2574 9.90307 17.2013 8.33325 17.904 6.65208C17.9759 6.45024 18.1119 6.27746 18.2912 6.1601C18.4705 6.04274 18.6832 5.98725 18.897 6.00208H21.178C21.862 6.00208 22.007 6.34408 21.862 6.83208C21.0324 8.6905 20.0058 10.4546 18.8 12.0941C18.554 12.4691 18.456 12.6641 18.8 13.1041C19.026 13.4461 19.826 14.1141 20.363 14.7491C21.145 15.5291 21.794 16.4311 22.285 17.4191C22.481 18.0551 22.155 18.3801 21.504 18.3801Z" fill="#117399"/>
</svg>
