<svg width="24" height="24" viewBox="0 0 24 24" fill="none" xmlns="http://www.w3.org/2000/svg">
<g clip-path="url(#clip0_32_5754)">
<path d="M19.3125 10.3125C19.3125 9.27698 20.152 8.4375 21.1875 8.4375H23.0625V4.6875H21.1875C20.152 4.6875 19.3125 5.52698 19.3125 6.5625V17.4375C19.3125 20.5441 16.7941 23.0625 13.6875 23.0625H10.125V19.3125M6.375 23.0625V19.3125M13.6875 19.3125H2.8125C1.77698 19.3125 0.9375 18.473 0.9375 17.4375V2.8125C0.9375 1.77698 1.77698 0.9375 2.8125 0.9375H13.6875C14.723 0.9375 15.5625 1.77698 15.5625 2.8125V17.4375C15.5625 18.473 14.723 19.3125 13.6875 19.3125ZM10.125 13.875C10.125 14.9105 9.28553 15.75 8.25 15.75C7.21447 15.75 6.375 14.9105 6.375 13.875C6.375 12.8395 7.21447 12 8.25 12C9.28553 12 10.125 12.8395 10.125 13.875Z" stroke="#061F28" stroke-width="1.5" stroke-miterlimit="10" stroke-linecap="round" stroke-linejoin="round"/>
</g>
<defs>
<clipPath id="clip0_32_5754">
<rect width="24" height="24" fill="white"/>
</clipPath>
</defs>
</svg>
