<svg width="24" height="24" viewBox="0 0 24 24" fill="none" xmlns="http://www.w3.org/2000/svg">
<path d="M7.69293 5.68673C8.40677 3.96306 10.1047 2.75275 12.0836 2.75275C14.0625 2.75275 15.7605 3.96306 16.4743 5.68673C16.6328 6.06943 17.0715 6.25118 17.4542 6.0927C17.8369 5.93421 18.0187 5.49549 17.8602 5.1128C16.9223 2.84814 14.6902 1.25275 12.0836 1.25275C9.4771 1.25275 7.24495 2.84814 6.30707 5.1128C6.14859 5.49549 6.33034 5.93421 6.71304 6.0927C7.09573 6.25118 7.53444 6.06943 7.69293 5.68673Z" fill="#117399"/>
<path d="M7 15.0027C7 15.555 6.55229 16.0027 6 16.0027C5.44772 16.0027 5 15.555 5 15.0027C5 14.4505 5.44772 14.0027 6 14.0027C6.55229 14.0027 7 14.4505 7 15.0027Z" fill="#117399"/>
<path d="M10 15.0027C10 15.555 9.55229 16.0027 9 16.0027C8.44772 16.0027 8 15.555 8 15.0027C8 14.4505 8.44772 14.0027 9 14.0027C9.55229 14.0027 10 14.4505 10 15.0027Z" fill="#117399"/>
<path d="M13.25 15.0027C13.25 14.5885 13.5858 14.2527 14 14.2527H18C18.4142 14.2527 18.75 14.5885 18.75 15.0027C18.75 15.417 18.4142 15.7527 18 15.7527H14C13.5858 15.7527 13.25 15.417 13.25 15.0027Z" fill="#117399"/>
<path fill-rule="evenodd" clip-rule="evenodd" d="M2.6279 3.35156C2.98754 3.14606 3.44568 3.271 3.65119 3.63064L7.43525 10.2527H16.5648L20.3488 3.63064C20.5543 3.271 21.0125 3.14606 21.3721 3.35156C21.7317 3.55707 21.8567 4.01521 21.6512 4.37485L18.2924 10.2528C19.0849 10.2534 19.7536 10.2599 20.2945 10.3327C20.9223 10.4171 21.4891 10.6027 21.9445 11.0582C22.4 11.5137 22.5857 12.0805 22.6701 12.7083C22.7501 13.3031 22.75 14.0523 22.75 14.9508V15.0547C22.75 15.9532 22.7501 16.7024 22.6701 17.2972C22.5857 17.925 22.4 18.4918 21.9445 18.9473C21.4891 19.4028 20.9223 19.5884 20.2945 19.6728C19.6998 19.7528 18.9506 19.7528 18.0522 19.7527H5.94801C5.04962 19.7528 4.30026 19.7528 3.70552 19.6728C3.07773 19.5884 2.51093 19.4028 2.05546 18.9473C1.59999 18.4918 1.41432 17.925 1.32991 17.2972C1.24995 16.7025 1.24997 15.9532 1.25 15.0548V14.9507C1.24997 14.0523 1.24995 13.303 1.32991 12.7083C1.41432 12.0805 1.59999 11.5137 2.05546 11.0582C2.51093 10.6027 3.07773 10.4171 3.70552 10.3327C4.24646 10.2599 4.91513 10.2534 5.70765 10.2528L2.34882 4.37485C2.14331 4.01521 2.26826 3.55707 2.6279 3.35156ZM16.9854 11.7527C16.9947 11.7529 17.0039 11.7529 17.0132 11.7527H18C18.964 11.7527 19.6116 11.7543 20.0946 11.8193C20.5561 11.8813 20.7536 11.9885 20.8839 12.1189C21.0142 12.2492 21.1214 12.4467 21.1835 12.9081C21.2484 13.3912 21.25 14.0387 21.25 15.0027C21.25 15.9668 21.2484 16.6143 21.1835 17.0974C21.1214 17.5588 21.0142 17.7563 20.8839 17.8866C20.7536 18.0169 20.5561 18.1242 20.0946 18.1862C19.6116 18.2512 18.964 18.2527 18 18.2527H6C5.03599 18.2527 4.38843 18.2512 3.9054 18.1862C3.44393 18.1242 3.24644 18.0169 3.11612 17.8866C2.9858 17.7563 2.87858 17.5588 2.81654 17.0974C2.7516 16.6143 2.75 15.9668 2.75 15.0027C2.75 14.0387 2.7516 13.3912 2.81654 12.9081C2.87858 12.4467 2.9858 12.2492 3.11612 12.1189C3.24644 11.9885 3.44393 11.8813 3.9054 11.8193C4.38843 11.7543 5.03599 11.7527 6 11.7527H6.98684C6.99607 11.7529 7.00531 11.7529 7.01456 11.7527H16.9854Z" fill="#117399"/>
<path d="M12.0844 5.25275C11.062 5.25275 10.1971 5.93519 9.92408 6.87095C9.80805 7.26858 9.39164 7.49686 8.99401 7.38083C8.59638 7.26479 8.3681 6.84839 8.48413 6.45076C8.93886 4.89244 10.3775 3.75275 12.0844 3.75275C13.7912 3.75275 15.2299 4.89244 15.6846 6.45076C15.8006 6.84839 15.5723 7.26479 15.1747 7.38083C14.7771 7.49686 14.3607 7.26858 14.2447 6.87095C13.9716 5.93519 13.1067 5.25275 12.0844 5.25275Z" fill="#117399"/>
<path d="M12.084 8.00275C12.6363 8.00275 13.084 7.55503 13.084 7.00275C13.084 6.45046 12.6363 6.00275 12.084 6.00275C11.5317 6.00275 11.084 6.45046 11.084 7.00275C11.084 7.55503 11.5317 8.00275 12.084 8.00275Z" fill="#117399"/>
</svg>
