<svg width="24" height="24" viewBox="0 0 24 24" fill="none" xmlns="http://www.w3.org/2000/svg">
<path d="M9.6 15.8558L15.828 11.9986L9.6 8.14148V15.8558ZM23.472 5.78863C23.628 6.39291 23.736 7.20291 23.808 8.23148C23.892 9.26005 23.928 10.1472 23.928 10.9186L24 11.9986C24 14.8143 23.808 16.8843 23.472 18.2086C23.172 19.3658 22.476 20.1115 21.396 20.4329C20.832 20.6001 19.8 20.7158 18.216 20.7929C16.656 20.8829 15.228 20.9215 13.908 20.9215L12 20.9986C6.972 20.9986 3.84 20.7929 2.604 20.4329C1.524 20.1115 0.828 19.3658 0.528 18.2086C0.372 17.6043 0.264 16.7943 0.192 15.7658C0.108 14.7372 0.0719999 13.8501 0.0719999 13.0786L0 11.9986C0 9.18291 0.192 7.11291 0.528 5.78863C0.828 4.63148 1.524 3.88577 2.604 3.56434C3.168 3.3972 4.2 3.28148 5.784 3.20434C7.344 3.11434 8.772 3.07577 10.092 3.07577L12 2.99863C17.028 2.99863 20.16 3.20434 21.396 3.56434C22.476 3.88577 23.172 4.63148 23.472 5.78863Z" fill="#117399"/>
</svg>
