<svg width="40" height="40" viewBox="0 0 40 40" fill="none" xmlns="http://www.w3.org/2000/svg">
<rect x="1" y="1" width="38" height="38" rx="9" fill="#117399"/>
<rect x="1" y="1" width="38" height="38" rx="9" stroke="#117399" stroke-width="2"/>
<path fill-rule="evenodd" clip-rule="evenodd" d="M9 20C9 13.9247 13.9247 9 20 9C26.0753 9 31 13.9247 31 20C31 26.0753 26.0753 31 20 31C13.9247 31 9 26.0753 9 20ZM20 11C15.0293 11 11 15.0293 11 20C11 24.9707 15.0293 29 20 29C24.9707 29 29 24.9707 29 20C29 15.0293 24.9707 11 20 11Z" fill="white"/>
<path fill-rule="evenodd" clip-rule="evenodd" d="M20.004 13C20.5563 13 21.004 13.4477 21.004 14V19.5908L24.9506 23.5379C25.3411 23.9285 25.3411 24.5616 24.9506 24.9521C24.56 25.3427 23.9269 25.3426 23.5364 24.9521L19.2969 20.7121C19.1093 20.5245 19.004 20.2702 19.004 20.005V14C19.004 13.4477 19.4517 13 20.004 13Z" fill="white"/>
</svg>
