<svg width="24" height="24" viewBox="0 0 24 24" fill="none" xmlns="http://www.w3.org/2000/svg">
<path d="M17.2861 14.1541C16.9669 13.0186 16.277 12.0172 15.3221 11.3035C14.3673 10.5899 13.2002 10.2034 12 10.2034C10.7998 10.2034 9.63273 10.5899 8.67786 11.3035C7.72299 12.0172 7.03305 13.0186 6.71388 14.1541L5.9533 16.8601C5.81674 17.346 5.79637 17.8562 5.89377 18.3511C5.99117 18.8459 6.20371 19.312 6.51483 19.713C6.82594 20.114 7.22722 20.439 7.68737 20.6628C8.14752 20.8865 8.65411 21.0029 9.16765 21.0029H14.8323C15.3459 21.0029 15.8525 20.8865 16.3126 20.6628C16.7728 20.439 17.174 20.114 17.4852 19.713C17.7963 19.312 18.0088 18.8459 18.1062 18.3511C18.2036 17.8562 18.1832 17.346 18.0467 16.8601L17.2861 14.1541ZM16.4241 18.9198C16.2382 19.1612 15.9976 19.3569 15.7213 19.4913C15.445 19.6257 15.1407 19.695 14.8323 19.6939H9.16765C8.85952 19.6939 8.55556 19.6241 8.27946 19.4898C8.00337 19.3556 7.7626 19.1605 7.57592 18.9199C7.38925 18.6793 7.26172 18.3997 7.20328 18.1028C7.14485 17.8059 7.15707 17.4997 7.23901 17.2082L7.9996 14.5022C8.24114 13.6429 8.76327 12.885 9.48589 12.345C10.2085 11.8049 11.0917 11.5125 12 11.5125C12.9083 11.5125 13.7915 11.8049 14.5141 12.345C15.2367 12.885 15.7588 13.6429 16.0004 14.5022L16.761 17.2082C16.8441 17.4996 16.8569 17.806 16.7984 18.1031C16.74 18.4002 16.6118 18.6799 16.4241 18.9199V18.9198ZM7.41932 11.1161C7.53536 10.4043 7.38148 9.64232 6.98585 8.96997C6.59022 8.29762 5.99469 7.78583 5.30876 7.52856C4.57418 7.25322 3.82494 7.29707 3.19832 7.65198C1.95262 8.35788 1.6248 10.0976 2.4677 11.5302C2.86321 12.2025 3.45878 12.7144 4.14471 12.9716C4.44856 13.0878 4.77154 13.1484 5.09765 13.1504C5.50392 13.1518 5.90332 13.0475 6.25515 12.8481C6.8814 12.4932 7.29487 11.8781 7.41932 11.1161ZM6.10222 10.9092C6.04262 11.2744 5.86006 11.5604 5.58818 11.7145C5.3163 11.8685 4.97269 11.8806 4.62049 11.7487C4.21982 11.5985 3.86545 11.2885 3.62262 10.8757C3.1558 10.0821 3.26675 9.12484 3.8652 8.78564C4.01564 8.70185 4.18602 8.65869 4.35899 8.66055C4.52124 8.66219 4.68182 8.69293 4.83281 8.75124C5.23348 8.90149 5.58785 9.21152 5.83068 9.62432C6.07351 10.0371 6.16991 10.4935 6.10222 10.9092ZM7.56379 8.40422C8.03736 8.77578 8.57816 8.96927 9.12505 8.96923C9.28886 8.96918 9.4522 8.95189 9.61225 8.91765C11.0178 8.61776 11.8701 7.0587 11.512 5.44226C11.3441 4.68359 10.9357 4.01799 10.3622 3.56797C9.748 3.08609 9.02051 2.90368 8.3137 3.05455C6.90816 3.3544 6.05592 4.91345 6.41391 6.5299C6.58192 7.2886 6.99031 7.9542 7.56379 8.40422ZM8.59696 4.33372C8.66177 4.32 8.72789 4.31314 8.79419 4.31326C9.0421 4.31326 9.29711 4.40845 9.52931 4.59065C9.86429 4.85348 10.1056 5.25474 10.2087 5.72055C10.4071 6.61621 10.0042 7.49461 9.32895 7.63869C9.02214 7.70414 8.69103 7.613 8.39668 7.38199C8.0617 7.11912 7.82041 6.71787 7.7173 6.2521C7.51886 5.35619 7.92174 4.47779 8.59696 4.33372ZM20.8017 7.65198C20.1753 7.29707 19.4257 7.25322 18.6912 7.52856C18.0053 7.78575 17.4097 8.29762 17.0142 8.96997C16.6187 9.64232 16.4648 10.4045 16.5807 11.1161C16.705 11.8781 17.1184 12.4932 17.7449 12.8481C18.0967 13.0476 18.4961 13.1519 18.9024 13.1504C19.2285 13.1484 19.5515 13.0878 19.8554 12.9716C20.5413 12.7144 21.1369 12.2025 21.5324 11.5302C22.3752 10.0976 22.0474 8.35788 20.8017 7.65198ZM20.3774 10.8757C20.1345 11.2885 19.7802 11.5985 19.3795 11.7487C19.0275 11.8808 18.6838 11.8686 18.4119 11.7145C18.14 11.5603 17.9576 11.2744 17.8978 10.9092C17.8301 10.4935 17.9264 10.0373 18.1693 9.62469C18.4122 9.2121 18.7665 8.90186 19.1672 8.75161C19.3182 8.69325 19.4787 8.66245 19.641 8.66075C19.814 8.65889 19.9843 8.70206 20.1348 8.78584C20.7332 9.12476 20.8443 10.0819 20.3774 10.8757ZM14.3877 8.91765C14.5478 8.95189 14.7111 8.96918 14.8749 8.96923C15.4218 8.96923 15.9628 8.77578 16.4362 8.40422C17.0097 7.95424 17.4181 7.2886 17.5861 6.52994C17.9441 4.91349 17.0918 3.35444 15.6863 3.05459C14.9795 2.90381 14.252 3.08609 13.6378 3.56802C13.0643 4.01799 12.6559 4.68364 12.4879 5.44226C12.1299 7.0587 12.9821 8.61776 14.3877 8.91765ZM13.7913 5.72035C13.8944 5.25454 14.1357 4.85311 14.4707 4.59045C14.7029 4.40825 14.9579 4.31306 15.2058 4.31306C15.2721 4.31294 15.3382 4.3198 15.403 4.33351C16.0782 4.47759 16.4811 5.35619 16.2828 6.25165C16.1796 6.71746 15.9383 7.11888 15.6034 7.38159C15.3091 7.61255 14.9782 7.70369 14.6711 7.63828C13.9958 7.49441 13.5929 6.61588 13.7913 5.72035Z" fill="#117399"/>
</svg>
