<svg width="24.000000" height="24.000000" viewBox="0 0 24 24" fill="none" xmlns="http://www.w3.org/2000/svg" xmlns:xlink="http://www.w3.org/1999/xlink">
	<desc>
			Created with Pixso.
	</desc>
	<defs>
		<clipPath id="clip8_1943">
			<rect id="appgallery 1" width="24.000000" height="24.000000" transform="translate(0.000000 -0.833374)" fill="white" fill-opacity="0"/>
		</clipPath>
		<linearGradient id="paint_linear_8_1938_0" x1="12.000000" y1="-0.833374" x2="12.000000" y2="23.166626" gradientUnits="userSpaceOnUse">
			<stop stop-color="#FB6361"/>
			<stop offset="1.000000" stop-color="#ED3E45"/>
		</linearGradient>
	</defs>
	<rect id="appgallery 1" width="24.000000" height="24.000000" transform="translate(0.000000 -0.833374)" fill="#FFFFFF" fill-opacity="0"/>
	<g clip-path="url(#clip8_1943)">
		<path id="Fill-1" d="M6.73 -0.84C1.8 -0.84 0 0.96 0 5.89L0 16.43C0 21.36 1.8 23.16 6.73 23.16L17.26 23.16C22.19 23.16 24 21.36 24 16.43L24 5.89C24 0.96 22.19 -0.84 17.26 -0.84L6.73 -0.84Z" fill="url(#paint_linear_8_1938_0)" fill-opacity="1.000000" fill-rule="evenodd"/>
		<path id="path14" d="M10.47 13.08L11.43 13.08L10.94 11.96L10.47 13.08ZM10.23 13.65L9.94 14.3L9.29 14.3L10.67 11.16L11.24 11.16L12.62 14.3L11.95 14.3L11.66 13.65L10.23 13.65ZM20.7 14.3L21.33 14.3L21.33 11.16L20.7 11.16L20.7 14.3ZM18.2 12.95L19.36 12.95L19.36 12.38L18.2 12.38L18.2 11.74L19.88 11.74L19.88 11.16L17.57 11.16L17.57 14.3L19.94 14.3L19.94 13.73L18.2 13.73L18.2 12.95ZM15.7 13.32L14.99 11.16L14.46 11.16L13.75 13.32L13.06 11.16L12.38 11.16L13.47 14.3L14 14.3L14.72 12.24L15.43 14.3L15.96 14.3L17.05 11.16L16.39 11.16L15.7 13.32ZM8.33 12.96C8.33 13.47 8.08 13.74 7.62 13.74C7.15 13.74 6.9 13.46 6.9 12.94L6.9 11.16L6.26 11.16L6.26 12.96C6.26 13.84 6.75 14.35 7.61 14.35C8.47 14.35 8.97 13.83 8.97 12.93L8.97 11.16L8.33 11.16L8.33 12.96ZM4.74 11.16L5.38 11.16L5.38 14.3L4.74 14.3L4.74 13.03L3.3 13.03L3.3 14.3L2.66 14.3L2.66 11.16L3.3 11.16L3.3 12.43L4.74 12.43L4.74 11.16Z" fill="#FFFFFF" fill-opacity="1.000000" fill-rule="evenodd"/>
		<path id="Fill-3" d="M12 7.16C9.79 7.16 8 5.37 8 3.16L8.56 3.16C8.56 5.06 10.1 6.6 12 6.6C13.89 6.6 15.43 5.06 15.43 3.16L16 3.16C16 5.37 14.2 7.16 12 7.16Z" fill="#FFFFFF" fill-opacity="1.000000" fill-rule="evenodd"/>
	</g>
</svg>
