<svg width="137.000000" height="43.000000" viewBox="0 0 137 43" fill="none" xmlns="http://www.w3.org/2000/svg" xmlns:xlink="http://www.w3.org/1999/xlink">
	<desc>
			Created with Pixso.
	</desc>
	<defs>
		<clipPath id="clip8_1943">
			<rect id="appgallery 1" width="24.000000" height="24.000000" transform="translate(12.000000 9.166626)" fill="white" fill-opacity="0"/>
		</clipPath>
		<linearGradient id="paint_linear_8_1938_0" x1="24.000000" y1="9.166626" x2="24.000000" y2="33.166626" gradientUnits="userSpaceOnUse">
			<stop stop-color="#FB6361"/>
			<stop offset="1.000000" stop-color="#ED3E45"/>
		</linearGradient>
	</defs>
	<rect id="appgallery 1" width="24.000000" height="24.000000" transform="translate(12.000000 9.166626)" fill="#FFFFFF" fill-opacity="0"/>
	<g clip-path="url(#clip8_1943)">
		<path id="Fill-1" d="M18.73 9.16C13.8 9.16 12 10.96 12 15.89L12 26.43C12 31.36 13.8 33.16 18.73 33.16L29.26 33.16C34.19 33.16 36 31.36 36 26.43L36 15.89C36 10.96 34.19 9.16 29.26 9.16L18.73 9.16Z" fill="url(#paint_linear_8_1938_0)" fill-opacity="1.000000" fill-rule="evenodd"/>
		<path id="path14" d="M22.47 23.08L23.43 23.08L22.94 21.96L22.47 23.08ZM22.23 23.65L21.94 24.3L21.29 24.3L22.67 21.16L23.24 21.16L24.62 24.3L23.95 24.3L23.66 23.65L22.23 23.65ZM32.7 24.3L33.33 24.3L33.33 21.16L32.7 21.16L32.7 24.3ZM30.2 22.95L31.36 22.95L31.36 22.38L30.2 22.38L30.2 21.74L31.88 21.74L31.88 21.16L29.57 21.16L29.57 24.3L31.94 24.3L31.94 23.73L30.2 23.73L30.2 22.95ZM27.7 23.32L26.99 21.16L26.46 21.16L25.75 23.32L25.06 21.16L24.38 21.16L25.47 24.3L26 24.3L26.72 22.24L27.43 24.3L27.96 24.3L29.05 21.16L28.39 21.16L27.7 23.32ZM20.33 22.96C20.33 23.47 20.08 23.74 19.62 23.74C19.15 23.74 18.9 23.46 18.9 22.94L18.9 21.16L18.26 21.16L18.26 22.96C18.26 23.84 18.75 24.35 19.61 24.35C20.47 24.35 20.97 23.83 20.97 22.93L20.97 21.16L20.33 21.16L20.33 22.96ZM16.74 21.16L17.38 21.16L17.38 24.3L16.74 24.3L16.74 23.03L15.3 23.03L15.3 24.3L14.66 24.3L14.66 21.16L15.3 21.16L15.3 22.43L16.74 22.43L16.74 21.16Z" fill="#FFFFFF" fill-opacity="1.000000" fill-rule="evenodd"/>
		<path id="Fill-3" d="M24 17.16C21.79 17.16 20 15.37 20 13.16L20.56 13.16C20.56 15.06 22.1 16.6 24 16.6C25.89 16.6 27.43 15.06 27.43 13.16L28 13.16C28 15.37 26.2 17.16 24 17.16Z" fill="#FFFFFF" fill-opacity="1.000000" fill-rule="evenodd"/>
	</g>
	<path id="Доступно в" d="M52.48 17.4L52.48 11.52L48.32 11.52Q48.17 12.84 47.9 13.89Q47.64 14.94 47.3 15.8C47.08 16.37 46.85 16.9 46.6 17.4L46.04 17.4L46.04 20.74L47.5 20.74L47.5 18.66L51.97 18.66L51.97 20.74L53.43 20.74L53.43 17.4L52.48 17.4ZM49.24 14.28Q49.43 13.47 49.53 12.78L50.98 12.78L50.98 17.4L48.18 17.4C48.4 16.93 48.59 16.42 48.77 15.89Q49.04 15.08 49.24 14.28ZM58.66 18.02C59.14 17.53 59.37 16.83 59.37 15.92C59.37 15.32 59.26 14.8 59.04 14.39Q58.81 13.97 58.48 13.69Q58.31 13.54 58.11 13.43Q58.09 13.42 58.08 13.42Q57.5 13.1 56.75 13.1Q55.74 13.1 55.09 13.58Q54.93 13.69 54.79 13.83Q54.76 13.87 54.73 13.91Q54.08 14.63 54.08 15.92Q54.08 16.83 54.42 17.47C54.65 17.89 54.96 18.21 55.36 18.43Q55.4 18.46 55.44 18.48Q56.01 18.76 56.72 18.76Q57.67 18.76 58.32 18.31Q58.5 18.19 58.66 18.02ZM60.94 18.09C61.38 18.54 62.01 18.76 62.83 18.76C63.2 18.76 63.52 18.73 63.77 18.67Q63.79 18.66 63.81 18.65Q64.16 18.56 64.49 18.35L64.49 17.08C64.26 17.23 64.02 17.34 63.79 17.43C63.55 17.51 63.27 17.55 62.95 17.55C62.59 17.55 62.3 17.42 62.1 17.16C61.9 16.9 61.8 16.5 61.8 15.95Q61.8 14.85 62.32 14.48Q62.57 14.3 62.95 14.3C63.16 14.3 63.36 14.33 63.56 14.39C63.76 14.45 63.98 14.53 64.21 14.62L64.65 13.47C64.45 13.37 64.21 13.29 63.93 13.21Q63.51 13.1 62.95 13.1C62.43 13.1 61.96 13.2 61.56 13.4C61.16 13.6 60.84 13.91 60.61 14.33C60.39 14.75 60.27 15.29 60.27 15.96Q60.27 17.41 60.94 18.09ZM94.35 18.02C94.83 17.53 95.06 16.83 95.06 15.92C95.06 15.32 94.95 14.8 94.73 14.39Q94.5 13.97 94.17 13.69Q94 13.54 93.8 13.43C93.4 13.21 92.95 13.1 92.44 13.1C91.61 13.1 90.96 13.35 90.48 13.83Q90.45 13.87 90.42 13.91Q89.77 14.63 89.77 15.92C89.77 16.53 89.89 17.04 90.11 17.47C90.34 17.89 90.65 18.21 91.05 18.43C91.45 18.65 91.9 18.76 92.41 18.76C93.22 18.76 93.87 18.52 94.35 18.02ZM68.48 14.32L70.27 14.32L70.27 13.2L65.19 13.2L65.19 14.32L66.98 14.32L66.98 18.66L68.48 18.66L68.48 14.32ZM72.13 13.2L70.5 13.2L72.67 18.62L72.58 18.89C72.49 19.16 72.35 19.39 72.17 19.58C71.99 19.77 71.74 19.86 71.43 19.86C71.31 19.86 71.2 19.86 71.1 19.84C71 19.83 70.91 19.81 70.83 19.8L70.83 20.98C70.93 21 71.04 21.02 71.16 21.04C71.28 21.05 71.43 21.06 71.6 21.06C72.12 21.06 72.57 20.92 72.97 20.64C73.37 20.35 73.67 19.93 73.87 19.36L76.19 13.2L74.58 13.2L73.58 16.27C73.53 16.42 73.49 16.57 73.45 16.73C73.41 16.88 73.39 17.05 73.37 17.22L73.33 17.22C73.32 17.05 73.3 16.88 73.27 16.73C73.25 16.57 73.21 16.42 73.16 16.27L72.13 13.2ZM81.92 18.66L81.92 13.2L76.96 13.2L76.96 18.66L78.46 18.66L78.46 14.32L80.44 14.32L80.44 18.66L81.92 18.66ZM84.98 15.3L84.98 13.2L83.48 13.2L83.48 18.66L84.98 18.66L84.98 16.41L87.06 16.41L87.06 18.66L88.54 18.66L88.54 13.2L87.06 13.2L87.06 15.3L84.98 15.3ZM103.18 15.38C103.36 15.18 103.45 14.93 103.45 14.63C103.45 14.27 103.36 13.99 103.16 13.78C102.96 13.57 102.7 13.43 102.36 13.34C102.02 13.25 101.64 13.2 101.21 13.2L98.61 13.2L98.61 18.66L101.21 18.66Q102.08 18.66 102.6 18.45C102.96 18.31 103.22 18.12 103.38 17.87C103.54 17.63 103.63 17.34 103.63 17.03C103.63 16.7 103.51 16.43 103.28 16.21C103.05 16 102.74 15.87 102.36 15.82L102.36 15.78C102.72 15.72 103 15.59 103.18 15.38ZM101.15 14.25C101.68 14.25 101.94 14.42 101.94 14.75C101.94 14.96 101.86 15.11 101.7 15.2C101.54 15.29 101.3 15.33 100.98 15.33L100.1 15.33L100.1 14.25L101.15 14.25ZM55.87 17.15Q55.61 16.73 55.61 15.92Q55.61 15.11 55.87 14.71Q55.95 14.59 56.05 14.51Q56.31 14.3 56.73 14.3Q57.16 14.3 57.42 14.51Q57.52 14.59 57.59 14.71C57.77 14.98 57.86 15.38 57.86 15.92Q57.86 16.73 57.59 17.15C57.41 17.42 57.13 17.56 56.74 17.56Q56.31 17.56 56.05 17.35Q55.95 17.27 55.87 17.15ZM91.56 17.15Q91.3 16.73 91.3 15.92Q91.3 15.11 91.56 14.71Q91.64 14.59 91.74 14.51Q92 14.3 92.42 14.3Q92.85 14.3 93.11 14.51Q93.21 14.59 93.28 14.71C93.46 14.98 93.55 15.38 93.55 15.92C93.55 16.46 93.46 16.87 93.28 17.15C93.1 17.42 92.82 17.56 92.43 17.56C92.03 17.56 91.74 17.42 91.56 17.15ZM101.83 16.49C102 16.58 102.08 16.74 102.08 16.95C102.08 17.2 101.99 17.37 101.81 17.48Q101.54 17.63 101.11 17.63L100.1 17.63L100.1 16.34L101.08 16.34C101.42 16.34 101.67 16.39 101.83 16.49Z" fill="#061E28" fill-opacity="1.000000" fill-rule="evenodd"/>
	<path id="AppGallery" d="M84 22.77L81.81 22.77C81.54 21.82 80.79 21.24 79.68 21.24C78.12 21.24 77.06 22.44 77.06 24.56C77.06 26.69 78.08 27.9 79.7 27.9C81.13 27.9 81.99 27.09 82.02 25.83L79.83 25.83L79.83 24.21L84.09 24.21L84.09 25.5C84.09 28.17 82.26 29.8 79.69 29.8C76.82 29.8 74.88 27.8 74.88 24.58C74.88 21.28 76.95 19.34 79.64 19.34C81.94 19.34 83.72 20.76 84 22.77ZM49.39 27.34L48.63 29.66L46.33 29.66L49.84 19.48L52.62 19.48L56.13 29.66L53.82 29.66L53.06 27.34L49.39 27.34ZM93.79 19.48L95.91 19.48L95.91 29.66L93.79 29.66L93.79 19.48ZM97.6 19.48L99.72 19.48L99.72 29.66L97.6 29.66L97.6 19.48ZM51.19 21.81L49.94 25.66L52.52 25.66L51.27 21.81L51.19 21.81ZM111.89 29.66L109.78 29.66L109.78 22.03L111.83 22.03L111.83 23.36L111.91 23.36C112.19 22.41 112.89 21.92 113.74 21.92C113.96 21.92 114.22 21.95 114.41 21.99L114.41 23.87C114.21 23.81 113.81 23.76 113.51 23.76C112.58 23.76 111.89 24.4 111.89 25.34L111.89 29.66ZM59.43 32.53L57.31 32.53L57.31 22.03L59.4 22.03L59.4 23.31L59.49 23.31C59.78 22.69 60.39 21.93 61.66 21.93C63.34 21.93 64.76 23.23 64.76 25.85C64.76 28.41 63.4 29.78 61.66 29.78C60.43 29.78 59.79 29.07 59.49 28.44L59.43 28.44L59.43 32.53ZM68.28 32.53L66.16 32.53L66.16 22.03L68.25 22.03L68.25 23.31L68.35 23.31C68.63 22.69 69.24 21.93 70.52 21.93C72.2 21.93 73.61 23.23 73.61 25.85C73.61 28.41 72.25 29.78 70.51 29.78C69.28 29.78 68.64 29.07 68.35 28.44L68.28 28.44L68.28 32.53ZM90.08 28.6C89.7 29.31 88.98 29.81 87.84 29.81C86.39 29.81 85.31 29.04 85.31 27.53C85.31 25.82 86.67 25.32 88.18 25.18C89.51 25.05 90.03 24.98 90.03 24.49L90.03 24.46C90.03 23.83 89.62 23.47 88.89 23.47C88.14 23.47 87.68 23.84 87.54 24.35L85.58 24.19C85.87 22.8 87.08 21.93 88.9 21.93C90.61 21.93 92.15 22.69 92.15 24.51L92.15 29.66L90.14 29.66L90.14 28.6L90.08 28.6ZM108.35 27.47C108.05 28.89 106.78 29.81 104.89 29.81C102.54 29.81 101.1 28.3 101.1 25.88C101.1 23.52 102.56 21.93 104.81 21.93C106.82 21.93 108.39 23.21 108.39 25.8L108.39 26.38L103.19 26.38L103.19 26.39C103.19 27.53 103.87 28.23 104.93 28.23C105.63 28.23 106.18 27.93 106.39 27.34L108.35 27.47ZM119.89 30.49C119.45 31.72 118.62 32.53 117.05 32.53C116.51 32.53 116.02 32.44 115.71 32.31L116.19 30.72C116.94 30.95 117.47 30.92 117.75 30.21L117.87 29.88L115.13 22.03L117.36 22.03L118.94 27.63L119.02 27.63L120.61 22.03L122.86 22.03L119.89 30.49ZM104.84 23.51C103.9 23.51 103.24 24.2 103.19 25.07L106.4 25.07C106.39 24.16 105.76 23.51 104.84 23.51ZM60.99 23.61C59.96 23.61 59.38 24.48 59.38 25.84C59.38 27.2 59.97 28.1 60.99 28.1C62.03 28.1 62.59 27.18 62.59 25.84C62.59 24.52 62.04 23.61 60.99 23.61ZM69.85 23.61C68.82 23.61 68.24 24.48 68.24 25.84C68.24 27.2 68.82 28.1 69.85 28.1C70.88 28.1 71.45 27.18 71.45 25.84C71.45 24.52 70.89 23.61 69.85 23.61ZM87.34 27.46C87.34 28.04 87.8 28.35 88.45 28.35C89.38 28.35 90.04 27.73 90.04 26.93L90.04 26.12C89.79 26.29 89.03 26.4 88.57 26.47C87.83 26.57 87.34 26.86 87.34 27.46Z" fill="#061E28" fill-opacity="1.000000" fill-rule="evenodd"/>
	<rect id="AppGallery_btn" rx="9.500000" width="136.000000" height="42.000000" transform="translate(0.500000 0.166626)" stroke="#C0C1C7" stroke-opacity="1.000000" stroke-width="1.000000"/>
</svg>
