<svg width="24" height="25" viewBox="0 0 24 25" fill="none" xmlns="http://www.w3.org/2000/svg">
<g id="appgallery 1" clip-path="url(#clip0_21_6526)">
<g id="ic_ag">
<g id="&#231;&#188;&#150;&#231;&#187;&#132;">
<path id="Fill-1" fill-rule="evenodd" clip-rule="evenodd" d="M6.734 0.5C1.80341 0.5 0 2.30309 0 7.23269V17.7673C0 22.6969 1.80341 24.5 6.734 24.5H17.2628C22.1932 24.5 24 22.6969 24 17.7673V7.23269C24 2.30309 22.1966 0.5 17.266 0.5H6.734Z" fill="url(#paint0_linear_21_6526)"/>
<path id="path14" fill-rule="evenodd" clip-rule="evenodd" d="M10.468 14.4195H11.4316L10.9482 13.2953L10.468 14.4195ZM10.2308 14.986L9.94492 15.6401H9.29409L10.6781 12.5002H11.2406L12.619 15.6401H11.9508L11.6686 14.986H10.2308ZM20.7036 15.6378H21.3327V12.5H20.7036V15.6378ZM18.2001 14.2899H19.3596V13.7177H18.2001V13.0746H19.8833V12.5023H17.5712V15.6399H19.9438V15.0676H18.2001V14.2899ZM15.7007 14.6606L14.9876 12.5H14.4672L13.754 14.6606L13.06 12.5017H12.3814L13.4766 15.6419H14.0042L14.7185 13.5792L15.4328 15.6419H15.965L17.0574 12.5017H16.3963L15.7007 14.6606ZM8.33386 14.2986C8.33386 14.8093 8.0802 15.0823 7.61957 15.0823C7.15642 15.0823 6.90142 14.8014 6.90142 14.2768V12.5021H6.2639V14.2986C6.2639 15.1822 6.75501 15.6889 7.61089 15.6889C8.47525 15.6889 8.9708 15.1726 8.9708 14.2723V12.5002H8.33386V14.2986ZM4.74292 12.5002H5.38005V15.6421H4.74292V14.3661H3.30353V15.6421H2.66602V12.5002H3.30353V13.7675H4.74292V12.5002Z" fill="white"/>
<path id="Fill-3" fill-rule="evenodd" clip-rule="evenodd" d="M12 8.5C9.79417 8.5 8 6.70563 8 4.5H8.56501C8.56501 6.3939 10.1061 7.9348 12 7.9348C13.8939 7.9348 15.435 6.3939 15.435 4.5H16C16 6.70563 14.2056 8.5 12 8.5Z" fill="white"/>
</g>
</g>
</g>
<defs>
<linearGradient id="paint0_linear_21_6526" x1="12" y1="0.5" x2="12" y2="24.5" gradientUnits="userSpaceOnUse">
<stop stop-color="#FB6361"/>
<stop offset="1" stop-color="#ED3E45"/>
</linearGradient>
<clipPath id="clip0_21_6526">
<rect width="24" height="24" fill="white" transform="translate(0 0.5)"/>
</clipPath>
</defs>
</svg>
