<svg width="24" height="24" viewBox="0 0 24 24" fill="none" xmlns="http://www.w3.org/2000/svg">
<path fill-rule="evenodd" clip-rule="evenodd" d="M10.9436 3.25098H13.0564C14.8942 3.25096 16.3498 3.25095 17.489 3.40412C18.6614 3.56175 19.6104 3.89388 20.3588 4.64227C21.1071 5.39066 21.4392 6.33965 21.5969 7.51212C21.7482 8.63793 21.75 10.0727 21.75 11.88C22.0939 12.1637 22.3669 12.5295 22.5407 12.949C22.661 13.2394 22.7076 13.5389 22.7292 13.856C22.75 14.1606 22.75 14.5317 22.75 14.9762V15.0267C22.75 15.4712 22.75 15.8422 22.7292 16.1468C22.7076 16.4639 22.661 16.7635 22.5407 17.0539C22.2616 17.7277 21.7262 18.2631 21.0524 18.5422C20.762 18.6625 20.4625 18.7092 20.1454 18.7308C20.0242 18.7391 19.8926 18.744 19.75 18.747V20.0016C19.75 20.4158 19.4142 20.7516 19 20.7516C18.5858 20.7516 18.25 20.4158 18.25 20.0016V18.7516H5.75V20.0016C5.75 20.4158 5.41421 20.7516 5 20.7516C4.58579 20.7516 4.25 20.4158 4.25 20.0016V18.747C4.10741 18.744 3.97577 18.7391 3.85464 18.7308C3.53754 18.7092 3.23801 18.6625 2.94762 18.5422C2.27379 18.2631 1.73844 17.7277 1.45933 17.0539C1.33905 16.7635 1.29241 16.4639 1.27077 16.1468C1.24999 15.8422 1.24999 15.4712 1.25 15.0267V14.9762C1.24999 14.5317 1.24999 14.1606 1.27077 13.856C1.29241 13.5389 1.33905 13.2394 1.45933 12.949C1.63307 12.5295 1.90609 12.1637 2.25 11.88C2.25001 10.0727 2.25178 8.63793 2.40314 7.51212C2.56076 6.33965 2.89288 5.39066 3.64124 4.64227C4.38961 3.89388 5.33856 3.56175 6.51098 3.40412C7.65019 3.25095 9.10582 3.25096 10.9436 3.25098ZM3.75039 11.2802C3.78493 11.2771 3.81968 11.2744 3.85464 11.272C4.1064 11.2549 4.40354 11.2519 4.75 11.2514L4.75 10.4492C4.74997 9.55073 4.74995 8.80149 4.82991 8.20669C4.91432 7.57887 5.09999 7.01205 5.55546 6.55656C6.01093 6.10107 6.57773 5.91539 7.20552 5.83099C7.8003 5.75102 8.54952 5.75104 9.448 5.75107H14.552C15.4505 5.75104 16.1997 5.75102 16.7945 5.83099C17.4223 5.91539 17.9891 6.10107 18.4445 6.55656C18.9 7.01205 19.0857 7.57887 19.1701 8.20669C19.2501 8.80149 19.25 9.55074 19.25 10.4493V11.2514C19.5965 11.2519 19.8936 11.2549 20.1454 11.272C20.1803 11.2744 20.2151 11.2771 20.2496 11.2802C20.2472 9.74527 20.2303 8.60514 20.1102 7.71199C19.975 6.70587 19.7213 6.1262 19.2981 5.70297C18.8749 5.27975 18.2952 5.02607 17.2892 4.8908C16.2615 4.75263 14.9068 4.75103 13 4.75103H11C9.09318 4.75103 7.73851 4.75263 6.71085 4.8908C5.70476 5.02607 5.12511 5.27975 4.7019 5.70297C4.27869 6.1262 4.02502 6.70587 3.88976 7.71199C3.76968 8.60514 3.75276 9.74527 3.75039 11.2802ZM17.75 11.2513V10.5013C17.75 9.5372 17.7484 8.88962 17.6835 8.40656C17.6214 7.94509 17.5142 7.74758 17.3839 7.61726C17.2536 7.48694 17.0561 7.37971 16.5946 7.31767C16.1116 7.25272 15.464 7.25113 14.5 7.25113H12.75V11.2513H17.75ZM11.25 11.2513V7.25113H9.5C8.53599 7.25113 7.88843 7.25272 7.40539 7.31767C6.94393 7.37971 6.74643 7.48694 6.61612 7.61726C6.4858 7.74758 6.37858 7.94508 6.31654 8.40656C6.25159 8.88962 6.25 9.5372 6.25 10.5013V11.2513H11.25ZM3.95674 12.7686C3.71602 12.7851 3.5988 12.8145 3.52165 12.8465C3.21536 12.9734 2.97202 13.2167 2.84515 13.523C2.81319 13.6002 2.78372 13.7174 2.76729 13.9581C2.75041 14.2056 2.75 14.5252 2.75 15.0014C2.75 15.4776 2.75041 15.7972 2.76729 16.0447C2.78372 16.2855 2.81319 16.4027 2.84515 16.4798C2.97202 16.7861 3.21536 17.0295 3.52165 17.1564C3.5988 17.1883 3.71602 17.2178 3.95674 17.2342C4.20421 17.2511 4.5238 17.2515 5 17.2515H19C19.4762 17.2515 19.7958 17.2511 20.0433 17.2342C20.284 17.2178 20.4012 17.1883 20.4784 17.1564C20.7846 17.0295 21.028 16.7861 21.1549 16.4798C21.1868 16.4027 21.2163 16.2855 21.2327 16.0447C21.2496 15.7972 21.25 15.4776 21.25 15.0014C21.25 14.5252 21.2496 14.2056 21.2327 13.9581C21.2163 13.7174 21.1868 13.6002 21.1549 13.523C21.028 13.2167 20.7846 12.9734 20.4784 12.8465C20.4012 12.8145 20.284 12.7851 20.0433 12.7686C19.7958 12.7517 19.4762 12.7513 19 12.7513H5C4.5238 12.7513 4.20421 12.7517 3.95674 12.7686Z" fill="#117399"/>
</svg>
