<svg width="128" height="128" viewBox="0 0 128 128" fill="none" xmlns="http://www.w3.org/2000/svg">
<g clip-path="url(#clip0_21_6505)">
<path d="M16 16H32V32H16V16Z" fill="white"/>
<path d="M48 0V48H0V0H48ZM40 8H8V40H40V8ZM32 96H16V112H32V96Z" fill="white"/>
<path d="M48 80V128H0V80H48ZM8 88V120H40V88H8ZM96 16H112V32H96V16Z" fill="white"/>
<path d="M80 0V48H128V0H80ZM120 8V40H88V8H120ZM64 8V0H72V16H64V32H56V8H64ZM64 48V32H72V48H64ZM48 64V56H56V48H64V64H72V56H112V64H80V72H56V64H48ZM48 64V72H16V64H8V72H0V56H24V64H48ZM128 72H120V56H128V72ZM120 72H112V88H128V80H120V72ZM88 72H104V80H96V88H88V72ZM104 96V88H96V96H88V104H72V112H96V96H104ZM104 96H128V104H112V112H104V96ZM72 88V96H80V80H56V88H72Z" fill="white"/>
<path d="M56 96H64V120H96V128H56V96ZM128 112V128H104V120H120V112H128Z" fill="white"/>
</g>
<defs>
<clipPath id="clip0_21_6505">
<rect width="128" height="128" fill="white"/>
</clipPath>
</defs>
</svg>
