<svg width="48.000000" height="48.000000" viewBox="0 0 48 48" fill="none" xmlns="http://www.w3.org/2000/svg" xmlns:xlink="http://www.w3.org/1999/xlink">
	<desc>
			Created with Pixso.
	</desc>
	<defs>
		<clipPath id="clip8_1903">
			<rect id="btn" rx="9.000000" width="46.000000" height="46.000908" transform="translate(1.000000 0.999023)" fill="white" fill-opacity="0"/>
		</clipPath>
	</defs>
	<g clip-path="url(#clip8_1903)">
		<path id="Vector" d="M33.5 30.38L31.22 30.38C30.35 30.38 30.09 29.68 28.55 28.13C27.19 26.83 26.62 26.66 26.28 26.66C25.81 26.66 25.68 26.79 25.68 27.44L25.68 29.5C25.68 30.05 25.5 30.38 24.05 30.38C22.64 30.28 21.28 29.85 20.07 29.13C18.86 28.4 17.84 27.4 17.09 26.21C15.32 24 14.09 21.41 13.5 18.65C13.5 18.31 13.63 18 14.28 18L16.56 18C17.14 18 17.35 18.26 17.58 18.86C18.69 22.12 20.58 24.95 21.35 24.95C21.64 24.95 21.77 24.82 21.77 24.09L21.77 20.73C21.67 19.2 20.86 19.07 20.86 18.52C20.87 18.37 20.94 18.24 21.05 18.14C21.16 18.04 21.3 17.99 21.44 18L25.03 18C25.52 18 25.68 18.24 25.68 18.83L25.68 23.36C25.68 23.85 25.89 24.01 26.04 24.01C26.33 24.01 26.56 23.85 27.1 23.31C28.25 21.9 29.2 20.33 29.9 18.65C29.97 18.45 30.11 18.27 30.29 18.16C30.47 18.04 30.68 17.98 30.89 18L33.17 18C33.86 18 34 18.34 33.86 18.83C33.03 20.69 32 22.45 30.8 24.09C30.55 24.46 30.45 24.66 30.8 25.1C31.02 25.44 31.82 26.11 32.36 26.74C33.14 27.52 33.79 28.43 34.28 29.41C34.48 30.05 34.15 30.38 33.5 30.38Z" fill="#117299" fill-opacity="1.000000" fill-rule="nonzero"/>
	</g>
	<rect id="btn" rx="9.000000" width="46.000000" height="46.000908" transform="translate(1.000000 0.999023)" stroke="#117299" stroke-opacity="1.000000" stroke-width="2.000000"/>
</svg>
