<svg width="24" height="24" viewBox="0 0 24 24" fill="none" xmlns="http://www.w3.org/2000/svg">
<path d="M16.4997 4.75293C14.5208 4.75293 12.8228 5.96324 12.1089 7.68692C11.9505 8.06961 11.5117 8.25137 11.1291 8.09288C10.7464 7.93439 10.5646 7.49568 10.7231 7.11298C11.661 4.84833 13.8931 3.25293 16.4997 3.25293C19.1062 3.25293 21.3383 4.84833 22.2762 7.11298C22.4347 7.49568 22.2529 7.93439 21.8703 8.09288C21.4876 8.25137 21.0488 8.06961 20.8904 7.68692C20.1765 5.96324 18.4785 4.75293 16.4997 4.75293Z" fill="#117399"/>
<path d="M16.5004 7.25293C15.478 7.25293 14.6132 7.93537 14.3401 8.87113C14.2241 9.26876 13.8077 9.49704 13.41 9.38101C13.0124 9.26498 12.7841 8.84857 12.9001 8.45094C13.3549 6.89262 14.7936 5.75293 16.5004 5.75293C18.2072 5.75293 19.6459 6.89262 20.1006 8.45094C20.2166 8.84857 19.9884 9.26498 19.5907 9.38101C19.1931 9.49704 18.7767 9.26876 18.6607 8.87113C18.3876 7.93537 17.5227 7.25293 16.5004 7.25293Z" fill="#117399"/>
<path d="M6 17.0029C6.55229 17.0029 7 16.5552 7 16.0029C7 15.4506 6.55229 15.0029 6 15.0029C5.44772 15.0029 5 15.4506 5 16.0029C5 16.5552 5.44772 17.0029 6 17.0029Z" fill="#117399"/>
<path d="M9 17.0029C9.55229 17.0029 10 16.5552 10 16.0029C10 15.4506 9.55229 15.0029 9 15.0029C8.44772 15.0029 8 15.4506 8 16.0029C8 16.5552 8.44772 17.0029 9 17.0029Z" fill="#117399"/>
<path fill-rule="evenodd" clip-rule="evenodd" d="M5.948 11.2529L15.75 11.2529V9.00293C15.75 8.58872 16.0858 8.25293 16.5 8.25293C16.9142 8.25293 17.25 8.58872 17.25 9.00293V11.2529L18.052 11.2529C18.9505 11.2529 19.6997 11.2529 20.2945 11.3328C20.9223 11.4172 21.4891 11.6029 21.9445 12.0584C22.4 12.5139 22.5857 13.0807 22.6701 13.7085C22.7501 14.3032 22.75 15.0525 22.75 15.9509V16.0549C22.75 16.9534 22.7501 17.7026 22.6701 18.2974C22.5857 18.9252 22.4 19.492 21.9445 19.9475C21.4891 20.4029 20.9223 20.5886 20.2945 20.673C19.6997 20.753 18.9505 20.753 18.0521 20.7529H5.94801C5.04955 20.753 4.30029 20.753 3.70552 20.673C3.07773 20.5886 2.51093 20.4029 2.05546 19.9475C1.59999 19.492 1.41432 18.9252 1.32991 18.2974C1.24995 17.7026 1.24997 16.9534 1.25 16.055V15.9509C1.24997 15.0525 1.24995 14.3032 1.32991 13.7085C1.41432 13.0807 1.59999 12.5139 2.05546 12.0584C2.51093 11.6029 3.07773 11.4172 3.70552 11.3328C4.3003 11.2529 5.04952 11.2529 5.948 11.2529ZM18 12.7529C18.964 12.7529 19.6116 12.7545 20.0946 12.8195C20.5561 12.8815 20.7536 12.9887 20.8839 13.119C21.0142 13.2494 21.1214 13.4469 21.1835 13.9083C21.2484 14.3914 21.25 15.0389 21.25 16.0029C21.25 16.9669 21.2484 17.6145 21.1835 18.0975C21.1214 18.559 21.0142 18.7565 20.8839 18.8868C20.7536 19.0171 20.5561 19.1244 20.0946 19.1864C19.6116 19.2513 18.964 19.2529 18 19.2529H6C5.03599 19.2529 4.38843 19.2513 3.9054 19.1864C3.44393 19.1244 3.24644 19.0171 3.11612 18.8868C2.9858 18.7565 2.87858 18.559 2.81654 18.0975C2.7516 17.6145 2.75 16.9669 2.75 16.0029C2.75 15.0389 2.7516 14.3914 2.81654 13.9083C2.87858 13.4469 2.9858 13.2494 3.11612 13.119C3.24644 12.9887 3.44393 12.8815 3.9054 12.8195C4.38843 12.7545 5.03599 12.7529 6 12.7529H18Z" fill="#117399"/>
</svg>
