<svg width="24" height="24" viewBox="0 0 24 24" fill="none" xmlns="http://www.w3.org/2000/svg">
<path d="M8.5 22.0029C8.06667 22.0029 7.70833 21.8613 7.425 21.5779C7.14167 21.2946 7 20.9363 7 20.5029C7 20.0696 7.14167 19.7113 7.425 19.4279C7.70833 19.1446 8.06667 19.0029 8.5 19.0029C8.93333 19.0029 9.29167 19.1446 9.575 19.4279C9.85833 19.7113 10 20.0696 10 20.5029C10 20.9363 9.85833 21.2946 9.575 21.5779C9.29167 21.8613 8.93333 22.0029 8.5 22.0029ZM19.5 22.0029C19.0667 22.0029 18.7083 21.8613 18.425 21.5779C18.1417 21.2946 18 20.9363 18 20.5029C18 20.0696 18.1417 19.7113 18.425 19.4279C18.7083 19.1446 19.0667 19.0029 19.5 19.0029C19.9333 19.0029 20.2917 19.1446 20.575 19.4279C20.8583 19.7113 21 20.0696 21 20.5029C21 20.9363 20.8583 21.2946 20.575 21.5779C20.2917 21.8613 19.9333 22.0029 19.5 22.0029ZM12 18.0029C10.6167 18.0029 9.43767 17.5153 8.463 16.5399C7.48833 15.5646 7.00067 14.3856 7 13.0029V5.30293L6.5 4.70293C6.26667 4.4196 6.071 4.23226 5.913 4.14093C5.755 4.0496 5.584 4.0036 5.4 4.00293C5 4.00293 4.66667 4.15293 4.4 4.45293C4.36625 4.49089 4.33464 4.52966 4.30517 4.56923C3.97522 5.01212 3.55228 5.50293 3 5.50293C2.44772 5.50293 1.98221 5.04646 2.13149 4.51473C2.28412 3.97108 2.56962 3.47948 2.988 3.03993C3.64667 2.34793 4.45067 2.00226 5.4 2.00293C5.9 2.00293 6.35833 2.1196 6.775 2.35293C7.19167 2.58626 7.61667 2.95293 8.05 3.45293L18.75 16.3529C19.0333 16.6863 19.0877 17.0446 18.913 17.4279C18.7383 17.8113 18.434 18.0029 18 18.0029H12ZM12 16.0029H15.85L9 7.70293V13.0029C9 13.8363 9.29167 14.5446 9.875 15.1279C10.4583 15.7113 11.1667 16.0029 12 16.0029Z" fill="#117399"/>
</svg>
