<svg width="24" height="24" viewBox="0 0 24 24" fill="none" xmlns="http://www.w3.org/2000/svg">
<path fill-rule="evenodd" clip-rule="evenodd" d="M1 11.9922C1 5.9169 5.92472 0.992188 12 0.992188C18.0753 0.992188 23 5.9169 23 11.9922C23 18.0675 18.0753 22.9922 12 22.9922C5.92472 22.9922 1 18.0675 1 11.9922ZM12 2.99219C7.02928 2.99219 3 7.02147 3 11.9922C3 16.9629 7.02928 20.9922 12 20.9922C16.9707 20.9922 21 16.9629 21 11.9922C21 7.02147 16.9707 2.99219 12 2.99219Z" fill="#117399"/>
<path fill-rule="evenodd" clip-rule="evenodd" d="M12.004 4.99219C12.5563 4.99219 13.004 5.4399 13.004 5.99219V11.583L16.9506 15.5301C17.3411 15.9207 17.3411 16.5538 16.9506 16.9443C16.56 17.3348 15.9269 17.3348 15.5364 16.9443L11.2969 12.7043C11.1093 12.5167 11.004 12.2624 11.004 11.9972V5.99219C11.004 5.4399 11.4517 4.99219 12.004 4.99219Z" fill="#117399"/>
</svg>
