<svg width="24" height="24" viewBox="0 0 24 24" fill="none" xmlns="http://www.w3.org/2000/svg">
<path d="M2 7.57436C2 5.16024 2 3.95318 2.65451 3.13246C2.79456 2.95683 2.9539 2.79749 3.12953 2.65744C3.95025 2.00293 5.15731 2.00293 7.57143 2.00293H16.4286C18.8427 2.00293 20.0497 2.00293 20.8705 2.65744C21.0461 2.79749 21.2054 2.95683 21.3455 3.13246C22 3.95318 22 5.16024 22 7.57436C22 10.7932 22 12.4026 21.1273 13.4969C20.9406 13.7311 20.7281 13.9435 20.494 14.1303C19.3997 15.0029 17.7903 15.0029 14.5714 15.0029H9.42857C6.20975 15.0029 4.60034 15.0029 3.50604 14.1303C3.27187 13.9435 3.05942 13.7311 2.87267 13.4969C2 12.4026 2 10.7932 2 7.57436Z" stroke="#117399" stroke-width="1.5"/>
<path d="M6.99934 17.5029L6.69272 17.9629C6.30371 18.5464 6.43831 19.3322 6.99934 19.7529C7.56038 20.1737 7.69498 20.9595 7.30597 21.543L6.99934 22.0029M11.9993 17.5029L11.6927 17.9629C11.3037 18.5464 11.4383 19.3322 11.9993 19.7529C12.5604 20.1737 12.695 20.9595 12.306 21.543L11.9993 22.0029M16.9993 17.5029L16.6927 17.9629C16.3037 18.5464 16.4383 19.3322 16.9993 19.7529C17.5604 20.1737 17.695 20.9595 17.306 21.543L16.9993 22.0029" stroke="#117399" stroke-width="1.5" stroke-linecap="round"/>
<path d="M18.0008 14.5029C18.0008 14.0383 18.0008 13.8059 17.9624 13.6127C17.8045 12.8194 17.1843 12.1992 16.391 12.0414C16.1978 12.0029 15.9654 12.0029 15.5008 12.0029H9.00078C8.0689 12.0029 7.60296 12.0029 7.23542 12.1552C6.74536 12.3582 6.35601 12.7475 6.15302 13.2376C6.03082 13.5326 6.00671 13.891 6.00195 14.5029" stroke="#117399" stroke-width="1.5" stroke-linecap="round"/>
<path d="M6 8.50293H18" stroke="#117399" stroke-width="1.5" stroke-linecap="round"/>
<path d="M6 6.00293H18" stroke="#117399" stroke-width="1.5" stroke-linecap="round"/>
</svg>
