<svg width="40" height="40" viewBox="0 0 40 40" fill="none" xmlns="http://www.w3.org/2000/svg">
<rect x="1" y="1" width="38" height="38" rx="9" fill="#117399"/>
<rect x="1" y="1" width="38" height="38" rx="9" stroke="#117399" stroke-width="2"/>
<path d="M27.5297 14.412C27.8187 14.6852 27.9874 15.062 27.9986 15.4595C28.0099 15.8571 27.8628 16.2428 27.5897 16.532L19.0897 25.532C18.9519 25.6776 18.7864 25.7941 18.6028 25.8746C18.4193 25.9552 18.2215 25.9981 18.021 26.0009C17.8206 26.0037 17.6216 25.9663 17.4359 25.8909C17.2502 25.8155 17.0815 25.7037 16.9397 25.562L12.4397 21.062C12.1747 20.7776 12.0305 20.4015 12.0373 20.0129C12.0442 19.6243 12.2016 19.2536 12.4764 18.9787C12.7513 18.7039 13.122 18.5465 13.5106 18.5396C13.8993 18.5328 14.2753 18.677 14.5597 18.942L17.9697 22.35L25.4097 14.472C25.6829 14.183 26.0597 14.0143 26.4573 14.003C26.8548 13.9918 27.2406 14.1389 27.5297 14.412Z" fill="white"/>
</svg>
