<svg width="16" height="17" viewBox="0 0 16 17" fill="none" xmlns="http://www.w3.org/2000/svg">
<path fill-rule="evenodd" clip-rule="evenodd" d="M7.11684 0.5C5.98189 0.500097 4.86342 0.771595 3.85475 1.29184C2.84608 1.81209 1.97645 2.566 1.31841 3.49068C0.660378 4.41536 0.233022 5.48399 0.0719994 6.60741C-0.0890236 7.73083 0.0209557 8.87647 0.392762 9.94874C0.764567 11.021 1.38742 11.9888 2.20935 12.7715C3.03128 13.5541 4.02846 14.1288 5.11768 14.4477C6.20691 14.7665 7.3566 14.8203 8.47084 14.6045C9.58508 14.3887 10.6316 13.9096 11.523 13.2071L14.5809 16.265C14.7389 16.4175 14.9504 16.5019 15.1699 16.5C15.3895 16.4981 15.5995 16.41 15.7547 16.2548C15.91 16.0995 15.9981 15.8895 16 15.67C16.0019 15.4504 15.9175 15.2389 15.7649 15.081L12.707 12.0231C13.5343 10.9736 14.0494 9.71247 14.1933 8.38392C14.3373 7.05538 14.1043 5.71314 13.521 4.51081C12.9378 3.30849 12.0278 2.29466 10.8952 1.58535C9.76262 0.876043 8.45321 0.49991 7.11684 0.5ZM1.67409 7.61717C1.67409 6.17372 2.24752 4.78939 3.26823 3.76871C4.28895 2.74804 5.67333 2.17463 7.11684 2.17463C8.56034 2.17463 9.94473 2.74804 10.9654 3.76871C11.9862 4.78939 12.5596 6.17372 12.5596 7.61717C12.5596 9.06063 11.9862 10.445 10.9654 11.4656C9.94473 12.4863 8.56034 13.0597 7.11684 13.0597C5.67333 13.0597 4.28895 12.4863 3.26823 11.4656C2.24752 10.445 1.67409 9.06063 1.67409 7.61717Z" fill="white"/>
</svg>
