<svg width="24" height="24" viewBox="0 0 24 24" fill="none" xmlns="http://www.w3.org/2000/svg">
<path d="M4 10.0029C4 6.23169 4 4.34608 5.17157 3.1745C6.34315 2.00293 8.22876 2.00293 12 2.00293C15.7712 2.00293 17.6569 2.00293 18.8284 3.1745C20 4.34608 20 6.23169 20 10.0029V13.0029C20 16.7742 20 18.6598 18.8284 19.8314C17.6569 21.0029 15.7712 21.0029 12 21.0029C8.22876 21.0029 6.34315 21.0029 5.17157 19.8314C4 18.6598 4 16.7742 4 13.0029V10.0029Z" stroke="#117399" stroke-width="1.5"/>
<path d="M17 21.0029V22.0029H16V21.0029M8 21.0029V22.0029H7V21.0029" stroke="#117399" stroke-width="1.5" stroke-linejoin="round"/>
<path d="M20 11.5029H4" stroke="#117399" stroke-width="1.5"/>
<path d="M17 7.00293L17 9.00293" stroke="#117399" stroke-width="1.5" stroke-linecap="round"/>
<path d="M17 14.0029L17 16.0029" stroke="#117399" stroke-width="1.5" stroke-linecap="round"/>
</svg>
