<svg width="22" height="25" viewBox="0 0 22 25" fill="none" xmlns="http://www.w3.org/2000/svg">
<g id="logos:google-play-icon" clip-path="url(#clip0_21_6517)">
<path id="Vector" d="M10.51 11.5L0 22.4374C0.118026 22.8529 0.330123 23.236 0.620077 23.5576C0.910032 23.8791 1.27017 24.1306 1.67295 24.2927C2.07574 24.4548 2.51051 24.5233 2.94404 24.493C3.37756 24.4626 3.79836 24.3342 4.17427 24.1176L16 17.4277L10.51 11.5Z" fill="#EA4335"/>
<path id="Vector_2" d="M20.5662 10.2241L15.5953 7.5L10 12.1977L15.6181 17.5L20.5511 14.8051C20.9881 14.5862 21.3542 14.257 21.6096 13.8532C21.865 13.4495 22 12.9865 22 12.5146C22 12.0426 21.865 11.5797 21.6096 11.1759C21.3542 10.7721 20.9881 10.4429 20.5511 10.224L20.5662 10.2241Z" fill="#FBBC04"/>
<path id="Vector_3" d="M0.0943543 2.5C0.0306206 2.7248 -0.00110589 2.95676 2.94217e-05 3.18963V21.8103C0.000690215 22.0431 0.0323862 22.2748 0.0943543 22.5L11 12.2301L0.0943543 2.5Z" fill="#4285F4"/>
<path id="Vector_4" d="M10.5728 12.5L16 7.3625L4.20729 0.882496C3.7636 0.633284 3.25896 0.501307 2.74478 0.500005C1.4688 0.497627 0.347006 1.30984 0 2.48755L10.5728 12.5Z" fill="#34A853"/>
</g>
<defs>
<clipPath id="clip0_21_6517">
<rect width="22" height="24" fill="white" transform="translate(0 0.5)"/>
</clipPath>
</defs>
</svg>
