<svg width="137.000000" height="43.000000" viewBox="0 0 137 43" fill="none" xmlns="http://www.w3.org/2000/svg" xmlns:xlink="http://www.w3.org/1999/xlink">
	<desc>
			Created with Pixso.
	</desc>
	<defs>
		<clipPath id="clip8_1933">
			<rect id="logos:google-play-icon" width="22.000000" height="24.000000" transform="translate(12.000000 9.500000)" fill="white" fill-opacity="0"/>
		</clipPath>
	</defs>
	<rect id="logos:google-play-icon" width="22.000000" height="24.000000" transform="translate(12.000000 9.500000)" fill="#FFFFFF" fill-opacity="0"/>
	<g clip-path="url(#clip8_1933)">
		<path id="Vector" d="M22.5 20.5L12 31.43C12.11 31.85 12.33 32.23 12.61 32.55C12.91 32.87 13.26 33.13 13.67 33.29C14.07 33.45 14.5 33.52 14.94 33.49C15.37 33.46 15.79 33.33 16.17 33.11L28 26.42L22.5 20.5Z" fill="#EA4335" fill-opacity="1.000000" fill-rule="nonzero"/>
		<path id="Vector" d="M32.56 19.22L27.59 16.5L22 21.19L27.61 26.5L32.55 23.8C32.98 23.58 33.35 23.25 33.6 22.85C33.86 22.44 34 21.98 34 21.51C34 21.04 33.86 20.57 33.6 20.17C33.35 19.77 32.98 19.44 32.55 19.22L32.56 19.22Z" fill="#FBBC04" fill-opacity="1.000000" fill-rule="nonzero"/>
		<path id="Vector" d="M12.09 11.5C12.03 11.72 11.99 11.95 12 12.18L12 30.81C12 31.04 12.03 31.27 12.09 31.5L23 21.23L12.09 11.5Z" fill="#4285F4" fill-opacity="1.000000" fill-rule="nonzero"/>
		<path id="Vector" d="M22.57 21.5L28 16.36L16.2 9.88C15.76 9.63 15.25 9.5 14.74 9.5C13.46 9.49 12.34 10.3 12 11.48L22.57 21.5Z" fill="#34A853" fill-opacity="1.000000" fill-rule="nonzero"/>
	</g>
	<path id="Доступно в" d="M50.48 17.74L50.48 11.85L46.32 11.85Q46.17 13.17 45.9 14.22Q45.64 15.27 45.3 16.13C45.08 16.7 44.85 17.24 44.6 17.74L44.04 17.74L44.04 21.08L45.5 21.08L45.5 19L49.97 19L49.97 21.08L51.43 21.08L51.43 17.74L50.48 17.74ZM47.24 14.61Q47.43 13.8 47.53 13.12L48.98 13.12L48.98 17.74L46.18 17.74C46.4 17.26 46.59 16.76 46.77 16.22Q47.04 15.42 47.24 14.61ZM56.66 18.36C57.14 17.86 57.37 17.16 57.37 16.26C57.37 15.65 57.26 15.14 57.04 14.72Q56.81 14.31 56.48 14.02Q56.31 13.88 56.11 13.77Q56.09 13.76 56.08 13.75Q55.5 13.44 54.75 13.44Q53.74 13.44 53.09 13.91Q52.93 14.03 52.79 14.17Q52.76 14.2 52.73 14.24Q52.08 14.96 52.08 16.26Q52.08 17.16 52.42 17.8C52.65 18.22 52.96 18.55 53.36 18.77Q53.4 18.79 53.44 18.81Q54.01 19.1 54.72 19.1Q55.67 19.1 56.32 18.65Q56.5 18.52 56.66 18.36ZM58.94 18.42C59.38 18.87 60.01 19.1 60.83 19.1C61.2 19.1 61.52 19.06 61.77 19Q61.79 18.99 61.81 18.99Q62.16 18.89 62.49 18.68L62.49 17.42C62.26 17.56 62.02 17.68 61.79 17.76C61.55 17.84 61.27 17.88 60.95 17.88C60.59 17.88 60.3 17.75 60.1 17.5C59.9 17.24 59.8 16.83 59.8 16.29Q59.8 15.18 60.32 14.82Q60.57 14.63 60.95 14.63C61.16 14.63 61.36 14.66 61.56 14.73C61.76 14.79 61.98 14.86 62.21 14.95L62.65 13.8C62.45 13.71 62.21 13.62 61.93 13.55Q61.51 13.44 60.95 13.44C60.43 13.44 59.96 13.54 59.56 13.74C59.16 13.93 58.84 14.24 58.61 14.66C58.39 15.08 58.27 15.63 58.27 16.29Q58.27 17.75 58.94 18.42ZM92.35 18.36C92.83 17.86 93.06 17.16 93.06 16.26C93.06 15.65 92.95 15.14 92.73 14.72Q92.5 14.31 92.17 14.02Q92 13.88 91.8 13.77C91.4 13.55 90.95 13.44 90.44 13.44C89.61 13.44 88.96 13.68 88.48 14.17Q88.45 14.2 88.42 14.24Q87.77 14.96 87.77 16.26C87.77 16.86 87.89 17.38 88.11 17.8C88.34 18.22 88.65 18.55 89.05 18.77C89.45 18.99 89.9 19.1 90.41 19.1C91.22 19.1 91.87 18.85 92.35 18.36ZM66.48 14.65L68.27 14.65L68.27 13.54L63.19 13.54L63.19 14.65L64.98 14.65L64.98 19L66.48 19L66.48 14.65ZM70.13 13.54L68.5 13.54L70.67 18.96L70.58 19.22C70.49 19.49 70.35 19.72 70.17 19.91C69.99 20.1 69.74 20.2 69.43 20.2C69.31 20.2 69.2 20.19 69.1 20.17C69 20.16 68.91 20.15 68.83 20.14L68.83 21.31C68.93 21.34 69.04 21.35 69.16 21.37C69.28 21.39 69.43 21.39 69.6 21.39C70.12 21.39 70.57 21.25 70.97 20.97C71.37 20.69 71.67 20.26 71.87 19.7L74.19 13.54L72.58 13.54L71.58 16.6C71.53 16.75 71.49 16.9 71.45 17.06C71.41 17.22 71.39 17.38 71.37 17.55L71.33 17.55C71.32 17.38 71.3 17.22 71.27 17.06C71.25 16.9 71.21 16.75 71.16 16.6L70.13 13.54ZM79.92 19L79.92 13.54L74.96 13.54L74.96 19L76.46 19L76.46 14.65L78.44 14.65L78.44 19L79.92 19ZM82.98 15.64L82.98 13.54L81.48 13.54L81.48 19L82.98 19L82.98 16.74L85.06 16.74L85.06 19L86.54 19L86.54 13.54L85.06 13.54L85.06 15.64L82.98 15.64ZM101.18 15.72C101.36 15.51 101.45 15.26 101.45 14.96C101.45 14.6 101.36 14.32 101.16 14.11C100.96 13.91 100.7 13.76 100.36 13.67C100.02 13.58 99.64 13.54 99.21 13.54L96.61 13.54L96.61 19L99.21 19Q100.08 19 100.6 18.79C100.96 18.65 101.22 18.45 101.38 18.21C101.54 17.96 101.63 17.68 101.63 17.36C101.63 17.03 101.51 16.76 101.28 16.55C101.05 16.33 100.74 16.2 100.36 16.16L100.36 16.11C100.72 16.05 101 15.92 101.18 15.72ZM99.15 14.59C99.68 14.59 99.94 14.75 99.94 15.08C99.94 15.29 99.86 15.44 99.7 15.53C99.54 15.62 99.3 15.66 98.98 15.66L98.1 15.66L98.1 14.59L99.15 14.59ZM53.87 17.48Q53.61 17.06 53.61 16.26Q53.61 15.45 53.87 15.04Q53.95 14.92 54.05 14.84Q54.31 14.63 54.73 14.63Q55.16 14.63 55.42 14.85Q55.52 14.93 55.59 15.04C55.77 15.31 55.86 15.72 55.86 16.26Q55.86 17.06 55.59 17.48C55.41 17.76 55.13 17.89 54.74 17.89Q54.31 17.89 54.05 17.69Q53.95 17.6 53.87 17.48ZM89.56 17.48Q89.3 17.06 89.3 16.26Q89.3 15.45 89.56 15.04Q89.64 14.92 89.74 14.84Q90 14.63 90.42 14.63Q90.85 14.63 91.11 14.85Q91.21 14.93 91.28 15.04C91.46 15.31 91.55 15.72 91.55 16.26C91.55 16.79 91.46 17.2 91.28 17.48C91.1 17.76 90.82 17.89 90.43 17.89C90.03 17.89 89.74 17.76 89.56 17.48ZM99.83 16.82C100 16.92 100.08 17.07 100.08 17.29C100.08 17.53 99.99 17.71 99.81 17.81Q99.54 17.96 99.11 17.96L98.1 17.96L98.1 16.68L99.08 16.68C99.42 16.68 99.67 16.72 99.83 16.82Z" fill="#061E28" fill-opacity="1.000000" fill-rule="evenodd"/>
	<path id="Google Play" d="M53.82 23.1L51.63 23.1C51.36 22.15 50.61 21.58 49.5 21.58C47.94 21.58 46.88 22.78 46.88 24.9C46.88 27.02 47.9 28.23 49.52 28.23C50.95 28.23 51.81 27.43 51.84 26.17L49.65 26.17L49.65 24.55L53.91 24.55L53.91 25.83C53.91 28.51 52.08 30.14 49.51 30.14C46.64 30.14 44.7 28.14 44.7 24.91C44.7 21.61 46.77 19.67 49.46 19.67C51.76 19.67 53.54 21.09 53.82 23.1ZM81.53 19.81L83.65 19.81L83.65 30L81.53 30L81.53 19.81ZM99.15 30L97 30L97 19.81L101.01 19.81C103.33 19.81 104.66 21.24 104.66 23.27C104.66 25.3 103.3 26.69 100.96 26.69L99.15 26.69L99.15 30ZM106.03 19.81L108.14 19.81L108.14 30L106.03 30L106.03 19.81ZM99.15 21.57L99.15 24.97L100.61 24.97C101.84 24.97 102.45 24.27 102.45 23.27C102.45 22.25 101.84 21.57 100.6 21.57L99.15 21.57ZM62.7 26.21C62.7 28.56 61.26 30.15 58.94 30.15C56.62 30.15 55.18 28.56 55.18 26.21C55.18 23.84 56.62 22.26 58.94 22.26C61.26 22.26 62.7 23.84 62.7 26.21ZM71.29 26.21C71.29 28.56 69.85 30.15 67.53 30.15C65.21 30.15 63.77 28.56 63.77 26.21C63.77 23.84 65.21 22.26 67.53 22.26C69.85 22.26 71.29 23.84 71.29 26.21ZM79.84 30.07C79.84 32.02 78.29 33.02 76.11 33.02C74.05 33.02 72.88 32.09 72.62 30.89L74.58 30.63C74.76 31.09 75.23 31.5 76.16 31.5C77.08 31.5 77.75 31.09 77.75 30.04L77.75 28.64L77.66 28.64C77.38 29.27 76.7 29.89 75.49 29.89C73.76 29.89 72.39 28.7 72.39 26.16C72.39 23.56 73.81 22.26 75.48 22.26C76.76 22.26 77.38 23.02 77.66 23.64L77.74 23.64L77.74 22.36L79.84 22.36L79.84 30.07ZM92.28 27.81C91.99 29.23 90.71 30.15 88.82 30.15C86.47 30.15 85.04 28.63 85.04 26.21C85.04 23.86 86.49 22.26 88.74 22.26C90.76 22.26 92.33 23.54 92.33 26.14L92.33 26.72L87.13 26.72L87.13 26.72C87.13 27.86 87.8 28.56 88.86 28.56C89.56 28.56 90.11 28.26 90.33 27.68L92.28 27.81ZM114.24 28.94C113.87 29.65 113.14 30.14 112.01 30.14C110.55 30.14 109.48 29.37 109.48 27.86C109.48 26.16 110.83 25.65 112.35 25.51C113.67 25.38 114.19 25.32 114.19 24.82L114.19 24.8C114.19 24.17 113.78 23.81 113.06 23.81C112.3 23.81 111.85 24.18 111.7 24.69L109.74 24.53C110.04 23.14 111.24 22.26 113.07 22.26C114.77 22.26 116.31 23.03 116.31 24.84L116.31 30L114.3 30L114.3 28.94L114.24 28.94ZM121.83 30.82C121.4 32.05 120.56 32.86 118.99 32.86C118.45 32.86 117.96 32.77 117.65 32.64L118.13 31.06C118.88 31.29 119.41 31.25 119.69 30.54L119.81 30.21L117.07 22.36L119.3 22.36L120.88 27.97L120.96 27.97L122.56 22.36L124.8 22.36L121.83 30.82ZM88.77 23.84C87.83 23.84 87.17 24.54 87.13 25.4L90.34 25.4C90.33 24.5 89.69 23.84 88.77 23.84ZM57.33 26.19C57.33 27.52 57.88 28.5 58.95 28.5C60 28.5 60.55 27.52 60.55 26.19C60.55 24.86 60 23.87 58.95 23.87C57.88 23.87 57.33 24.86 57.33 26.19ZM65.93 26.19C65.93 27.52 66.47 28.5 67.54 28.5C68.59 28.5 69.14 27.52 69.14 26.19C69.14 24.86 68.59 23.87 67.54 23.87C66.47 23.87 65.93 24.86 65.93 26.19ZM74.55 26.15C74.55 27.47 75.12 28.3 76.16 28.3C77.18 28.3 77.76 27.5 77.76 26.15C77.76 24.81 77.19 23.95 76.16 23.95C75.11 23.95 74.55 24.85 74.55 26.15ZM111.5 27.79C111.5 28.37 111.97 28.68 112.62 28.68C113.55 28.68 114.21 28.07 114.21 27.26L114.21 26.45C113.96 26.62 113.2 26.73 112.74 26.8C111.99 26.9 111.5 27.2 111.5 27.79Z" fill="#061E28" fill-opacity="1.000000" fill-rule="evenodd"/>
	<rect id="GooglePlay_btn" rx="9.500000" width="136.000000" height="42.000000" transform="translate(0.500000 0.500000)" stroke="#C0C1C7" stroke-opacity="1.000000" stroke-width="1.000000"/>
</svg>
