<svg width="24" height="24" viewBox="0 0 24 24" fill="none" xmlns="http://www.w3.org/2000/svg">
<path d="M18.8608 6.16467L18.7805 6.24256C18.0056 5.44352 16.9616 4.99974 15.8793 4.99805L20 9.27792C19.9984 8.15345 19.5717 7.08041 18.8205 6.28433C18.8073 6.27032 18.7939 6.2564 18.7805 6.24256L18.8608 6.16467ZM18.8608 6.16467C18.0686 5.36941 16.9996 4.918 15.8793 4.918L20.1379 9.27792C20.1379 8.13131 19.6965 7.02573 18.9013 6.2059C18.8879 6.19205 18.8744 6.17831 18.8608 6.16467ZM12 7.56567L11.986 7.54544L12 7.56567ZM12 7.56567L12.014 7.54544L12 7.56567ZM12 7.56567L11.4808 8.31517L12 7.56567ZM12 7.56567L12.5192 8.31517L12 7.56567ZM12 7.35185C11.9674 7.27871 11.933 7.20699 11.8967 7.13671L12 7.25691L12.1033 7.13672C12.067 7.20699 12.0326 7.27871 12 7.35185Z" stroke="#117399" stroke-width="2"/>
</svg>
