<svg width="24" height="25" viewBox="0 0 24 25" fill="none" xmlns="http://www.w3.org/2000/svg">
<path fill-rule="evenodd" clip-rule="evenodd" d="M12 3.5C7.02944 3.5 3 7.52944 3 12.5C3 17.4706 7.02944 21.5 12 21.5C16.9706 21.5 21 17.4706 21 12.5C21 7.52944 16.9706 3.5 12 3.5ZM1 12.5C1 6.42487 5.92487 1.5 12 1.5C18.0751 1.5 23 6.42487 23 12.5C23 18.5751 18.0751 23.5 12 23.5C5.92487 23.5 1 18.5751 1 12.5Z" fill="#C0C1C7"/>
<path fill-rule="evenodd" clip-rule="evenodd" d="M12.2582 8.5244C11.7927 8.44455 11.314 8.53203 10.9068 8.77135C10.4996 9.01066 10.1902 9.38637 10.0335 9.83193C9.85018 10.3529 9.27926 10.6267 8.75827 10.4434C8.23728 10.2601 7.96351 9.68923 8.14678 9.16824C8.46025 8.27713 9.07898 7.52572 9.89339 7.04708C10.7078 6.56845 11.6653 6.39349 12.5964 6.55319C13.5274 6.71289 14.3719 7.19694 14.9802 7.91961C15.5884 8.64213 15.9214 9.55656 15.9201 10.501C15.9197 12.0314 14.7851 13.042 13.9748 13.5821C13.5392 13.8726 13.1107 14.0861 12.795 14.2264C12.6358 14.2972 12.5016 14.3509 12.405 14.3877C12.3566 14.4061 12.3174 14.4204 12.2888 14.4306L12.2541 14.4427L12.243 14.4465L12.2391 14.4478L12.2376 14.4483C12.2373 14.4484 12.2363 14.4488 11.9201 13.5001L12.2363 14.4488C11.7124 14.6234 11.1461 14.3403 10.9714 13.8163C10.7969 13.2927 11.0796 12.7268 11.6028 12.5517L11.6016 12.5522C11.6017 12.5521 11.6018 12.5521 11.6028 12.5517L11.6188 12.5461C11.6342 12.5407 11.6594 12.5315 11.693 12.5187C11.7605 12.493 11.8607 12.453 11.9827 12.3988C12.2296 12.2891 12.551 12.1276 12.8654 11.918C13.555 11.4583 13.9201 10.9692 13.9201 10.5001L13.9201 10.4986C13.9208 10.0263 13.7543 9.56895 13.4502 9.20761C13.146 8.84628 12.7238 8.60425 12.2582 8.5244Z" fill="#C0C1C7"/>
<path fill-rule="evenodd" clip-rule="evenodd" d="M11 17.5C11 16.9477 11.4477 16.5 12 16.5H12.01C12.5623 16.5 13.01 16.9477 13.01 17.5C13.01 18.0523 12.5623 18.5 12.01 18.5H12C11.4477 18.5 11 18.0523 11 17.5Z" fill="#C0C1C7"/>
</svg>
