<svg width="24.000000" height="24.000000" viewBox="0 0 24 24" fill="none" xmlns="http://www.w3.org/2000/svg" xmlns:xlink="http://www.w3.org/1999/xlink">
	<desc>
			Created with Pixso.
	</desc>
	<defs/>
	<path id="Vector" d="M21.5 18.38L19.22 18.38C18.35 18.38 18.09 17.68 16.55 16.13C15.19 14.83 14.62 14.66 14.28 14.66C13.81 14.66 13.68 14.79 13.68 15.44L13.68 17.5C13.68 18.05 13.5 18.38 12.05 18.38C10.64 18.28 9.28 17.85 8.07 17.13C6.86 16.4 5.84 15.4 5.09 14.21C3.32 12 2.09 9.41 1.5 6.65C1.5 6.31 1.63 6 2.28 6L4.56 6C5.14 6 5.35 6.26 5.58 6.86C6.69 10.12 8.58 12.95 9.35 12.95C9.64 12.95 9.77 12.82 9.77 12.09L9.77 8.73C9.67 7.2 8.86 7.07 8.86 6.52C8.87 6.37 8.94 6.24 9.05 6.14C9.16 6.04 9.3 5.99 9.44 6L13.03 6C13.52 6 13.68 6.24 13.68 6.83L13.68 11.36C13.68 11.85 13.89 12.01 14.04 12.01C14.33 12.01 14.56 11.85 15.1 11.31C16.25 9.9 17.2 8.33 17.9 6.65C17.97 6.45 18.11 6.27 18.29 6.16C18.47 6.04 18.68 5.98 18.89 6L21.17 6C21.86 6 22 6.34 21.86 6.83C21.03 8.69 20 10.45 18.8 12.09C18.55 12.46 18.45 12.66 18.8 13.1C19.02 13.44 19.82 14.11 20.36 14.74C21.14 15.52 21.79 16.43 22.28 17.41C22.48 18.05 22.15 18.38 21.5 18.38Z" fill="#117299" fill-opacity="1.000000" fill-rule="nonzero"/>
</svg>
