<svg width="24.000000" height="24.000000" viewBox="0 0 24 24" fill="none" xmlns="http://www.w3.org/2000/svg" xmlns:xlink="http://www.w3.org/1999/xlink">
	<desc>
			Created with Pixso.
	</desc>
	<defs>
		<clipPath id="clip11_2674">
			<rect id="icon/error" rx="5.000000" width="24.000000" height="24.000000" fill="white" fill-opacity="0"/>
		</clipPath>
	</defs>
	<rect id="icon/error" rx="5.000000" width="24.000000" height="24.000000" fill="#FFFFFF" fill-opacity="1.000000"/>
	<g clip-path="url(#clip11_2674)">
		<path id="Vector" d="M12 1.99C10.02 1.99 8.08 2.58 6.44 3.68C4.8 4.78 3.51 6.34 2.76 8.17C2 9.99 1.8 12 2.19 13.94C2.57 15.88 3.53 17.67 4.92 19.06C6.32 20.46 8.1 21.41 10.04 21.8C11.98 22.19 14 21.99 15.82 21.23C17.65 20.47 19.21 19.19 20.31 17.55C21.41 15.9 22 13.97 22 11.99C22 9.34 20.94 6.8 19.07 4.92C17.19 3.05 14.65 1.99 12 1.99ZM10.75 6.99C10.75 6.66 10.89 6.34 11.12 6.11C11.35 5.87 11.67 5.74 12 5.74C12.33 5.74 12.65 5.87 12.89 6.11C13.12 6.34 13.25 6.66 13.25 6.99L13.25 12.73C13.25 12.9 13.22 13.06 13.16 13.21C13.09 13.36 13 13.5 12.89 13.62C12.77 13.73 12.63 13.83 12.48 13.89C12.33 13.95 12.17 13.98 12 13.98C11.84 13.98 11.68 13.95 11.52 13.89C11.37 13.83 11.24 13.73 11.12 13.62C11 13.5 10.91 13.36 10.85 13.21C10.79 13.06 10.75 12.9 10.75 12.73L10.75 6.99ZM12 18.24C11.71 18.24 11.43 18.16 11.2 18C10.96 17.84 10.78 17.62 10.67 17.36C10.56 17.1 10.53 16.81 10.59 16.53C10.65 16.25 10.78 16 10.98 15.8C11.18 15.6 11.44 15.46 11.72 15.4C11.99 15.35 12.28 15.38 12.54 15.49C12.81 15.59 13.03 15.78 13.19 16.01C13.34 16.25 13.43 16.53 13.43 16.81C13.43 17.19 13.28 17.55 13.01 17.82C12.74 18.09 12.38 18.24 12 18.24Z" fill="#C62C2C" fill-opacity="1.000000" fill-rule="nonzero"/>
	</g>
</svg>
