<svg width="20" height="20" viewBox="0 0 20 20" fill="none" xmlns="http://www.w3.org/2000/svg">
<path d="M10 0.000488281C8.02219 0.000488281 6.08879 0.586978 4.4443 1.68579C2.79981 2.78461 1.51809 4.34639 0.761209 6.17365C0.00433286 8.00091 -0.1937 10.0116 0.192152 11.9514C0.578004 13.8912 1.53041 15.673 2.92894 17.0716C4.32746 18.4701 6.10929 19.4225 8.0491 19.8083C9.98891 20.1942 11.9996 19.9962 13.8268 19.2393C15.6541 18.4824 17.2159 17.2007 18.3147 15.5562C19.4135 13.9117 20 11.9783 20 10.0005C20 7.34832 18.9464 4.80478 17.0711 2.92942C15.1957 1.05406 12.6522 0.000488281 10 0.000488281ZM8.75834 5.00049C8.75834 4.66897 8.89003 4.35102 9.12445 4.1166C9.35887 3.88218 9.67682 3.75049 10.0083 3.75049C10.3399 3.75049 10.6578 3.88218 10.8922 4.1166C11.1266 4.35102 11.2583 4.66897 11.2583 5.00049V10.7422C11.2583 10.9063 11.226 11.0689 11.1632 11.2205C11.1004 11.3722 11.0083 11.51 10.8922 11.626C10.7761 11.7421 10.6383 11.8342 10.4867 11.897C10.335 11.9598 10.1725 11.9922 10.0083 11.9922C9.84418 11.9922 9.68164 11.9598 9.52998 11.897C9.37832 11.8342 9.24053 11.7421 9.12445 11.626C9.00838 11.51 8.9163 11.3722 8.85349 11.2205C8.79067 11.0689 8.75834 10.9063 8.75834 10.7422V5.00049ZM10 16.2505C9.71652 16.2505 9.43939 16.1664 9.20368 16.0089C8.96797 15.8514 8.78426 15.6276 8.67577 15.3657C8.56729 15.1038 8.53891 14.8156 8.59421 14.5375C8.64952 14.2595 8.78603 14.0041 8.98648 13.8036C9.18694 13.6032 9.44233 13.4667 9.72037 13.4114C9.99841 13.3561 10.2866 13.3844 10.5485 13.4929C10.8104 13.6014 11.0343 13.7851 11.1918 14.0208C11.3493 14.2565 11.4333 14.5337 11.4333 14.8172C11.4333 15.1973 11.2823 15.5619 11.0135 15.8307C10.7447 16.0995 10.3801 16.2505 10 16.2505Z" fill="#C72D2D"/>
</svg>
