<svg width="18" height="18" viewBox="0 0 18 18" fill="none" xmlns="http://www.w3.org/2000/svg">
<path d="M9 12.8092L5.22178 9.02242L9 5.23561L12.7782 9.02242L9 12.8092ZM10.2361 17.4848C10.0663 17.6551 9.8746 17.7836 9.66105 17.8705C9.44751 17.9581 9.22716 18.002 9 18.002C8.77284 18.002 8.55249 17.9581 8.33895 17.8705C8.1254 17.7843 7.93372 17.6561 7.76389 17.4859L0.494446 10.1989C0.33823 10.043 0.216768 9.85807 0.130061 9.64404C0.0433534 9.43001 0 9.21598 0 9.00195C0 8.78792 0.0433534 8.5739 0.130061 8.35987C0.216768 8.14584 0.33823 7.96054 0.494446 7.80397L7.75744 0.524457C7.93157 0.34993 8.12433 0.219214 8.33572 0.13231C8.54712 0.0454052 8.76854 0.00195313 9 0.00195312C9.23146 0.00195312 9.45289 0.0454052 9.66428 0.13231C9.87567 0.219214 10.0684 0.34993 10.2426 0.524457L17.5056 7.80397C17.6618 7.96054 17.7832 8.14584 17.8699 8.35987C17.9566 8.5739 18 8.78792 18 9.00195C18 9.21598 17.9566 9.43001 17.8699 9.64404C17.7832 9.85807 17.6618 10.043 17.5056 10.1989L10.2361 17.4848ZM9.35149 16.4064L16.3877 9.35424C16.4844 9.25728 16.5328 9.13985 16.5328 9.00195C16.5328 8.86406 16.4844 8.74663 16.3877 8.64967L9.35149 1.59748C9.25475 1.50052 9.13759 1.45563 9 1.46281C8.86242 1.46999 8.74525 1.5217 8.64851 1.61795L1.5919 8.69061C1.49516 8.78757 1.45038 8.89817 1.45754 9.02242C1.46471 9.14668 1.5163 9.25728 1.61233 9.35424L8.64851 16.4064C8.74525 16.5027 8.86242 16.5508 9 16.5508C9.13759 16.5508 9.25475 16.5027 9.35149 16.4064Z" fill="#117399"/>
</svg>
