<svg width="40" height="40" viewBox="0 0 40 40" fill="none" xmlns="http://www.w3.org/2000/svg">
<rect x="1" y="1" width="38" height="38" rx="9" fill="#117399"/>
<rect x="1" y="1" width="38" height="38" rx="9" stroke="#117399" stroke-width="2"/>
<path d="M23.75 23.001C23.5511 23.001 23.3603 23.08 23.2197 23.2206C23.079 23.3613 23 23.5521 23 23.751C23 23.9499 23.079 24.1407 23.2197 24.2813C23.3603 24.422 23.5511 24.501 23.75 24.501H26.75C26.9489 24.501 27.1397 24.422 27.2803 24.2813C27.421 24.1407 27.5 23.9499 27.5 23.751C27.5 23.5521 27.421 23.3613 27.2803 23.2206C27.1397 23.08 26.9489 23.001 26.75 23.001H23.75ZM9.5 16.251C9.5 15.2564 9.89509 14.3026 10.5983 13.5993C11.3016 12.8961 12.2554 12.501 13.25 12.501H26.75C27.7446 12.501 28.6984 12.8961 29.4016 13.5993C30.1049 14.3026 30.5 15.2564 30.5 16.251V23.751C30.5 24.7455 30.1049 25.6994 29.4016 26.4026C28.6984 27.1059 27.7446 27.501 26.75 27.501H13.25C12.2554 27.501 11.3016 27.1059 10.5983 26.4026C9.89509 25.6994 9.5 24.7455 9.5 23.751V16.251ZM29 17.001V16.251C29 15.6542 28.7629 15.0819 28.341 14.66C27.919 14.238 27.3467 14.001 26.75 14.001H13.25C12.6533 14.001 12.081 14.238 11.659 14.66C11.2371 15.0819 11 15.6542 11 16.251V17.001H29ZM11 18.501V23.751C11 24.3477 11.2371 24.92 11.659 25.342C12.081 25.7639 12.6533 26.001 13.25 26.001H26.75C27.3467 26.001 27.919 25.7639 28.341 25.342C28.7629 24.92 29 24.3477 29 23.751V18.501H11Z" fill="white"/>
</svg>
