<svg width="20" height="20" viewBox="0 0 20 20" fill="none" xmlns="http://www.w3.org/2000/svg">
<path d="M1 19.0018H19M2 16.0018H18M4 8.00185V16.0018M8 8.00185V16.0018M12 8.00185V16.0018M16 8.00185V16.0018M2 7.50185V6.50185C2 6.20185 2.2 5.90185 2.5 5.70185L9.5 1.20185C9.65202 1.11408 9.82446 1.06787 10 1.06787C10.1755 1.06787 10.348 1.11408 10.5 1.20185L17.5 5.70185C17.8 5.90185 18 6.20185 18 6.50185V7.50185C18 7.80185 17.8 8.00185 17.5 8.00185H2.5C2.36739 8.00185 2.24021 7.94917 2.14645 7.8554C2.05268 7.76163 2 7.63445 2 7.50185Z" stroke="#117399" stroke-width="1.5" stroke-linecap="round"/>
</svg>
