<svg width="80" height="80" viewBox="0 0 80 80" fill="none" xmlns="http://www.w3.org/2000/svg">
<rect width="80" height="80" rx="40" fill="#F2F3F9"/>
<path d="M48 49V47C48 45.9391 47.5786 44.9217 46.8284 44.1716C46.0783 43.4214 45.0609 43 44 43H36C34.9391 43 33.9217 43.4214 33.1716 44.1716C32.4214 44.9217 32 45.9391 32 47V49" stroke="#C0C1C7" stroke-width="2" stroke-linecap="round" stroke-linejoin="round"/>
<path d="M40 39C42.2091 39 44 37.2091 44 35C44 32.7909 42.2091 31 40 31C37.7909 31 36 32.7909 36 35C36 37.2091 37.7909 39 40 39Z" stroke="#C0C1C7" stroke-width="2" stroke-linecap="round" stroke-linejoin="round"/>
</svg>
