<svg width="24" height="24" viewBox="0 0 24 24" fill="none" xmlns="http://www.w3.org/2000/svg">
<path d="M15.2 11.9972C15.2 12.2183 15.1157 12.4303 14.9657 12.5866C14.8157 12.743 14.6122 12.8308 14.4 12.8308C14.1878 12.8308 13.9843 12.743 13.8343 12.5866C13.6843 12.4303 13.6 12.2183 13.6 11.9972C13.6 11.7761 13.6843 11.5641 13.8343 11.4078C13.9843 11.2515 14.1878 11.1636 14.4 11.1636C14.6122 11.1636 14.8157 11.2515 14.9657 11.4078C15.1157 11.5641 15.2 11.7761 15.2 11.9972ZM11.3568 2.01422C11.2408 1.99005 11.1211 1.993 11.0063 2.02286C10.8915 2.05271 10.7845 2.10872 10.693 2.18686C10.6014 2.26499 10.5277 2.3633 10.477 2.47471C10.4264 2.58612 10.4001 2.70785 10.4 2.83113V21.165C10.4001 21.2882 10.4264 21.41 10.477 21.5214C10.5277 21.6328 10.6014 21.7311 10.693 21.8092C10.7845 21.8874 10.8915 21.9434 11.0063 21.9732C11.1211 22.0031 11.2408 22.006 11.3568 21.9819L19.3568 20.3147C19.5381 20.277 19.7012 20.1749 19.8185 20.026C19.9358 19.8771 19.9999 19.6904 20 19.4978V4.49829C19.9999 4.30566 19.9358 4.11901 19.8185 3.97008C19.7012 3.82115 19.5381 3.71914 19.3568 3.68138L11.3568 2.01422ZM12 20.148V3.8481L18.4 5.18183V18.8143L12 20.148ZM8.8 20.3314V18.6642H5.6V5.33188H8.8V3.66471H4.8C4.58783 3.66471 4.38434 3.75253 4.23431 3.90886C4.08429 4.06519 4 4.27721 4 4.49829V19.4978C4 19.7189 4.08429 19.9309 4.23431 20.0872C4.38434 20.2436 4.58783 20.3314 4.8 20.3314H8.8Z" fill="#117399"/>
</svg>
