<svg width="24" height="24" viewBox="0 0 24 24" fill="none" xmlns="http://www.w3.org/2000/svg">
<path d="M6.34459 12.0011L8.46559 14.1231M9.17259 9.17308L11.2936 11.2931M12.0006 6.34508L14.1226 8.46708M5.07059 13.2741L13.2726 5.07108C14.0646 4.27908 14.4606 3.88308 14.9176 3.73508C15.3193 3.60458 15.7519 3.60458 16.1536 3.73508C16.6096 3.88308 17.0056 4.27908 17.7966 5.07008L18.9306 6.20108C19.7226 6.99308 20.1186 7.39108 20.2676 7.84708C20.3976 8.24908 20.3976 8.68108 20.2676 9.08208C20.1186 9.53908 19.7226 9.93508 18.9306 10.7271L10.7286 18.9301C9.93659 19.7221 9.53959 20.1181 9.08359 20.2661C8.68159 20.3961 8.24959 20.3961 7.84859 20.2661C7.39159 20.1181 6.99459 19.7221 6.20259 18.9301L5.06959 17.7971C4.27959 17.0061 3.88259 16.6101 3.73459 16.1541C3.60409 15.7524 3.60409 15.3197 3.73459 14.9181C3.88259 14.4611 4.27959 14.0651 5.07159 13.2731" stroke="#117399" stroke-width="2" stroke-linecap="round" stroke-linejoin="round"/>
</svg>
