<svg width="24" height="25" viewBox="0 0 24 25" fill="none" xmlns="http://www.w3.org/2000/svg">
<g id="svg-gobbler (1) 1" clip-path="url(#clip0_21_6536)">
<g id="Group">
<g id="Group_2">
<g id="Group_3">
<path id="Vector" d="M18.4021 24.5H5.59788C2.50619 24.5 0 21.9937 0 18.9021V6.09788C0 3.00619 2.50633 0.5 5.59788 0.5H18.4021C21.4938 0.5 24 3.00633 24 6.09788V18.9021C24 21.9937 21.4937 24.5 18.4021 24.5Z" fill="#CC2222"/>
<g id="Group_4">
<path id="Vector_2" opacity="0.804493" d="M16.847 7.294C17.9811 7.29413 19.1153 7.29427 20.2496 7.2944V14.7756C20.2496 14.7756 20.1724 16.0738 19.6073 16.8473C19.4543 17.0567 19.2722 17.2427 19.2324 17.2826L19.2252 17.2899L19.2245 17.2905C19.1533 17.3607 18.9345 17.5704 18.6081 17.7784C18.2139 18.0296 17.8049 18.1877 17.3822 18.3006C17.1472 18.3632 16.5925 18.4961 14.9442 18.5C14.3697 18.5012 13.9509 18.4862 13.6413 18.4638C13.6404 18.2554 13.6388 17.9161 13.6373 17.5705L13.6368 17.4632C13.6353 17.1176 13.6338 16.7788 13.633 16.5714C13.6322 16.397 13.631 16.0836 13.6297 15.7635L13.6294 15.6674C13.6282 15.3473 13.627 15.0338 13.6264 14.8594C13.633 14.754 13.6308 14.5636 13.5432 14.3503C13.5264 14.3096 13.4583 14.1497 13.3048 13.9867C13.1364 13.8071 12.9577 13.7244 12.7667 13.6347C12.6536 13.5816 12.5193 13.529 12.3192 13.4748C12.0758 13.4086 11.704 13.3314 11.2177 13.3181C11.439 13.2761 12.4504 13.0598 13.0884 12.1219C13.4062 11.6547 13.5155 11.179 13.5473 10.8022C13.5486 11.9118 13.5498 13.0214 13.551 14.1309C13.5544 14.2674 13.584 14.8385 14.0299 15.2777C14.3138 15.5572 14.6415 15.661 14.7425 15.6893C14.954 15.7486 15.123 15.7526 15.1817 15.7528L15.2122 15.7528C16.1151 15.7528 16.847 15.0266 16.847 14.131V7.294ZM10.8496 7.25293C11.1947 7.25957 11.5436 7.26404 11.8967 7.26608C12.4555 7.26933 13.0044 7.26648 13.5434 7.25835C13.5445 8.24231 13.5456 9.22613 13.5467 10.2101C13.5268 9.92032 13.4345 8.97079 12.6516 8.17237C11.9647 7.47208 11.1509 7.30037 10.8496 7.25293Z" fill="white"/>
<path id="Vector_3" d="M10.1486 7.25V14.8864C10.1513 15.1448 10.1803 15.5926 10.3512 16.0921C10.3335 16.0532 10.3122 16.0118 10.2863 15.9695C10.2545 15.9174 10.1952 15.8297 10.0796 15.7187C9.84327 15.4919 9.5856 15.3739 9.5177 15.3435L9.5076 15.3391L9.48739 15.3303C9.27476 15.2395 9.04775 15.1848 8.51763 15.1299C8.21296 15.0983 7.81553 15.0674 7.34542 15.0585C7.3543 16.1959 7.36331 17.333 7.37233 18.4702L4.5 18.466V7.25H10.1486ZM10.7014 7.25C10.7508 7.25108 10.8004 7.25203 10.8502 7.25298C11.1514 7.30028 11.9653 7.47214 12.6521 8.17243C13.3991 8.93425 13.5174 9.83377 13.5439 10.1662V10.8444C13.5076 11.2142 13.395 11.672 13.089 12.1218C12.451 13.0597 11.4397 13.276 11.2182 13.318C11.7046 13.3313 12.0765 13.4085 12.3198 13.4747C12.5198 13.5289 12.6541 13.5815 12.7672 13.6346C12.9582 13.7242 13.1369 13.807 13.3054 13.9866C13.4587 14.1496 13.527 14.3096 13.5438 14.3502C13.6314 14.5637 13.6336 14.754 13.627 14.8593C13.6284 15.2256 13.6321 16.2051 13.6336 16.5713C13.6343 16.7716 13.6357 17.0944 13.6371 17.4274L13.6374 17.4989L13.6377 17.5705C13.6392 17.916 13.6408 18.2553 13.6418 18.4637C13.1244 18.426 12.9114 18.3678 12.7854 18.3297C12.085 18.1188 11.6665 17.8159 11.5232 17.7062C11.3304 17.5588 11.0537 17.3162 10.8063 16.9745C10.6325 16.7343 10.5042 16.4882 10.4098 16.2504C10.3969 16.2054 10.3781 16.1513 10.3512 16.0921C10.1803 15.5926 10.1513 15.1448 10.1486 14.8864V7.25H10.7014ZM10.3512 16.0921C10.3857 16.1513 10.4098 16.2055 10.4262 16.2505C10.3991 16.1972 10.3742 16.1442 10.3512 16.0921ZM11.3759 10.5266L7.70545 8.72853C7.49776 8.62739 7.25231 8.77723 7.25231 9.00948V12.6019C7.25231 12.8342 7.49776 12.984 7.70545 12.8829L11.3759 11.0848C11.61 10.9724 11.61 10.639 11.3759 10.5266Z" fill="white"/>
</g>
</g>
</g>
</g>
</g>
<defs>
<clipPath id="clip0_21_6536">
<rect width="24" height="24" fill="white" transform="translate(0 0.5)"/>
</clipPath>
</defs>
</svg>
