<svg width="137.000000" height="43.000000" viewBox="0 0 137 43" fill="none" xmlns="http://www.w3.org/2000/svg" xmlns:xlink="http://www.w3.org/1999/xlink">
	<desc>
			Created with Pixso.
	</desc>
	<defs>
		<clipPath id="clip8_1955">
			<rect id="svg-gobbler (1) 1" width="24.000000" height="24.000000" transform="translate(12.000000 8.833374)" fill="white" fill-opacity="0"/>
		</clipPath>
	</defs>
	<rect id="svg-gobbler (1) 1" width="24.000000" height="24.000000" transform="translate(12.000000 8.833374)" fill="#FFFFFF" fill-opacity="0"/>
	<g clip-path="url(#clip8_1955)">
		<path id="Vector" d="M30.4 32.83L17.59 32.83C14.5 32.83 12 30.32 12 27.23L12 14.43C12 11.33 14.5 8.83 17.59 8.83L30.4 8.83C33.49 8.83 36 11.33 36 14.43L36 27.23C36 30.32 33.49 32.83 30.4 32.83Z" fill="#CC2222" fill-opacity="1.000000" fill-rule="nonzero"/>
		<g opacity="0.804493">
			<path id="Vector" d="M28.84 15.62C29.98 15.62 31.11 15.62 32.25 15.62L32.25 23.1C32.25 23.1 32.17 24.4 31.6 25.18C31.45 25.39 31.27 25.57 31.23 25.61L31.22 25.62L31.22 25.62C31.15 25.69 30.93 25.9 30.6 26.11C30.21 26.36 29.8 26.52 29.38 26.63C29.14 26.69 28.59 26.82 26.94 26.83C26.36 26.83 25.95 26.81 25.64 26.79C25.64 26.58 25.63 26.24 25.63 25.9L25.63 25.79C25.63 25.45 25.63 25.11 25.63 24.9C25.63 24.73 25.63 24.41 25.62 24.09L25.62 24C25.62 23.68 25.62 23.36 25.62 23.19C25.63 23.08 25.63 22.89 25.54 22.68C25.52 22.64 25.45 22.48 25.3 22.32C25.13 22.14 24.95 22.05 24.76 21.96C24.65 21.91 24.51 21.86 24.31 21.8C24.07 21.74 23.7 21.66 23.21 21.65C23.43 21.6 24.45 21.39 25.08 20.45C25.4 19.98 25.51 19.51 25.54 19.13C25.54 20.24 25.54 21.35 25.55 22.46C25.55 22.6 25.58 23.17 26.02 23.61C26.31 23.89 26.64 23.99 26.74 24.02C26.95 24.08 27.12 24.08 27.18 24.08L27.21 24.08C28.11 24.08 28.84 23.36 28.84 22.46L28.84 15.62ZM22.84 15.58C23.19 15.59 23.54 15.59 23.89 15.59C24.45 15.6 25 15.59 25.54 15.59C25.54 16.57 25.54 17.55 25.54 18.54C25.52 18.25 25.43 17.3 24.65 16.5C23.96 15.8 23.15 15.63 22.84 15.58Z" fill="#FFFFFF" fill-opacity="1.000000" fill-rule="nonzero"/>
		</g>
		<path id="Vector" d="M22.14 15.58L22.14 23.21C22.15 23.47 22.17 23.92 22.35 24.42C22.33 24.38 22.31 24.34 22.28 24.3C22.25 24.25 22.19 24.16 22.08 24.05C21.84 23.82 21.58 23.7 21.51 23.67L21.5 23.67L21.48 23.66C21.27 23.57 21.04 23.51 20.51 23.46C20.21 23.43 19.81 23.4 19.34 23.39C19.35 24.52 19.36 25.66 19.37 26.8L16.5 26.79L16.5 15.58L22.14 15.58ZM22.7 15.58C22.75 15.58 22.8 15.58 22.84 15.58C23.15 15.63 23.96 15.8 24.65 16.5C25.39 17.26 25.51 18.16 25.54 18.49L25.54 19.17C25.5 19.54 25.39 20 25.08 20.45C24.45 21.39 23.43 21.6 23.21 21.65C23.7 21.66 24.07 21.74 24.32 21.8C24.51 21.86 24.65 21.91 24.76 21.96C24.95 22.05 25.13 22.14 25.3 22.31C25.45 22.48 25.52 22.64 25.54 22.68C25.63 22.89 25.63 23.08 25.62 23.19C25.62 23.55 25.63 24.53 25.63 24.9C25.63 25.1 25.63 25.42 25.63 25.76L25.63 25.83L25.63 25.9C25.63 26.24 25.64 26.58 25.64 26.79C25.12 26.75 24.91 26.7 24.78 26.66C24.08 26.45 23.66 26.14 23.52 26.03C23.33 25.89 23.05 25.64 22.8 25.3C22.63 25.06 22.5 24.82 22.41 24.58C22.39 24.53 22.37 24.48 22.35 24.42C22.17 23.92 22.15 23.47 22.14 23.21L22.14 15.58L22.7 15.58ZM22.35 24.42C22.38 24.48 22.41 24.53 22.42 24.58C22.39 24.53 22.37 24.47 22.35 24.42ZM23.37 18.86L19.7 17.06C19.49 16.96 19.25 17.11 19.25 17.34L19.25 20.93C19.25 21.16 19.49 21.31 19.7 21.21L23.37 19.41C23.6 19.3 23.6 18.97 23.37 18.86Z" fill="#FFFFFF" fill-opacity="1.000000" fill-rule="nonzero"/>
	</g>
	<path id="Доступно в" d="M52.48 17.07L52.48 11.19L48.32 11.19Q48.17 12.51 47.9 13.56Q47.64 14.61 47.3 15.46C47.08 16.03 46.85 16.57 46.6 17.07L46.04 17.07L46.04 20.41L47.5 20.41L47.5 18.33L51.97 18.33L51.97 20.41L53.43 20.41L53.43 17.07L52.48 17.07ZM49.24 13.94Q49.43 13.14 49.53 12.45L50.98 12.45L50.98 17.07L48.18 17.07C48.4 16.6 48.59 16.09 48.77 15.55Q49.04 14.75 49.24 13.94ZM58.66 17.69C59.14 17.2 59.37 16.5 59.37 15.59C59.37 14.98 59.26 14.47 59.04 14.05Q58.81 13.64 58.48 13.36Q58.31 13.21 58.11 13.1Q58.09 13.09 58.08 13.08Q57.5 12.77 56.75 12.77Q55.74 12.77 55.09 13.25Q54.93 13.36 54.79 13.5Q54.76 13.54 54.73 13.57Q54.08 14.3 54.08 15.59Q54.08 16.5 54.42 17.13C54.65 17.56 54.96 17.88 55.36 18.1Q55.4 18.12 55.44 18.14Q56.01 18.43 56.72 18.43Q57.67 18.43 58.32 17.98Q58.5 17.85 58.66 17.69ZM60.94 17.75C61.38 18.2 62.01 18.43 62.83 18.43C63.2 18.43 63.52 18.4 63.77 18.33Q63.79 18.33 63.81 18.32Q64.16 18.22 64.49 18.02L64.49 16.75C64.26 16.9 64.02 17.01 63.79 17.09C63.55 17.18 63.27 17.22 62.95 17.22C62.59 17.22 62.3 17.09 62.1 16.83C61.9 16.57 61.8 16.17 61.8 15.62Q61.8 14.51 62.32 14.15Q62.57 13.97 62.95 13.97C63.16 13.97 63.36 14 63.56 14.06C63.76 14.12 63.98 14.2 64.21 14.29L64.65 13.14C64.45 13.04 64.21 12.95 63.93 12.88Q63.51 12.77 62.95 12.77C62.43 12.77 61.96 12.87 61.56 13.07C61.16 13.27 60.84 13.58 60.61 14C60.39 14.42 60.27 14.96 60.27 15.63Q60.27 17.08 60.94 17.75ZM94.35 17.69C94.83 17.2 95.06 16.5 95.06 15.59C95.06 14.98 94.95 14.47 94.73 14.05Q94.5 13.64 94.17 13.36Q94 13.21 93.8 13.1C93.4 12.88 92.95 12.77 92.44 12.77C91.61 12.77 90.96 13.01 90.48 13.5Q90.45 13.54 90.42 13.57Q89.77 14.3 89.77 15.59C89.77 16.19 89.89 16.71 90.11 17.13C90.34 17.56 90.65 17.88 91.05 18.1C91.45 18.32 91.9 18.43 92.41 18.43C93.22 18.43 93.87 18.18 94.35 17.69ZM68.48 13.99L70.27 13.99L70.27 12.87L65.19 12.87L65.19 13.99L66.98 13.99L66.98 18.33L68.48 18.33L68.48 13.99ZM72.13 12.87L70.5 12.87L72.67 18.29L72.58 18.56C72.49 18.82 72.35 19.05 72.17 19.24C71.99 19.43 71.74 19.53 71.43 19.53C71.31 19.53 71.2 19.52 71.1 19.51C71 19.49 70.91 19.48 70.83 19.47L70.83 20.65C70.93 20.67 71.04 20.69 71.16 20.7C71.28 20.72 71.43 20.73 71.6 20.73C72.12 20.73 72.57 20.59 72.97 20.3C73.37 20.02 73.67 19.6 73.87 19.03L76.19 12.87L74.58 12.87L73.58 15.94C73.53 16.08 73.49 16.24 73.45 16.39C73.41 16.55 73.39 16.72 73.37 16.89L73.33 16.89C73.32 16.72 73.3 16.55 73.27 16.39C73.25 16.24 73.21 16.08 73.16 15.94L72.13 12.87ZM81.92 18.33L81.92 12.87L76.96 12.87L76.96 18.33L78.46 18.33L78.46 13.99L80.44 13.99L80.44 18.33L81.92 18.33ZM84.98 14.97L84.98 12.87L83.48 12.87L83.48 18.33L84.98 18.33L84.98 16.08L87.06 16.08L87.06 18.33L88.54 18.33L88.54 12.87L87.06 12.87L87.06 14.97L84.98 14.97ZM103.18 15.05C103.36 14.84 103.45 14.59 103.45 14.3C103.45 13.94 103.36 13.65 103.16 13.45C102.96 13.24 102.7 13.09 102.36 13C102.02 12.91 101.64 12.87 101.21 12.87L98.61 12.87L98.61 18.33L101.21 18.33Q102.08 18.33 102.6 18.12C102.96 17.98 103.22 17.79 103.38 17.54C103.54 17.29 103.63 17.01 103.63 16.7C103.63 16.37 103.51 16.09 103.28 15.88C103.05 15.66 102.74 15.53 102.36 15.49L102.36 15.45C102.72 15.39 103 15.25 103.18 15.05ZM101.15 13.92C101.68 13.92 101.94 14.09 101.94 14.42C101.94 14.62 101.86 14.77 101.7 14.86C101.54 14.95 101.3 15 100.98 15L100.1 15L100.1 13.92L101.15 13.92ZM55.87 16.81Q55.61 16.4 55.61 15.59Q55.61 14.78 55.87 14.37Q55.95 14.26 56.05 14.17Q56.31 13.97 56.73 13.97Q57.16 13.97 57.42 14.18Q57.52 14.26 57.59 14.37C57.77 14.64 57.86 15.05 57.86 15.59Q57.86 16.4 57.59 16.81C57.41 17.09 57.13 17.23 56.74 17.23Q56.31 17.23 56.05 17.02Q55.95 16.93 55.87 16.81ZM91.56 16.81Q91.3 16.4 91.3 15.59Q91.3 14.78 91.56 14.37Q91.64 14.26 91.74 14.17Q92 13.97 92.42 13.97Q92.85 13.97 93.11 14.18Q93.21 14.26 93.28 14.37C93.46 14.64 93.55 15.05 93.55 15.59C93.55 16.13 93.46 16.54 93.28 16.81C93.1 17.09 92.82 17.23 92.43 17.23C92.03 17.23 91.74 17.09 91.56 16.81ZM101.83 16.16C102 16.25 102.08 16.41 102.08 16.62C102.08 16.87 101.99 17.04 101.81 17.14Q101.54 17.3 101.11 17.3L100.1 17.3L100.1 16.01L101.08 16.01C101.42 16.01 101.67 16.06 101.83 16.16Z" fill="#061E28" fill-opacity="1.000000" fill-rule="evenodd"/>
	<path id="RuMarket" d="M49.03 29.33L46.88 29.33L46.88 19.15L50.9 19.15C53.21 19.15 54.55 20.45 54.55 22.47C54.55 23.86 53.9 24.87 52.75 25.37L54.91 29.33L52.53 29.33L50.6 25.72L49.03 25.72L49.03 29.33ZM64.77 29.33L64.77 19.15L67.43 19.15L70.23 25.99L70.35 25.99L73.15 19.15L75.81 19.15L75.81 29.33L73.72 29.33L73.72 22.7L73.64 22.7L71 29.28L69.58 29.28L66.95 22.68L66.86 22.68L66.86 29.33L64.77 29.33ZM93.5 29.33L91.38 29.33L91.38 19.15L93.5 19.15L93.5 24.59L93.62 24.59L96.06 21.69L98.49 21.69L95.66 25L98.64 29.33L96.16 29.33L94.07 26.25L93.5 26.9L93.5 29.33ZM110.2 21.69L111.64 21.69L111.64 23.28L110.2 23.28L110.2 26.98C110.2 27.57 110.5 27.73 110.92 27.73C111.12 27.73 111.34 27.68 111.45 27.66L111.78 29.23C111.57 29.3 111.18 29.41 110.63 29.43C109.1 29.5 108.08 28.76 108.09 27.26L108.09 23.28L107.04 23.28L107.04 21.69L108.09 21.69L108.09 19.86L110.2 19.86L110.2 21.69ZM49.03 20.91L49.03 23.99L50.49 23.99C51.73 23.99 52.33 23.48 52.33 22.47C52.33 21.46 51.73 20.91 50.48 20.91L49.03 20.91ZM87.78 29.33L85.66 29.33L85.66 21.69L87.72 21.69L87.72 23.03L87.8 23.03C88.08 22.08 88.78 21.58 89.63 21.58C89.85 21.58 90.11 21.61 90.3 21.66L90.3 23.53C90.1 23.47 89.7 23.42 89.4 23.42C88.47 23.42 87.78 24.07 87.78 25.01L87.78 29.33ZM81.95 28.27C81.58 28.98 80.85 29.47 79.72 29.47C78.26 29.47 77.18 28.71 77.18 27.2C77.18 25.49 78.54 24.98 80.05 24.84C81.38 24.71 81.9 24.65 81.9 24.16L81.9 24.13C81.9 23.5 81.49 23.14 80.77 23.14C80.01 23.14 79.55 23.51 79.41 24.02L77.45 23.86C77.74 22.47 78.95 21.59 80.78 21.59C82.48 21.59 84.02 22.36 84.02 24.18L84.02 29.33L82.01 29.33L82.01 28.27L81.95 28.27ZM106.15 27.14C105.86 28.56 104.58 29.48 102.69 29.48C100.34 29.48 98.9 27.96 98.9 25.54C98.9 23.19 100.36 21.59 102.61 21.59C104.62 21.59 106.2 22.88 106.2 25.47L106.2 26.05L100.99 26.05L100.99 26.06C100.99 27.2 101.67 27.9 102.73 27.9C103.43 27.9 103.98 27.59 104.19 27.01L106.15 27.14ZM59.47 27.64C60.23 27.64 60.93 27.1 60.92 26.08L60.92 21.69L63.04 21.69L63.04 29.33L61.01 29.33L61.01 27.94L60.93 27.94C60.59 28.84 59.76 29.43 58.61 29.43C57.08 29.43 56.03 28.34 56.03 26.55L56.03 21.69L58.15 21.69L58.15 26.18C58.15 27.08 58.67 27.64 59.47 27.64ZM102.64 23.17C101.7 23.17 101.04 23.87 100.99 24.74L104.2 24.74C104.2 23.83 103.56 23.17 102.64 23.17ZM79.21 27.13C79.21 27.71 79.67 28.01 80.32 28.01C81.25 28.01 81.91 27.4 81.91 26.6L81.91 25.79C81.66 25.96 80.91 26.07 80.44 26.13C79.7 26.24 79.21 26.53 79.21 27.13Z" fill="#061E28" fill-opacity="1.000000" fill-rule="evenodd"/>
	<rect id="RuMarket_btn" rx="9.500000" width="136.000000" height="42.000000" transform="translate(0.500000 -0.166626)" stroke="#C0C1C7" stroke-opacity="1.000000" stroke-width="1.000000"/>
</svg>
