<svg width="24" height="25" viewBox="0 0 24 25" fill="none" xmlns="http://www.w3.org/2000/svg">
<g id="svg-gobbler 1" clip-path="url(#clip0_21_6548)">
<g id="Vector">
<path fill-rule="evenodd" clip-rule="evenodd" d="M11.5082 24.4999C6.08097 24.4999 3.3537 24.4999 1.66279 22.8117C-0.0253906 21.1236 -0.0253906 18.4208 -0.0253906 12.9663V12.0063C-0.0253906 6.57902 -0.0253906 3.85175 1.66279 2.16084C3.35097 0.472656 6.0537 0.472656 11.5082 0.472656H12.4682C17.8955 0.472656 20.6228 0.472656 22.3137 2.16084C24.0019 3.84902 24.0019 6.55175 24.0019 12.0063V12.9663C24.0019 18.3936 24.0019 21.1208 22.3137 22.8117C20.6255 24.5027 17.9228 24.4999 12.4682 24.4999H11.5082Z" fill="#0077FF"/>
<path d="M13.9628 4.89084C13.3355 4.88457 12.7901 5.38993 12.7901 6.04993V7.45993L9.84461 6.72629C9.7554 6.70389 9.66386 6.69208 9.57188 6.69111C8.94461 6.68484 8.39915 7.1902 8.39915 7.8502V9.25475L5.48097 8.52656C4.74734 8.34384 4.03552 8.89747 4.03552 9.6502V17.4775C4.03552 18.1429 4.48825 18.7211 5.13461 18.882L9.79825 20.0438C10.5319 20.2266 11.2437 19.6729 11.2437 18.9202V11.0929C11.2437 10.6157 11.01 10.1847 10.641 9.9202C10.6377 9.91059 10.6367 9.90037 10.638 9.89031C10.6393 9.88025 10.6428 9.87061 10.6483 9.86211C10.6581 9.84752 10.6722 9.8364 10.6887 9.83037C10.7051 9.82434 10.7231 9.82371 10.74 9.82857C11.3536 10.014 11.9372 10.6413 11.9972 11.4322L12.1996 17.4049C12.2051 17.6051 12.3387 17.7758 12.5269 17.8386L14.1632 18.2449C14.8969 18.4277 15.6087 17.874 15.6087 17.1213C15.6281 14.5386 15.6223 11.9122 15.6232 9.32129C15.6232 8.96947 15.5042 8.69947 15.3706 8.50311C15.349 8.47023 15.326 8.4382 15.3019 8.40711C15.2723 8.37011 15.241 8.33453 15.2081 8.30047C15.1594 8.24872 15.1068 8.20068 15.051 8.15675L15.0499 8.15566C15.0267 8.13247 15.0202 8.0962 15.0392 8.06893C15.049 8.05433 15.0631 8.04322 15.0796 8.03719C15.0961 8.03115 15.114 8.03052 15.1309 8.03538C15.7445 8.22084 16.3309 8.84811 16.3882 9.63902L16.5905 15.6117C16.5935 15.708 16.6263 15.8009 16.6844 15.8776C16.7426 15.9544 16.8232 16.0111 16.9151 16.0399L18.5542 16.449C19.2878 16.6317 19.9996 16.0781 19.9996 15.3254V7.49811C19.9996 6.83266 19.5469 6.25447 18.9005 6.09357L14.2369 4.93175C14.1477 4.90934 14.0561 4.89753 13.9642 4.89657L13.9628 4.89084Z" fill="white"/>
</g>
</g>
<defs>
<clipPath id="clip0_21_6548">
<rect width="24" height="24" fill="white" transform="translate(0 0.5)"/>
</clipPath>
</defs>
</svg>
