<svg width="137.000000" height="43.000000" viewBox="0 0 137 43" fill="none" xmlns="http://www.w3.org/2000/svg" xmlns:xlink="http://www.w3.org/1999/xlink">
	<desc>
			Created with Pixso.
	</desc>
	<defs>
		<clipPath id="clip8_1961">
			<rect id="svg-gobbler 1" width="24.000000" height="24.000000" transform="translate(12.000000 9.500000)" fill="white" fill-opacity="0"/>
		</clipPath>
	</defs>
	<rect id="svg-gobbler 1" width="24.000000" height="24.000000" transform="translate(12.000000 9.500000)" fill="#FFFFFF" fill-opacity="0"/>
	<g clip-path="url(#clip8_1961)">
		<path id="Vector" d="M23.5 33.5C18.08 33.5 15.35 33.5 13.66 31.81C11.97 30.12 11.97 27.42 11.97 21.96L11.97 21C11.97 15.57 11.97 12.85 13.66 11.16C15.35 9.47 18.05 9.47 23.5 9.47L24.46 9.47C29.89 9.47 32.62 9.47 34.31 11.16C36 12.84 36 15.55 36 21L36 21.96C36 27.39 36 30.12 34.31 31.81C32.62 33.5 29.92 33.5 24.46 33.5L23.5 33.5Z" fill="#0077FF" fill-opacity="1.000000" fill-rule="evenodd"/>
		<path id="Vector" d="M25.96 13.89C25.33 13.88 24.79 14.39 24.79 15.05L24.79 16.46L21.84 15.72C21.75 15.7 21.66 15.69 21.57 15.69C20.94 15.68 20.39 16.19 20.39 16.85L20.39 18.25L17.48 17.52C16.74 17.34 16.03 17.89 16.03 18.65L16.03 26.47C16.03 27.14 16.48 27.72 17.13 27.88L21.79 29.04C22.53 29.22 23.24 28.67 23.24 27.92L23.24 20.09C23.24 19.61 23 19.18 22.64 18.92C22.63 18.91 22.63 18.9 22.63 18.89C22.63 18.88 22.64 18.87 22.64 18.86C22.65 18.84 22.67 18.83 22.68 18.83C22.7 18.82 22.72 18.82 22.74 18.82C23.35 19.01 23.93 19.64 23.99 20.43L24.19 26.4C24.2 26.6 24.33 26.77 24.52 26.83L26.16 27.24C26.89 27.42 27.6 26.87 27.6 26.12C27.62 23.53 27.62 20.91 27.62 18.32C27.62 17.96 27.5 17.69 27.37 17.5C27.34 17.47 27.32 17.43 27.3 17.4C27.27 17.37 27.24 17.33 27.2 17.3C27.16 17.24 27.1 17.2 27.05 17.15L27.05 17.15C27.02 17.13 27.01 17.09 27.03 17.06C27.04 17.05 27.06 17.04 27.08 17.03C27.09 17.03 27.11 17.03 27.13 17.03C27.74 17.22 28.33 17.84 28.38 18.63L28.58 24.61C28.59 24.7 28.62 24.8 28.68 24.87C28.74 24.95 28.82 25.01 28.91 25.04L30.55 25.44C31.28 25.63 32 25.07 32 24.32L32 16.49C32 15.83 31.54 15.25 30.9 15.09L26.23 13.93C26.14 13.9 26.05 13.89 25.96 13.89L25.96 13.89Z" fill="#FFFFFF" fill-opacity="1.000000" fill-rule="nonzero"/>
	</g>
	<path id="Доступно в" d="M52.48 17.74L52.48 11.85L48.32 11.85Q48.17 13.17 47.9 14.22Q47.64 15.27 47.3 16.13C47.08 16.7 46.85 17.24 46.6 17.74L46.04 17.74L46.04 21.08L47.5 21.08L47.5 19L51.97 19L51.97 21.08L53.43 21.08L53.43 17.74L52.48 17.74ZM49.24 14.61Q49.43 13.8 49.53 13.12L50.98 13.12L50.98 17.74L48.18 17.74C48.4 17.26 48.59 16.76 48.77 16.22Q49.04 15.42 49.24 14.61ZM58.66 18.36C59.14 17.86 59.37 17.16 59.37 16.26C59.37 15.65 59.26 15.14 59.04 14.72Q58.81 14.31 58.48 14.02Q58.31 13.88 58.11 13.77Q58.09 13.76 58.08 13.75Q57.5 13.44 56.75 13.44Q55.74 13.44 55.09 13.91Q54.93 14.03 54.79 14.17Q54.76 14.2 54.73 14.24Q54.08 14.96 54.08 16.26Q54.08 17.16 54.42 17.8C54.65 18.22 54.96 18.55 55.36 18.77Q55.4 18.79 55.44 18.81Q56.01 19.1 56.72 19.1Q57.67 19.1 58.32 18.65Q58.5 18.52 58.66 18.36ZM60.94 18.42C61.38 18.87 62.01 19.1 62.83 19.1C63.2 19.1 63.52 19.06 63.77 19Q63.79 18.99 63.81 18.99Q64.16 18.89 64.49 18.68L64.49 17.42C64.26 17.56 64.02 17.68 63.79 17.76C63.55 17.84 63.27 17.88 62.95 17.88C62.59 17.88 62.3 17.75 62.1 17.5C61.9 17.24 61.8 16.83 61.8 16.29Q61.8 15.18 62.32 14.82Q62.57 14.63 62.95 14.63C63.16 14.63 63.36 14.66 63.56 14.73C63.76 14.79 63.98 14.86 64.21 14.95L64.65 13.8C64.45 13.71 64.21 13.62 63.93 13.55Q63.51 13.44 62.95 13.44C62.43 13.44 61.96 13.54 61.56 13.74C61.16 13.93 60.84 14.24 60.61 14.66C60.39 15.08 60.27 15.63 60.27 16.29Q60.27 17.75 60.94 18.42ZM94.35 18.36C94.83 17.86 95.06 17.16 95.06 16.26C95.06 15.65 94.95 15.14 94.73 14.72Q94.5 14.31 94.17 14.02Q94 13.88 93.8 13.77C93.4 13.55 92.95 13.44 92.44 13.44C91.61 13.44 90.96 13.68 90.48 14.17Q90.45 14.2 90.42 14.24Q89.77 14.96 89.77 16.26C89.77 16.86 89.89 17.38 90.11 17.8C90.34 18.22 90.65 18.55 91.05 18.77C91.45 18.99 91.9 19.1 92.41 19.1C93.22 19.1 93.87 18.85 94.35 18.36ZM68.48 14.65L70.27 14.65L70.27 13.54L65.19 13.54L65.19 14.65L66.98 14.65L66.98 19L68.48 19L68.48 14.65ZM72.13 13.54L70.5 13.54L72.67 18.96L72.58 19.22C72.49 19.49 72.35 19.72 72.17 19.91C71.99 20.1 71.74 20.2 71.43 20.2C71.31 20.2 71.2 20.19 71.1 20.17C71 20.16 70.91 20.15 70.83 20.14L70.83 21.31C70.93 21.34 71.04 21.35 71.16 21.37C71.28 21.39 71.43 21.39 71.6 21.39C72.12 21.39 72.57 21.25 72.97 20.97C73.37 20.69 73.67 20.26 73.87 19.7L76.19 13.54L74.58 13.54L73.58 16.6C73.53 16.75 73.49 16.9 73.45 17.06C73.41 17.22 73.39 17.38 73.37 17.55L73.33 17.55C73.32 17.38 73.3 17.22 73.27 17.06C73.25 16.9 73.21 16.75 73.16 16.6L72.13 13.54ZM81.92 19L81.92 13.54L76.96 13.54L76.96 19L78.46 19L78.46 14.65L80.44 14.65L80.44 19L81.92 19ZM84.98 15.64L84.98 13.54L83.48 13.54L83.48 19L84.98 19L84.98 16.74L87.06 16.74L87.06 19L88.54 19L88.54 13.54L87.06 13.54L87.06 15.64L84.98 15.64ZM103.18 15.72C103.36 15.51 103.45 15.26 103.45 14.96C103.45 14.6 103.36 14.32 103.16 14.11C102.96 13.91 102.7 13.76 102.36 13.67C102.02 13.58 101.64 13.54 101.21 13.54L98.61 13.54L98.61 19L101.21 19Q102.08 19 102.6 18.79C102.96 18.65 103.22 18.45 103.38 18.21C103.54 17.96 103.63 17.68 103.63 17.36C103.63 17.03 103.51 16.76 103.28 16.55C103.05 16.33 102.74 16.2 102.36 16.16L102.36 16.11C102.72 16.05 103 15.92 103.18 15.72ZM101.15 14.59C101.68 14.59 101.94 14.75 101.94 15.08C101.94 15.29 101.86 15.44 101.7 15.53C101.54 15.62 101.3 15.66 100.98 15.66L100.1 15.66L100.1 14.59L101.15 14.59ZM55.87 17.48Q55.61 17.06 55.61 16.26Q55.61 15.45 55.87 15.04Q55.95 14.92 56.05 14.84Q56.31 14.63 56.73 14.63Q57.16 14.63 57.42 14.85Q57.52 14.93 57.59 15.04C57.77 15.31 57.86 15.72 57.86 16.26Q57.86 17.06 57.59 17.48C57.41 17.76 57.13 17.89 56.74 17.89Q56.31 17.89 56.05 17.69Q55.95 17.6 55.87 17.48ZM91.56 17.48Q91.3 17.06 91.3 16.26Q91.3 15.45 91.56 15.04Q91.64 14.92 91.74 14.84Q92 14.63 92.42 14.63Q92.85 14.63 93.11 14.85Q93.21 14.93 93.28 15.04C93.46 15.31 93.55 15.72 93.55 16.26C93.55 16.79 93.46 17.2 93.28 17.48C93.1 17.76 92.82 17.89 92.43 17.89C92.03 17.89 91.74 17.76 91.56 17.48ZM101.83 16.82C102 16.92 102.08 17.07 102.08 17.29C102.08 17.53 101.99 17.71 101.81 17.81Q101.54 17.96 101.11 17.96L100.1 17.96L100.1 16.68L101.08 16.68C101.42 16.68 101.67 16.72 101.83 16.82Z" fill="#061E28" fill-opacity="1.000000" fill-rule="evenodd"/>
	<path id="Rustore" d="M49.03 30L46.88 30L46.88 19.81L50.9 19.81C53.21 19.81 54.55 21.12 54.55 23.14C54.55 24.53 53.9 25.54 52.75 26.04L54.91 30L52.53 30L50.6 26.39L49.03 26.39L49.03 30ZM75.22 22.36L76.66 22.36L76.66 23.95L75.22 23.95L75.22 27.65C75.22 28.23 75.52 28.4 75.94 28.4C76.14 28.4 76.36 28.34 76.47 28.32L76.8 29.9C76.59 29.97 76.2 30.08 75.65 30.1C74.11 30.16 73.1 29.42 73.11 27.93L73.11 23.95L72.06 23.95L72.06 22.36L73.11 22.36L73.11 20.53L75.22 20.53L75.22 22.36ZM49.03 21.57L49.03 24.66L50.49 24.66C51.73 24.66 52.33 24.15 52.33 23.14C52.33 22.12 51.73 21.57 50.48 21.57L49.03 21.57ZM88.67 30L86.55 30L86.55 22.36L88.6 22.36L88.6 23.69L88.68 23.69C88.96 22.75 89.66 22.25 90.52 22.25C90.73 22.25 90.99 22.28 91.18 22.33L91.18 24.2C90.98 24.14 90.58 24.09 90.29 24.09C89.35 24.09 88.67 24.73 88.67 25.67L88.67 30ZM67.84 22.26C69.76 22.26 70.9 23.13 71.09 24.54L69.15 24.66C69.04 24.16 68.6 23.76 67.87 23.76C67.21 23.76 66.7 24.06 66.7 24.52C66.7 24.89 66.96 25.13 67.67 25.28L69.05 25.56C70.54 25.86 71.26 26.53 71.26 27.63C71.26 29.13 69.84 30.15 67.86 30.15C65.84 30.15 64.6 29.24 64.39 27.78L66.48 27.67C66.61 28.3 67.11 28.62 67.87 28.62C68.6 28.62 69.1 28.3 69.11 27.84C69.1 27.46 68.8 27.22 68.13 27.08L66.81 26.82C65.31 26.52 64.6 25.78 64.6 24.64C64.6 23.16 65.88 22.26 67.84 22.26ZM85.16 26.21C85.16 28.56 83.73 30.15 81.41 30.15C79.09 30.15 77.65 28.56 77.65 26.21C77.65 23.84 79.09 22.26 81.41 22.26C83.73 22.26 85.16 23.84 85.16 26.21ZM98.85 27.81C98.56 29.23 97.28 30.15 95.39 30.15C93.04 30.15 91.6 28.63 91.6 26.21C91.6 23.86 93.06 22.26 95.31 22.26C97.33 22.26 98.9 23.54 98.9 26.14L98.9 26.72L93.7 26.72L93.7 26.72C93.7 27.86 94.37 28.56 95.43 28.56C96.13 28.56 96.68 28.26 96.9 27.68L98.85 27.81ZM59.47 28.3C60.23 28.3 60.93 27.77 60.92 26.74L60.92 22.36L63.04 22.36L63.04 30L61.01 30L61.01 28.61L60.93 28.61C60.59 29.5 59.76 30.09 58.61 30.09C57.08 30.09 56.03 29.01 56.03 27.22L56.03 22.36L58.15 22.36L58.15 26.84C58.15 27.74 58.67 28.3 59.47 28.3ZM95.34 23.84C94.4 23.84 93.74 24.54 93.7 25.4L96.91 25.4C96.9 24.5 96.26 23.84 95.34 23.84ZM79.8 26.19C79.8 27.52 80.35 28.5 81.42 28.5C82.47 28.5 83.02 27.52 83.02 26.19C83.02 24.86 82.47 23.87 81.42 23.87C80.35 23.87 79.8 24.86 79.8 26.19Z" fill="#061E28" fill-opacity="1.000000" fill-rule="evenodd"/>
	<rect id="Rustore_btn" rx="9.500000" width="136.000000" height="42.000000" transform="translate(0.500000 0.500000)" stroke="#C0C1C7" stroke-opacity="1.000000" stroke-width="1.000000"/>
</svg>
