<svg width="24" height="24" viewBox="0 0 24 24" fill="none" xmlns="http://www.w3.org/2000/svg">
<path d="M14.2088 16.6424L14.3289 16.0732L14.7367 15.6644C15.0644 15.3359 15.4962 15.1392 15.9527 15.1076C16.4091 15.076 16.8628 15.2112 17.2308 15.4907C17.5991 15.7704 17.8576 16.1765 17.9561 16.636C18.0546 17.0958 17.9859 17.5756 17.7636 17.9872C17.5413 18.3986 17.1814 18.7129 16.7519 18.8753C16.3225 19.0377 15.8502 19.0385 15.4203 18.8776C14.9903 18.7165 14.6294 18.4035 14.4058 17.9929C14.1821 17.5821 14.1118 17.1025 14.2088 16.6424ZM8.79143 12.4051L8.67231 12.9731L8.26359 13.3831C7.99428 13.6532 7.65312 13.8355 7.28367 13.9087C6.91429 13.9818 6.53161 13.943 6.18345 13.7965C5.83517 13.65 5.53595 13.4018 5.32471 13.0817C5.11339 12.7615 5 12.3842 5 11.9974C5 11.6106 5.11339 11.2332 5.32471 10.913C5.53595 10.5929 5.83517 10.3448 6.18345 10.1983C6.53161 10.0518 6.91429 10.0129 7.28367 10.0861C7.65312 10.1592 7.99428 10.3416 8.26359 10.6117L8.67253 11.0219L8.79143 11.5888C8.84787 11.8579 8.84787 12.136 8.79143 12.4051ZM14.7367 8.33039L14.3289 7.92151L14.2088 7.35235C14.1118 6.89229 14.1821 6.41268 14.4058 6.00185C14.6294 5.59126 14.9903 5.2782 15.4203 5.11719C15.8502 4.95627 16.3225 4.95706 16.7519 5.11943C17.1814 5.28188 17.5413 5.59616 17.7636 6.00753C17.9859 6.41913 18.0546 6.89898 17.9561 7.3587C17.8576 7.8183 17.5991 8.22435 17.2308 8.50404C16.8628 8.78353 16.4091 8.91878 15.9527 8.88714C15.4962 8.85551 15.0644 8.65883 14.7367 8.33039Z" fill="#117399" stroke="#117399" stroke-width="2"/>
</svg>
