<svg width="24" height="24" viewBox="0 0 24 24" fill="none" xmlns="http://www.w3.org/2000/svg">
<g clip-path="url(#clip0_454_3395)">
<path d="M21.1646 1.97997L20.8935 0.624346C20.8767 0.539819 20.8433 0.459441 20.7954 0.387808C20.7474 0.316175 20.6859 0.254692 20.6142 0.206874C20.5424 0.159057 20.462 0.125842 20.3775 0.109129C20.2929 0.0924154 20.2059 0.092532 20.1214 0.109471C20.0368 0.12632 19.9565 0.159663 19.8848 0.207595C19.8132 0.255528 19.7517 0.317109 19.7039 0.388818C19.6561 0.460528 19.6229 0.540959 19.6062 0.625513C19.5894 0.710068 19.5896 0.797087 19.6065 0.881596L19.8244 1.97172H18.2812V0.752971C18.2812 0.578923 18.2121 0.412003 18.089 0.288933C17.966 0.165862 17.799 0.0967214 17.625 0.0967214C17.451 0.0967214 17.284 0.165862 17.161 0.288933C17.0379 0.412003 16.9688 0.578923 16.9688 0.752971V1.97172H15.4256L15.6435 0.881596C15.6604 0.797087 15.6606 0.710068 15.6438 0.625513C15.6271 0.540959 15.5939 0.460528 15.5461 0.388818C15.4983 0.317109 15.4368 0.255528 15.3652 0.207595C15.2935 0.159663 15.2132 0.12632 15.1286 0.109471C15.0441 0.092532 14.9571 0.0924154 14.8725 0.109129C14.788 0.125842 14.7076 0.159057 14.6358 0.206874C14.5641 0.254692 14.5026 0.316175 14.4546 0.387808C14.4067 0.459441 14.3733 0.539819 14.3565 0.624346L14.0869 1.97172H9.91313L9.6435 0.624346C9.62665 0.539819 9.59331 0.459441 9.54538 0.387808C9.49744 0.316175 9.43586 0.254692 9.36415 0.206874C9.29244 0.159057 9.21201 0.125842 9.12746 0.109129C9.0429 0.0924154 8.95588 0.092532 8.87138 0.109471C8.78685 0.12632 8.70647 0.159663 8.63484 0.207595C8.5632 0.255528 8.50172 0.317109 8.4539 0.388818C8.40609 0.460528 8.37287 0.540959 8.35616 0.625513C8.33944 0.710068 8.33956 0.797087 8.3565 0.881596L8.57438 1.97172H7.03125V0.752971C7.03125 0.578923 6.96211 0.412003 6.83904 0.288933C6.71597 0.165862 6.54905 0.0967214 6.375 0.0967214C6.20095 0.0967214 6.03403 0.165862 5.91096 0.288933C5.78789 0.412003 5.71875 0.578923 5.71875 0.752971V1.97172H4.17563L4.3935 0.881596C4.41044 0.797087 4.41056 0.710068 4.39384 0.625513C4.37713 0.540959 4.34391 0.460528 4.2961 0.388818C4.24828 0.317109 4.1868 0.255528 4.11516 0.207595C4.04353 0.159663 3.96315 0.12632 3.87863 0.109471C3.79412 0.092532 3.7071 0.0924154 3.62254 0.109129C3.53799 0.125842 3.45756 0.159057 3.38585 0.206874C3.31414 0.254692 3.25256 0.316175 3.20462 0.387808C3.15669 0.459441 3.12335 0.539819 3.1065 0.624346L2.83537 1.97997C2.29405 2.02177 1.78838 2.26611 1.41923 2.66424C1.05008 3.06237 0.844592 3.58504 0.84375 4.12797V19.128C0.844426 19.5849 0.989996 20.0299 1.25953 20.3989C1.52906 20.7678 1.90866 21.0419 2.34375 21.1815V23.253C2.34375 23.427 2.41289 23.5939 2.53596 23.717C2.65903 23.8401 2.82595 23.9092 3 23.9092H5.25C5.3926 23.9092 5.53132 23.8627 5.64519 23.7769C5.75905 23.691 5.84187 23.5704 5.88112 23.4333L6.495 21.2842H17.505L18.1189 23.4333C18.1581 23.5704 18.2409 23.691 18.3548 23.7769C18.4687 23.8627 18.6074 23.9092 18.75 23.9092H21C21.174 23.9092 21.341 23.8401 21.464 23.717C21.5871 23.5939 21.6562 23.427 21.6562 23.253V21.1815C22.0913 21.0419 22.4709 20.7678 22.7405 20.3989C23.01 20.0299 23.1556 19.5849 23.1562 19.128V4.12797C23.1554 3.58504 22.9499 3.06237 22.5808 2.66424C22.2116 2.26611 21.7059 2.02177 21.1646 1.97997ZM4.755 22.5967H3.65625V21.2842H5.13L4.755 22.5967ZM20.3438 22.5967H19.245L18.87 21.2842H20.3438V22.5967ZM21.8438 19.128C21.8435 19.3517 21.7545 19.5661 21.5963 19.7243C21.4381 19.8824 21.2237 19.9714 21 19.9717H3C2.77631 19.9714 2.56188 19.8824 2.40371 19.7243C2.24554 19.5661 2.15655 19.3517 2.15625 19.128V8.53422H21.8438V19.128ZM21.8438 7.22172H2.15625V4.12797C2.15655 3.90429 2.24554 3.68985 2.40371 3.53168C2.56188 3.37351 2.77631 3.28452 3 3.28422H21C21.2237 3.28452 21.4381 3.37351 21.5963 3.53168C21.7545 3.68985 21.8435 3.90429 21.8438 4.12797V7.22172Z" fill="#117399"/>
<path fill-rule="evenodd" clip-rule="evenodd" d="M19.875 18.6592H4.125C3.95095 18.6592 3.78403 18.59 3.66096 18.467C3.53789 18.3439 3.46875 18.177 3.46875 18.0029V10.5029C3.46875 10.3289 3.53789 10.162 3.66096 10.0389C3.78403 9.91582 3.95095 9.84668 4.125 9.84668H19.875C20.049 9.84668 20.216 9.91582 20.339 10.0389C20.4621 10.162 20.5312 10.3289 20.5312 10.5029V18.0029C20.5312 18.177 20.4621 18.3439 20.339 18.467C20.216 18.59 20.049 18.6592 19.875 18.6592ZM14.3438 11.1592H9.65625H8.34375H4.78125V17.3467H19.2188V11.1592H15.6562H14.3438Z" fill="#117399"/>
<path d="M19.5 5.90918C19.8624 5.90918 20.1562 5.61537 20.1562 5.25293C20.1562 4.89049 19.8624 4.59668 19.5 4.59668C19.1376 4.59668 18.8438 4.89049 18.8438 5.25293C18.8438 5.61537 19.1376 5.90918 19.5 5.90918Z" fill="#117399"/>
<path d="M16.875 5.90918C17.2374 5.90918 17.5312 5.61537 17.5312 5.25293C17.5312 4.89049 17.2374 4.59668 16.875 4.59668C16.5126 4.59668 16.2188 4.89049 16.2188 5.25293C16.2188 5.61537 16.5126 5.90918 16.875 5.90918Z" fill="#117399"/>
<path d="M4.5 5.90918C4.86244 5.90918 5.15625 5.61537 5.15625 5.25293C5.15625 4.89049 4.86244 4.59668 4.5 4.59668C4.13756 4.59668 3.84375 4.89049 3.84375 5.25293C3.84375 5.61537 4.13756 5.90918 4.5 5.90918Z" fill="#117399"/>
<path d="M7.125 5.90918C7.48744 5.90918 7.78125 5.61537 7.78125 5.25293C7.78125 4.89049 7.48744 4.59668 7.125 4.59668C6.76256 4.59668 6.46875 4.89049 6.46875 5.25293C6.46875 5.61537 6.76256 5.90918 7.125 5.90918Z" fill="#117399"/>
</g>
<defs>
<clipPath id="clip0_454_3395">
<rect width="24" height="24" fill="white" transform="translate(0 0.00292969)"/>
</clipPath>
</defs>
</svg>
