<svg width="48.000000" height="48.000000" viewBox="0 0 48 48" fill="none" xmlns="http://www.w3.org/2000/svg" xmlns:xlink="http://www.w3.org/1999/xlink">
	<desc>
			Created with Pixso.
	</desc>
	<defs>
		<clipPath id="clip8_1906">
			<rect id="btn" rx="9.000000" width="46.000000" height="46.000908" transform="translate(1.000000 0.999023)" fill="white" fill-opacity="0"/>
		</clipPath>
	</defs>
	<g clip-path="url(#clip8_1906)">
		<path id="Vector" d="M31.77 16.42C32.02 16.32 32.29 16.28 32.56 16.32C32.82 16.36 33.07 16.46 33.28 16.63C33.49 16.79 33.66 17.01 33.75 17.26C33.85 17.51 33.88 17.79 33.83 18.05L31.57 31.81C31.35 33.13 29.89 33.9 28.67 33.23C27.66 32.68 26.14 31.83 24.78 30.94C24.1 30.5 22.02 29.07 22.28 28.06C22.5 27.19 26 23.93 28 21.99C28.78 21.23 28.42 20.79 27.5 21.49C25.19 23.23 21.5 25.88 20.28 26.62C19.2 27.28 18.64 27.39 17.96 27.28C16.74 27.07 15.6 26.76 14.67 26.37C13.42 25.85 13.48 24.13 14.67 23.62L31.77 16.42Z" fill="#117299" fill-opacity="1.000000" fill-rule="evenodd"/>
	</g>
	<rect id="btn" rx="9.000000" width="46.000000" height="46.000908" transform="translate(1.000000 0.999023)" stroke="#117299" stroke-opacity="1.000000" stroke-width="2.000000"/>
</svg>
