<svg width="48" height="48" viewBox="0 0 48 48" fill="none" xmlns="http://www.w3.org/2000/svg">
<rect x="1" y="1" width="46" height="46.0009" rx="9" stroke="#117399" stroke-width="2"/>
<path fill-rule="evenodd" clip-rule="evenodd" d="M31.7767 16.43C32.0238 16.326 32.2943 16.2901 32.5599 16.3261C32.8256 16.3621 33.0768 16.4686 33.2873 16.6347C33.4979 16.8007 33.6601 17.0201 33.757 17.27C33.854 17.52 33.8822 17.7914 33.8387 18.056L31.5707 31.813C31.3507 33.14 29.8947 33.901 28.6777 33.24C27.6597 32.687 26.1477 31.835 24.7877 30.946C24.1077 30.501 22.0247 29.076 22.2807 28.062C22.5007 27.195 26.0007 23.937 28.0007 22C28.7857 21.239 28.4277 20.8 27.5007 21.5C25.1987 23.238 21.5027 25.881 20.2807 26.625C19.2027 27.281 18.6407 27.393 17.9687 27.281C16.7427 27.077 15.6057 26.761 14.6777 26.376C13.4237 25.856 13.4847 24.132 14.6767 23.63L31.7767 16.43Z" fill="#117399"/>
</svg>
