<svg width="24" height="24" viewBox="0 0 24 24" fill="none" xmlns="http://www.w3.org/2000/svg">
<path fill-rule="evenodd" clip-rule="evenodd" d="M15.4881 1.4335C15.8026 1.70307 15.839 2.17654 15.5694 2.49104L13.2021 5.25294L16.0549 5.25294C17.4225 5.25292 18.5248 5.2529 19.3918 5.36946C20.2919 5.49048 21.0497 5.74937 21.6516 6.35129C22.2536 6.95321 22.5125 7.71108 22.6335 8.61119C22.75 9.47816 22.75 10.5805 22.75 11.9481V16.0578C22.75 17.4254 22.75 18.5277 22.6335 19.3947C22.5125 20.2948 22.2536 21.0527 21.6517 21.6546C21.0497 22.2565 20.2919 22.5154 19.3918 22.6364C18.5248 22.753 17.4225 22.753 16.0549 22.7529L7.94513 22.7529C6.57754 22.753 5.47522 22.753 4.60825 22.6364C3.70814 22.5154 2.95027 22.2565 2.34835 21.6546C1.74643 21.0527 1.48754 20.2948 1.36652 19.3947C1.24996 18.5277 1.24998 17.4254 1.25 16.0578L1.25 11.9481C1.24998 10.5805 1.24996 9.47816 1.36652 8.61119C1.48754 7.71108 1.74643 6.95321 2.34835 6.35129C2.95027 5.74938 3.70814 5.49048 4.60825 5.36947C5.47521 5.2529 6.57753 5.25292 7.94512 5.25294L10.7979 5.25294L8.43056 2.49104C8.16099 2.17654 8.19741 1.70307 8.51191 1.4335C8.8264 1.16393 9.29988 1.20036 9.56944 1.51485L12 4.3505L14.4306 1.51485C14.7001 1.20036 15.1736 1.16393 15.4881 1.4335ZM16.75 6.75372L16.75 21.2522C17.7958 21.249 18.5756 21.2326 19.1919 21.1498C19.9257 21.0511 20.3142 20.8707 20.591 20.5939C20.8678 20.3172 21.0482 19.9286 21.1469 19.1948C21.2484 18.4395 21.25 17.4384 21.25 16.0029V12.0029C21.25 10.5675 21.2484 9.56641 21.1469 8.81106C21.0482 8.07729 20.8678 7.68871 20.591 7.41195C20.3142 7.13519 19.9257 6.95474 19.1919 6.85609C18.5756 6.77324 17.7958 6.75692 16.75 6.75372ZM15.25 21.2529L15.25 6.75294L8 6.75294C6.56458 6.75294 5.56347 6.75454 4.80812 6.85609C4.07435 6.95474 3.68577 7.13519 3.40901 7.41195C3.13225 7.68872 2.9518 8.07729 2.85315 8.81106C2.75159 9.56641 2.75 10.5675 2.75 12.0029L2.75 16.0029C2.75 17.4384 2.75159 18.4395 2.85315 19.1948C2.9518 19.9286 3.13225 20.3172 3.40901 20.5939C3.68577 20.8707 4.07435 21.0511 4.80812 21.1498C5.56347 21.2514 6.56459 21.2529 8 21.2529L15.25 21.2529Z" fill="#117399"/>
<path d="M20 16.0029C20 15.4507 19.5523 15.0029 19 15.0029C18.4477 15.0029 18 15.4507 18 16.0029C18 16.5552 18.4477 17.0029 19 17.0029C19.5523 17.0029 20 16.5552 20 16.0029Z" fill="#117399"/>
<path d="M20 12.0029C20 11.4507 19.5523 11.0029 19 11.0029C18.4477 11.0029 18 11.4507 18 12.0029C18 12.5552 18.4477 13.0029 19 13.0029C19.5523 13.0029 20 12.5552 20 12.0029Z" fill="#117399"/>
</svg>
