<svg width="16" height="17" viewBox="0 0 16 17" fill="none" xmlns="http://www.w3.org/2000/svg">
<path fill-rule="evenodd" clip-rule="evenodd" d="M7.99967 11.1668C10.577 11.1668 12.6663 9.07749 12.6663 6.50016C12.6663 3.92283 10.577 1.8335 7.99967 1.8335C5.42235 1.8335 3.33301 3.92283 3.33301 6.50016C3.33301 9.07749 5.42235 11.1668 7.99967 11.1668ZM7.99967 4.50016C7.8103 4.50016 7.68364 4.72739 7.43031 5.18184L7.36477 5.29941C7.29278 5.42855 7.25679 5.49312 7.20066 5.53572C7.14454 5.57833 7.07464 5.59414 6.93485 5.62577L6.80758 5.65457C6.31565 5.76587 6.06968 5.82153 6.01116 6.00971C5.95264 6.19789 6.12032 6.39398 6.45569 6.78615L6.54246 6.88761C6.63776 6.99905 6.68541 7.05477 6.70685 7.12371C6.72828 7.19264 6.72108 7.26699 6.70667 7.41567L6.69355 7.55104C6.64285 8.07428 6.6175 8.3359 6.7707 8.45221C6.92391 8.56851 7.15421 8.46247 7.61481 8.2504L7.73397 8.19553C7.86486 8.13526 7.9303 8.10513 7.99967 8.10513C8.06905 8.10513 8.13449 8.13526 8.26538 8.19553L8.38454 8.2504C8.84514 8.46247 9.07544 8.56851 9.22864 8.45221C9.38185 8.3359 9.3565 8.07428 9.3058 7.55104L9.29268 7.41567C9.27827 7.26699 9.27107 7.19264 9.2925 7.12371C9.31394 7.05477 9.36159 6.99905 9.45689 6.88761L9.54366 6.78615C9.87902 6.39398 10.0467 6.19789 9.98819 6.00971C9.92967 5.82153 9.6837 5.76587 9.19177 5.65457L9.0645 5.62577C8.9247 5.59414 8.85481 5.57833 8.79869 5.53572C8.74256 5.49312 8.70657 5.42855 8.63458 5.29941L8.56904 5.18184C8.31571 4.72739 8.18905 4.50016 7.99967 4.50016Z" fill="#117399"/>
<path d="M4.72867 11.1274L4.47616 12.0485C4.05727 13.5764 3.84782 14.3403 4.12732 14.7585C4.22527 14.9051 4.35667 15.0228 4.50915 15.1004C4.94423 15.3219 5.616 14.9719 6.95954 14.2718C7.40658 14.0389 7.63011 13.9224 7.86762 13.8971C7.95565 13.8877 8.04435 13.8877 8.13238 13.8971C8.36989 13.9224 8.59341 14.0389 9.04045 14.2718C10.384 14.9719 11.0558 15.3219 11.4909 15.1004C11.6433 15.0228 11.7747 14.9051 11.8727 14.7585C12.1522 14.3403 11.9427 13.5764 11.5238 12.0485L11.2713 11.1274C10.3472 11.7819 9.21853 12.1665 8 12.1665C6.78147 12.1665 5.65277 11.7819 4.72867 11.1274Z" fill="#117399"/>
</svg>
