<svg width="48" height="48" viewBox="0 0 48 48" fill="none" xmlns="http://www.w3.org/2000/svg">
<rect x="1" y="1" width="46" height="46.0009" rx="9" stroke="#117399" stroke-width="2"/>
<path d="M33.504 30.3808H31.222C30.359 30.3808 30.099 29.6818 28.552 28.1338C27.2 26.8308 26.629 26.6688 26.287 26.6688C25.814 26.6688 25.685 26.7988 25.685 27.4498V29.5018C25.685 30.0568 25.505 30.3818 24.055 30.3818C22.6483 30.2873 21.2842 29.86 20.075 29.135C18.8658 28.41 17.8461 27.4081 17.1 26.2118C15.3284 24.0069 14.0957 21.4189 13.5 18.6538C13.5 18.3118 13.63 18.0018 14.282 18.0018H16.562C17.148 18.0018 17.359 18.2628 17.589 18.8658C18.696 22.1238 20.585 24.9578 21.352 24.9578C21.646 24.9578 21.774 24.8278 21.774 24.0948V20.7388C21.677 19.2078 20.864 19.0788 20.864 18.5248C20.8743 18.3787 20.9411 18.2423 21.0504 18.1446C21.1596 18.047 21.3026 17.9958 21.449 18.0018H25.033C25.523 18.0018 25.685 18.2458 25.685 18.8318V23.3618C25.685 23.8508 25.895 24.0128 26.043 24.0128C26.337 24.0128 26.563 23.8508 27.102 23.3128C28.2574 21.9038 29.2013 20.334 29.904 18.6528C29.9759 18.451 30.1119 18.2782 30.2912 18.1609C30.4705 18.0435 30.6832 17.988 30.897 18.0028H33.178C33.862 18.0028 34.007 18.3448 33.862 18.8328C33.0324 20.6913 32.0058 22.4553 30.8 24.0948C30.554 24.4698 30.456 24.6648 30.8 25.1048C31.026 25.4468 31.826 26.1148 32.363 26.7498C33.145 27.5298 33.794 28.4318 34.285 29.4198C34.481 30.0558 34.155 30.3808 33.504 30.3808Z" fill="#117399"/>
</svg>
