<svg width="24" height="24" viewBox="0 0 24 24" fill="none" xmlns="http://www.w3.org/2000/svg">
<path d="M3 10.001C3 6.22974 3 4.34412 4.17157 3.17255C5.34315 2.00098 7.22876 2.00098 11 2.00098H13C16.7712 2.00098 18.6569 2.00098 19.8284 3.17255C21 4.34412 21 6.22974 21 10.001V14.001C21 17.7722 21 19.6578 19.8284 20.8294C18.6569 22.001 16.7712 22.001 13 22.001H11C7.22876 22.001 5.34315 22.001 4.17157 20.8294C3 19.6578 3 17.7722 3 14.001V10.001Z" stroke="#E8E9EF" stroke-width="1.5"/>
<path d="M17 14.001C17 16.7624 14.7614 19.001 12 19.001C9.23858 19.001 7 16.7624 7 14.001C7 11.2396 9.23858 9.00098 12 9.00098C14.7614 9.00098 17 11.2396 17 14.001Z" stroke="#E8E9EF" stroke-width="1.5"/>
<path d="M8 6.00098H16" stroke="#E8E9EF" stroke-width="1.5" stroke-linecap="round"/>
<path d="M7.23418 14.3634C8.08868 14.7905 9.06745 15.5219 10.724 15.8205C13.0859 16.2462 12.8501 14.1716 15.2121 14.5971C15.9323 14.7268 16.4181 14.9462 16.7616 15.1815" stroke="#E8E9EF" stroke-width="1.5" stroke-linecap="round"/>
</svg>
