<svg width="24" height="24" viewBox="0 0 24 24" fill="none" xmlns="http://www.w3.org/2000/svg">
<path d="M3 10.0029C3 6.23169 3 4.34608 4.17157 3.1745C5.34315 2.00293 7.22876 2.00293 11 2.00293H13C16.7712 2.00293 18.6569 2.00293 19.8284 3.1745C21 4.34608 21 6.23169 21 10.0029V14.0029C21 17.7742 21 19.6598 19.8284 20.8314C18.6569 22.0029 16.7712 22.0029 13 22.0029H11C7.22876 22.0029 5.34315 22.0029 4.17157 20.8314C3 19.6598 3 17.7742 3 14.0029V10.0029Z" stroke="#117399" stroke-width="1.5"/>
<path d="M17 14.0029C17 16.7644 14.7614 19.0029 12 19.0029C9.23858 19.0029 7 16.7644 7 14.0029C7 11.2415 9.23858 9.00293 12 9.00293C14.7614 9.00293 17 11.2415 17 14.0029Z" stroke="#117399" stroke-width="1.5"/>
<path d="M8 6.00293H16" stroke="#117399" stroke-width="1.5" stroke-linecap="round"/>
<path d="M7.23516 14.3654C8.08965 14.7925 9.06843 15.5239 10.725 15.8225C13.0869 16.2482 12.8511 14.1735 15.2131 14.599C15.9332 14.7288 16.4191 14.9481 16.7626 15.1835" stroke="#117399" stroke-width="1.5" stroke-linecap="round"/>
</svg>
