<svg width="24" height="24" viewBox="0 0 24 24" fill="none" xmlns="http://www.w3.org/2000/svg">
<path d="M7.69293 5.68692C8.40677 3.96324 10.1047 2.75293 12.0836 2.75293C14.0625 2.75293 15.7605 3.96324 16.4743 5.68692C16.6328 6.06961 17.0715 6.25137 17.4542 6.09288C17.8369 5.93439 18.0187 5.49568 17.8602 5.11298C16.9223 2.84833 14.6902 1.25293 12.0836 1.25293C9.4771 1.25293 7.24495 2.84833 6.30707 5.11298C6.14859 5.49568 6.33034 5.93439 6.71304 6.09288C7.09573 6.25137 7.53444 6.06961 7.69293 5.68692Z" fill="#117399"/>
<path d="M7 15.0029C7 15.5552 6.55229 16.0029 6 16.0029C5.44772 16.0029 5 15.5552 5 15.0029C5 14.4506 5.44772 14.0029 6 14.0029C6.55229 14.0029 7 14.4506 7 15.0029Z" fill="#117399"/>
<path d="M10 15.0029C10 15.5552 9.55229 16.0029 9 16.0029C8.44772 16.0029 8 15.5552 8 15.0029C8 14.4506 8.44772 14.0029 9 14.0029C9.55229 14.0029 10 14.4506 10 15.0029Z" fill="#117399"/>
<path d="M13.25 15.0029C13.25 14.5887 13.5858 14.2529 14 14.2529H18C18.4142 14.2529 18.75 14.5887 18.75 15.0029C18.75 15.4171 18.4142 15.7529 18 15.7529H14C13.5858 15.7529 13.25 15.4171 13.25 15.0029Z" fill="#117399"/>
<path fill-rule="evenodd" clip-rule="evenodd" d="M2.6279 3.35175C2.98754 3.14624 3.44568 3.27119 3.65119 3.63083L7.43525 10.2529H16.5648L20.3488 3.63083C20.5543 3.27119 21.0125 3.14624 21.3721 3.35175C21.7317 3.55725 21.8567 4.0154 21.6512 4.37503L18.2924 10.253C19.0849 10.2536 19.7536 10.2601 20.2945 10.3328C20.9223 10.4172 21.4891 10.6029 21.9445 11.0584C22.4 11.5139 22.5857 12.0807 22.6701 12.7085C22.7501 13.3032 22.75 14.0525 22.75 14.9509V15.0549C22.75 15.9534 22.7501 16.7026 22.6701 17.2974C22.5857 17.9252 22.4 18.492 21.9445 18.9475C21.4891 19.4029 20.9223 19.5886 20.2945 19.673C19.6998 19.753 18.9506 19.753 18.0522 19.7529H5.94801C5.04962 19.753 4.30026 19.753 3.70552 19.673C3.07773 19.5886 2.51093 19.4029 2.05546 18.9475C1.59999 18.492 1.41432 17.9252 1.32991 17.2974C1.24995 16.7026 1.24997 15.9534 1.25 15.055V14.9509C1.24997 14.0525 1.24995 13.3032 1.32991 12.7085C1.41432 12.0807 1.59999 11.5139 2.05546 11.0584C2.51093 10.6029 3.07773 10.4172 3.70552 10.3328C4.24646 10.2601 4.91513 10.2536 5.70765 10.253L2.34882 4.37503C2.14331 4.0154 2.26826 3.55725 2.6279 3.35175ZM16.9854 11.7529C16.9947 11.7531 17.0039 11.7531 17.0132 11.7529H18C18.964 11.7529 19.6116 11.7545 20.0946 11.8195C20.5561 11.8815 20.7536 11.9887 20.8839 12.119C21.0142 12.2494 21.1214 12.4469 21.1835 12.9083C21.2484 13.3914 21.25 14.0389 21.25 15.0029C21.25 15.9669 21.2484 16.6145 21.1835 17.0975C21.1214 17.559 21.0142 17.7565 20.8839 17.8868C20.7536 18.0171 20.5561 18.1244 20.0946 18.1864C19.6116 18.2513 18.964 18.2529 18 18.2529H6C5.03599 18.2529 4.38843 18.2513 3.9054 18.1864C3.44393 18.1244 3.24644 18.0171 3.11612 17.8868C2.9858 17.7565 2.87858 17.559 2.81654 17.0975C2.7516 16.6145 2.75 15.9669 2.75 15.0029C2.75 14.0389 2.7516 13.3914 2.81654 12.9083C2.87858 12.4469 2.9858 12.2494 3.11612 12.119C3.24644 11.9887 3.44393 11.8815 3.9054 11.8195C4.38843 11.7545 5.03599 11.7529 6 11.7529H6.98684C6.99607 11.7531 7.00531 11.7531 7.01456 11.7529H16.9854Z" fill="#117399"/>
<path d="M12.0844 5.25293C11.062 5.25293 10.1971 5.93537 9.92408 6.87113C9.80805 7.26876 9.39164 7.49704 8.99401 7.38101C8.59638 7.26498 8.3681 6.84857 8.48413 6.45094C8.93886 4.89262 10.3775 3.75293 12.0844 3.75293C13.7912 3.75293 15.2299 4.89262 15.6846 6.45094C15.8006 6.84857 15.5723 7.26498 15.1747 7.38101C14.7771 7.49704 14.3607 7.26876 14.2447 6.87113C13.9716 5.93537 13.1067 5.25293 12.0844 5.25293Z" fill="#117399"/>
<path d="M12.084 8.00293C12.6363 8.00293 13.084 7.55521 13.084 7.00293C13.084 6.45064 12.6363 6.00293 12.084 6.00293C11.5317 6.00293 11.084 6.45064 11.084 7.00293C11.084 7.55521 11.5317 8.00293 12.084 8.00293Z" fill="#117399"/>
</svg>
