<svg width="48.000000" height="48.000000" viewBox="0 0 48 48" fill="none" xmlns="http://www.w3.org/2000/svg" xmlns:xlink="http://www.w3.org/1999/xlink">
	<desc>
			Created with Pixso.
	</desc>
	<defs>
		<clipPath id="clip8_1908">
			<rect id="icon/youtube" width="24.000000" height="24.000000" transform="translate(12.000000 11.999023)" fill="white" fill-opacity="0"/>
		</clipPath>
		<clipPath id="clip8_1909">
			<rect id="btn" rx="9.000000" width="46.000000" height="46.000000" transform="translate(1.000000 0.999023)" fill="white" fill-opacity="0"/>
		</clipPath>
	</defs>
	<g clip-path="url(#clip8_1909)">
		<rect id="icon/youtube" width="24.000000" height="24.000000" transform="translate(12.000000 11.999023)" fill="#FFFFFF" fill-opacity="0"/>
		<g clip-path="url(#clip8_1908)">
			<path id="Vector" d="M21.59 27.85L27.82 23.99L21.59 20.14L21.59 27.85ZM35.47 17.78C35.62 18.39 35.73 19.2 35.8 20.23C35.89 21.26 35.92 22.14 35.92 22.91L36 23.99C36 26.81 35.8 28.88 35.47 30.2C35.17 31.36 34.47 32.11 33.39 32.43C32.83 32.6 31.8 32.71 30.21 32.79C28.65 32.88 27.22 32.92 25.9 32.92L24 32.99C18.97 32.99 15.83 32.79 14.6 32.43C13.52 32.11 12.82 31.36 12.52 30.2C12.37 29.6 12.26 28.79 12.19 27.76C12.1 26.73 12.07 25.85 12.07 25.07L12 23.99C12 21.18 12.19 19.11 12.52 17.78C12.82 16.63 13.52 15.88 14.6 15.56C15.16 15.39 16.19 15.28 17.78 15.2C19.34 15.11 20.77 15.07 22.09 15.07L24 14.99C29.02 14.99 32.16 15.2 33.39 15.56C34.47 15.88 35.17 16.63 35.47 17.78Z" fill="#117299" fill-opacity="1.000000" fill-rule="nonzero"/>
		</g>
	</g>
	<rect id="btn" rx="9.000000" width="46.000000" height="46.000000" transform="translate(1.000000 0.999023)" stroke="#117299" stroke-opacity="1.000000" stroke-width="2.000000"/>
</svg>
