<svg width="48" height="48" viewBox="0 0 48 48" fill="none" xmlns="http://www.w3.org/2000/svg">
<rect x="1" y="1" width="46" height="46" rx="9" stroke="#117399" stroke-width="2"/>
<path d="M21.6 27.8567L27.828 23.9995L21.6 20.1424V27.8567ZM35.472 17.7895C35.628 18.3938 35.736 19.2038 35.808 20.2324C35.892 21.2609 35.928 22.1481 35.928 22.9195L36 23.9995C36 26.8152 35.808 28.8852 35.472 30.2095C35.172 31.3667 34.476 32.1124 33.396 32.4338C32.832 32.6009 31.8 32.7167 30.216 32.7938C28.656 32.8838 27.228 32.9224 25.908 32.9224L24 32.9995C18.972 32.9995 15.84 32.7938 14.604 32.4338C13.524 32.1124 12.828 31.3667 12.528 30.2095C12.372 29.6052 12.264 28.7952 12.192 27.7667C12.108 26.7381 12.072 25.8509 12.072 25.0795L12 23.9995C12 21.1838 12.192 19.1138 12.528 17.7895C12.828 16.6324 13.524 15.8867 14.604 15.5652C15.168 15.3981 16.2 15.2824 17.784 15.2052C19.344 15.1152 20.772 15.0767 22.092 15.0767L24 14.9995C29.028 14.9995 32.16 15.2052 33.396 15.5652C34.476 15.8867 35.172 16.6324 35.472 17.7895Z" fill="#117399"/>
</svg>
